<svg width="27" height="20" xmlns="http://www.w3.org/2000/svg"><defs><linearGradient x1="0%" y1="100%" y2="0%" id="a"><stop stop-color="#6673B4" offset="0%"/><stop stop-color="#9EAEFF" offset="100%"/></linearGradient></defs><path d="M25.313 0c.482 0 .883.167 1.205.5.321.333.482.75.482 1.25v16.5c0 .5-.16.917-.482 1.25-.322.333-.723.5-1.206.5H1.688c-.482 0-.883-.167-1.205-.5C.161 19.167 0 18.75 0 18.25V1.75C0 1.25.16.833.482.5.804.167 1.205 0 1.688 0h23.625zM2.238 1.429c-.461 0-.734.357-.818 1.071v1.786h24.16V2.5c-.084-.714-.357-1.071-.818-1.071H2.24zM24.76 18.57c.461 0 .734-.312.818-.937V8.57H1.42v9.063c.084.625.357.937.818.937H24.76z" fill="url(#a)" fill-rule="evenodd"/></svg>