<svg xmlns="http://www.w3.org/2000/svg" xmlns:xlink="http://www.w3.org/1999/xlink" width="20" height="20"><defs><path id="b" d="M793.494 68.512l-5.573 5.596-2.03-2.029 5.597-5.573zm1.316-2.252a.63.63 0 0 1 .19.49.748.748 0 0 1-.235.514l-1.003 1.003-2.029-2.029 1.003-1.003a.748.748 0 0 1 .513-.234.63.63 0 0 1 .49.19zm-9.097 6.131l1.896 1.896L785 75zM790 80c5.523 0 10-4.477 10-10s-4.477-10-10-10-10 4.477-10 10 4.477 10 10 10z"/><linearGradient id="a" x1="780" x2="800" y1="80" y2="60" gradientUnits="userSpaceOnUse"><stop offset="0" stop-color="#6673b4"/><stop offset="1" stop-color="#9eaeff"/></linearGradient></defs><use fill="url(#a)" xlink:href="#b" transform="translate(-780 -60)"/></svg>