<svg xmlns="http://www.w3.org/2000/svg" xmlns:xlink="http://www.w3.org/1999/xlink" width="100" height="100" viewBox="0 0 25 25"><defs><path id="b" d="M451 125.5c0-6.904 5.596-12.5 12.5-12.5s12.5 5.596 12.5 12.5-5.596 12.5-12.5 12.5-12.5-5.596-12.5-12.5zm18.433-1.383a.371.371 0 1 0-.721.176 5.34 5.34 0 0 1-1.616 5.235 5.361 5.361 0 0 1-3.6 1.38 5.373 5.373 0 0 1-3.433-1.232l1.619-.146a.37.37 0 1 0-.069-.738l-2.448.22a.37.37 0 0 0-.336.403l.22 2.44a.37.37 0 0 0 .37.338c.01 0 .022 0 .033-.003a.37.37 0 0 0 .336-.403l-.133-1.485a6.084 6.084 0 0 0 3.844 1.35c1.518 0 2.96-.554 4.095-1.575a6.084 6.084 0 0 0 1.84-5.96zm-9.645-2.701a5.388 5.388 0 0 1 6.988-.184l-1.6.06a.37.37 0 0 0-.358.385c.009.2.174.356.372.356h.014l2.456-.09a.37.37 0 0 0 .358-.37v-.045l-.09-2.42a.372.372 0 0 0-.744.027l.058 1.518a6.06 6.06 0 0 0-3.547-1.354 6.074 6.074 0 0 0-4.406 1.568 6.086 6.086 0 0 0-1.84 5.96.37.37 0 0 0 .45.271.371.371 0 0 0 .272-.447 5.346 5.346 0 0 1 1.617-5.235z"/><linearGradient id="a" x1="451" x2="476" y1="138" y2="113" gradientUnits="userSpaceOnUse"><stop offset="0" stop-color="#6673b4"/><stop offset="1" stop-color="#9eaeff"/></linearGradient></defs><use fill="url(#a)" xlink:href="#b" transform="translate(-451 -113)"/></svg>