<svg xmlns="http://www.w3.org/2000/svg" xmlns:xlink="http://www.w3.org/1999/xlink" width="25" height="25"><defs><path id="b" d="M496 125.5c0-6.904 5.596-12.5 12.5-12.5s12.5 5.596 12.5 12.5-5.596 12.5-12.5 12.5-12.5-5.596-12.5-12.5zm17.317-4.817a.62.62 0 0 0-.879 0l-3.938 3.938-3.938-3.938a.62.62 0 0 0-.88 0 .62.62 0 0 0 0 .879l3.94 3.938-3.94 3.938a.625.625 0 1 0 .437 1.063c.157 0 .318-.06.438-.184l3.938-3.938 3.939 3.938c.12.12.28.184.437.184.16 0 .317-.06.437-.184a.62.62 0 0 0 0-.879l-3.93-3.938 3.94-3.938a.62.62 0 0 0 0-.88z"/><linearGradient id="a" x1="496" x2="521" y1="138" y2="113" gradientUnits="userSpaceOnUse"><stop offset="0" stop-color="#6673b4"/><stop offset="1" stop-color="#9eaeff"/></linearGradient></defs><use fill="url(#a)" xlink:href="#b" transform="translate(-496 -113)"/></svg>