<svg width="20" height="20" xmlns="http://www.w3.org/2000/svg"><defs><linearGradient x1="0%" y1="100%" y2="0%" id="a"><stop stop-color="#6673B4" offset="0%"/><stop stop-color="#9EAEFF" offset="100%"/></linearGradient></defs><path d="M10 20C4.477 20 0 15.523 0 10S4.477 0 10 0s10 4.477 10 10-4.477 10-10 10zm3.494-11.488l-2.006-2.006-5.596 5.573 2.029 2.03 5.573-5.597zM14.81 6.26l-1.07-1.07a.63.63 0 0 0-.49-.19.748.748 0 0 0-.514.235l-1.003 1.003 2.029 2.029 1.003-1.003A.748.748 0 0 0 15 6.75a.63.63 0 0 0-.19-.49zm-9.097 6.131L5 15l2.609-.713-1.896-1.896z" fill="url(#a)" fill-rule="evenodd"/></svg>