<svg width="901" height="449" xmlns="http://www.w3.org/2000/svg"><defs><linearGradient x1="100%" y1="0%" x2="0%" y2="100%" id="a"><stop stop-color="#936DFF" offset="0%"/><stop stop-color="#5F44CF" offset="100%"/></linearGradient><filter x="-1.8%" y="-4.6%" width="103.4%" height="108.5%" filterUnits="objectBoundingBox" id="b"><feGaussianBlur stdDeviation="5" in="SourceGraphic"/></filter><linearGradient x1="1.883%" y1="103.958%" y2="0%" id="c"><stop stop-color="#127DB0" offset="0%"/><stop stop-color="#54F0FF" offset="100%"/></linearGradient><filter x="-1.8%" y="-6.1%" width="103.4%" height="113%" filterUnits="objectBoundingBox" id="d"><feGaussianBlur stdDeviation="5" in="SourceGraphic"/></filter></defs><g stroke-width="2" fill="none" fill-rule="evenodd"><path stroke="url(#a)" filter="url(#b)" d="M0 98.07l17.09 57.414L49.831 59.22 79.71 169.3l27.922-70.4 26.46 83.776 29.996-36.142 30.014-26.47 23.753-39.634 28.949 73.672 28.85-16.823 26.366-17.215 26.058-21.199 28.752 66.322 24.09 17.564 30.507-119.59 28.89-24.257 27.197 121.283 25.898-48.513 29.84 122.08 26.616-125.009 30.195-45.585 24.916 49.182 28.546-34.982L658.745 0l28.736 259.09 27.72 143.725L744.549 425l28.541-72.77 29.614-27.01 28.813-84.426 28.487-101.703H900" transform="translate(-10 13)"/><path stroke="url(#c)" filter="url(#d)" d="M0 147.369l18.996-62.822 31.044 82.447 28.327-42.09 29.773-13.03 32.926 14.946 23.705 36.078h25.511l25.06-52.291 32.636-33.809 28.825 35.076 26.437 49.53 26.204-87.49 28.433 25.642 28.258 44.122 26.005-29.56L442.15 60l26.79 44.785 26.526 82.55 28.78-46.69 27.911 32.442 26.598 10.695 57.127-84.02 25.607 63.196 27.982-47.956 28.708 80.513L748.324 340l25.06-95.13 33.277-80.644 27.6 134.026h29.38L895 228.369h5" transform="translate(-10 13)"/><path stroke="url(#a)" d="M0 98.07l17.09 57.414L49.831 59.22 79.71 169.3l27.922-70.4 26.46 83.776 29.996-36.142 30.014-26.47 23.753-39.634 28.949 73.672 28.85-16.823 26.366-17.215 26.058-21.199 28.752 66.322 24.09 17.564 30.507-119.59 28.89-24.257 27.197 121.283 25.898-48.513 29.84 122.08 26.616-125.009 30.195-45.585 24.916 49.182 28.546-34.982L658.745 0l28.736 259.09 27.72 143.725L744.549 425l28.541-72.77 29.614-27.01 28.813-84.426 28.487-101.703H900" transform="translate(-10 13)"/><path stroke="url(#c)" d="M0 147.369l18.996-62.822 31.044 82.447 28.327-42.09 29.773-13.03 32.926 14.946 23.705 36.078h25.511l25.06-52.291 32.636-33.809 28.825 35.076 26.437 49.53 26.204-87.49 28.433 25.642 28.258 44.122 26.005-29.56L442.15 60l26.79 44.785 26.526 82.55 28.78-46.69 27.911 32.442 26.598 10.695 57.127-84.02 25.607 63.196 27.982-47.956 28.708 80.513L748.324 340l25.06-95.13 33.277-80.644 27.6 134.026h29.38L895 228.369h5" transform="translate(-10 13)"/></g></svg>