<svg width="21" height="21" xmlns="http://www.w3.org/2000/svg"><defs><linearGradient x1="0%" y1="100%" y2="0%" id="a"><stop stop-color="#6673B4" offset="0%"/><stop stop-color="#9EAEFF" offset="100%"/></linearGradient></defs><path d="M1.575 6.75h17.85V5c0-.276-.235-.5-.525-.5H2.1a.513.513 0 0 0-.525.5v1.75zm0 2V16c0 .276.235.5.525.5h16.8c.29 0 .525-.224.525-.5V8.75H1.575zM2.1 3h16.8c1.16 0 2.1.895 2.1 2v11c0 1.105-.94 2-2.1 2H2.1C.94 18 0 17.105 0 16V5c0-1.105.94-2 2.1-2z" fill="url(#a)" fill-rule="evenodd"/></svg>