<svg width="40" height="40" xmlns="http://www.w3.org/2000/svg"><defs><linearGradient x1="0%" y1="100%" y2="0%" id="a"><stop stop-color="#6673B4" offset="0%"/><stop stop-color="#9EAEFF" offset="100%"/></linearGradient></defs><path d="M24.535 21.25l-2.885-5h5.771l-2.886 5zm-4.33-5l-2.886 5-2.886-5h5.772zm-7.217 0l-2.886 5-2.885-5h5.771zm-10.102 5L0 16.25h5.773l-2.887 5zm.722.417l2.886-5 2.886 5H3.608zm10.103-5l2.886 5h-5.772l2.886-5zm4.33 5l2.885-5 2.888 5h-5.773zm2.885 5.832l-2.885-5h5.773l-2.888 5zm-4.33-5l-2.885 5-2.886-5h5.772zm-10.102 5l-2.886-5H9.38l-2.886 5zm3.608-4.582l2.886 5H7.217l2.885-5zm4.331 5l2.886-5 2.886 5h-5.772zM23.814 10l-2.888 5-2.885-5h5.773zm-7.217 0l-2.886 5-2.886-5h5.772zM9.38 10l-2.886 5-2.886-5H9.38zm-3.607 5.417H0l2.886-5 2.887 5zm7.215 0H7.217l2.885-5 2.886 5zm7.217 0h-5.772l2.886-5 2.886 5zm7.216 0H21.65l2.885-5 2.886 5zM17.32 33.75l-2.886-5h5.772l-2.886 5zm-4.33-5l-2.887 5-2.885-5h5.771zm-2.164 5.416l2.886-5 2.886 5h-5.772zM13.71 40l-2.886-4.999h5.772L13.71 40z" fill="url(#a)" fill-rule="evenodd"/></svg>