<svg width="40" height="40" xmlns="http://www.w3.org/2000/svg"><defs><linearGradient x1="0%" y1="100%" y2="0%" id="a"><stop stop-color="#6673B4" offset="0%"/><stop stop-color="#9EAEFF" offset="100%"/></linearGradient></defs><path d="M5.284 11.035l4.227 2.414-4.227 2.414v-4.828zm0 6.035l4.227 2.413-4.227 2.413V17.07zm0 12.067l4.227 2.416-4.227 2.412v-4.828zm.353 5.433l4.226-2.413v4.826L5.637 34.57zm0-12.069l4.226-2.415v4.83L5.637 22.5zm0-6.035l4.226-2.414v4.828l-4.226-2.414zm0-6.035l4.226-2.413v4.827L5.637 10.43zm4.93-2.413l4.229 2.413-4.228 2.414V8.018zm0 6.034l4.229 2.414-4.228 2.414v-4.828zm0 6.034l4.229 2.415-4.228 2.414v-4.829zm0 6.035l4.229 2.414-4.228 2.413v-4.827zm0 6.036l4.229 2.413-4.228 2.413v-4.826zm.354 5.43l4.226-2.414V40l-4.226-2.414zm0-6.034l4.226-2.416v4.828l-4.226-2.412zm0-6.035l4.226-2.415v4.828l-4.226-2.413zm0-6.035l4.226-2.413v4.826l-4.226-2.413zm0-12.07L15.147 5v4.828l-4.226-2.414zM0 14.053l4.227 2.414L0 18.88v-4.828zm0 6.034l4.227 2.415L0 24.915v-4.829zm0 6.035l4.227 2.414L0 30.948v-4.827zm.352 5.432l4.227-2.416v4.828L.352 31.553zm0-6.035l4.227-2.415v4.828L.352 25.518zm0-6.035l4.227-2.413v4.826L.352 19.483zm0-6.034l4.227-2.414v4.828L.352 13.449zM15.852 5l4.226 2.414-4.226 2.414V5zm0 12.07l4.226 2.413-4.226 2.413V17.07zm0 6.033l4.226 2.415-4.226 2.413v-4.828zm0 6.034l4.226 2.416-4.226 2.412v-4.828zm0 6.036l4.226 2.413L15.852 40v-4.827zm.352-.603l4.227-2.413v4.826l-4.227-2.413zm0-6.035l4.227-2.414v4.827l-4.227-2.413zm0-6.034l4.227-2.415v4.83L16.204 22.5zm0-6.035l4.227-2.414v4.828l-4.227-2.414zm0-6.035l4.227-2.413v4.827l-4.227-2.414zm4.93-2.413l4.23 2.413-4.23 2.414V8.018zm0 6.034l4.23 2.414-4.23 2.414v-4.828zm0 6.034l4.23 2.415-4.23 2.414v-4.829zm0 12.071l4.23 2.413-4.23 2.413v-4.826zm.354-.604l4.227-2.416v4.828l-4.227-2.412zm0-12.07l4.227-2.413v4.826l-4.227-2.413zm0-6.034l4.227-2.414v4.828l-4.227-2.414zm4.932-2.414l4.226 2.414-4.226 2.414v-4.828zm0 6.035l4.226 2.413-4.226 2.413V17.07zm0 6.033l4.226 2.415-4.226 2.413v-4.828zm0 6.034l4.226 2.416-4.226 2.412v-4.828zm.352-.602L31 26.12v4.827l-4.228-2.413zm0-6.034L31 20.086v4.83L26.772 22.5zm0-6.035L31 14.052v4.828l-4.228-2.414z" fill="url(#a)" fill-rule="evenodd"/></svg>