<svg width="40" height="40" xmlns="http://www.w3.org/2000/svg"><defs><linearGradient x1="0%" y1="100%" y2="0%" id="a"><stop stop-color="#6673B4" offset="0%"/><stop stop-color="#9EAEFF" offset="100%"/></linearGradient></defs><path d="M22.262 30.198l-2.199-3.809h4.398l-2.2 3.809zm-5.5 0l-2.199-3.809h4.398l-2.199 3.809zm-4.947.317l2.198-3.809 2.2 3.809h-4.398zm9.896 0h-4.398l2.2-3.809 2.198 3.809zm3.301-3.809l2.197 3.809h-4.397l2.2-3.809zm2.197 4.445l-2.197 3.81-2.2-3.81h4.397zm-5.498 0l-2.199 3.81-2.199-3.81h4.398zm-7.698 3.81l-2.198-3.81h4.398l-2.2 3.81zm2.75-3.493l2.198 3.81h-4.398l2.2-3.81zm5.499 0l2.2 3.81h-4.399l2.199-3.81zm2.2 4.445l-2.2 3.81-2.199-3.81h4.398zm9.59-10.32l-2.2-3.81h4.398l-2.198 3.81zM39 25.91h-4.399l2.2-3.811L39 25.91zm0 .635l-2.2 3.809-2.199-3.81H39zm-4.948.317l2.198 3.809h-4.397l2.2-3.81zm2.198 4.445l-2.198 3.81-2.2-3.81h4.398zm-4.948.317l2.2 3.81h-4.399l2.199-3.81zm-12.34 4.288l-2.2 3.81-2.199-3.81h4.398zM7.147 21.783l-2.2 3.81-2.198-3.81h4.398zm-2.75 4.128H0L2.199 22.1l2.2 3.81zM2.2 30.355L0 26.545h4.399l-2.2 3.81zm.55.317l2.199-3.81 2.2 3.81H2.75zm2.199 4.445l-2.198-3.81h4.398l-2.2 3.81zm2.75-3.492l2.199 3.81H5.499l2.199-3.81zm11.83 4.574l2.198 3.809h-4.398l2.2-3.81zm-4.822-20.227l4.12 2.38-4.12 2.376v-4.756zm4.464 2.973v4.756l-4.12-2.378 4.12-2.378zm0-5.945v4.756l-4.12-2.377L19.17 13zm.685 0l4.12 2.379-4.12 2.377V13zm0 5.945l4.12 2.378-4.12 2.378v-4.756zm4.463 1.783l-4.276-2.376 4.276-2.38v4.756zm2.409-7.756l4.12 2.38-4.12 2.376v-4.756zm4.463 2.973v4.756l-4.119-2.378 4.12-2.378zm0-5.945v4.756l-4.119-2.377L31.191 10zm.685 0l4.12 2.379-4.12 2.377V10zm0 5.945l4.12 2.378-4.12 2.378v-4.756zm4.464 1.783l-4.276-2.376 4.276-2.38v4.756zM2.685 12.972l4.12 2.38-4.12 2.376v-4.756zm4.464 2.973v4.756l-4.12-2.378 4.12-2.378zm0-5.945v4.756l-4.12-2.377L7.15 10zm.685 0l4.12 2.379-4.12 2.377V10zm0 5.945l4.12 2.378-4.12 2.378v-4.756zm4.463 1.783l-4.275-2.376 4.275-2.38v4.756z" fill="url(#a)" fill-rule="evenodd"/></svg>