<svg width="21" height="21" xmlns="http://www.w3.org/2000/svg"><defs><linearGradient x1="0%" y1="100%" y2="0%" id="a"><stop stop-color="#6673B4" offset="0%"/><stop stop-color="#9EAEFF" offset="100%"/></linearGradient></defs><path d="M4.246 9.388A4.7 4.7 0 0 1 3.088 6.3c0-2.65 2.212-4.8 4.941-4.8 2.73 0 4.942 2.15 4.942 4.8a4.7 4.7 0 0 1-1.158 3.088c2.005.921 3.516 2.691 4.043 4.832h2.415a1 1 0 0 0 1-1v-.2c0-2.375-1.973-4.302-4.413-4.32a3.782 3.782 0 0 1-1.467-.279l.299-1.748a2.008 2.008 0 0 0 1.155.347 1.991 1.991 0 0 0 1.598-.819 1.885 1.885 0 0 0-.486-2.673 2.017 2.017 0 0 0-2.642.332l-1.008-1.403a3.791 3.791 0 0 1 4.642-.306c1.677 1.14 2.084 3.385.91 5.014a3.651 3.651 0 0 1-.373.44C19.565 8.57 21 10.633 21 13.02v.88a2 2 0 0 1-2 2h-2.941v1.6a2 2 0 0 1-2 2H2a2 2 0 0 1-2-2v-1.6c0-2.876 1.736-5.359 4.246-6.512zm2.356-.292c.43.207.915.324 1.427.324.5 0 .972-.11 1.394-.308 1.076-.504 1.818-1.574 1.818-2.812 0-1.723-1.438-3.12-3.212-3.12-1.773 0-3.211 1.397-3.211 3.12 0 1.225.726 2.285 1.784 2.796zm-.776 1.502C3.46 11.264 1.73 13.386 1.73 15.9v.92a1 1 0 0 0 1 1h10.6a1 1 0 0 0 1-1v-.92c0-2.514-1.73-4.636-4.097-5.302a5.04 5.04 0 0 1-2.203.502 5.04 5.04 0 0 1-2.203-.502z" fill="url(#a)" fill-rule="evenodd"/></svg>