<svg width="20" height="20" fill="none" xmlns="http://www.w3.org/2000/svg"><path fill-rule="evenodd" clip-rule="evenodd" d="M20 10c0 5.523-4.477 10-10 10S0 15.523 0 10 4.477 0 10 0s10 4.477 10 10zM9.28 5.363a.719.719 0 1 1 1.438-.002l-.004 3.913 3.906.004c.399 0 .719.32.718.718a.694.694 0 0 1-.207.51.725.725 0 0 1-.509.207l-3.913.004-.004 3.913c.004.395-.257.715-.716.716-.4 0-.72-.32-.719-.719l.004-3.913-3.913.004a.719.719 0 1 1 .001-1.439l3.914-.003.004-3.913z" fill="url(#paint0_linear)"/><defs><linearGradient id="paint0_linear" x1="10" y1="30" x2="30" y2="10" gradientUnits="userSpaceOnUse"><stop stop-color="#6673B4"/><stop offset="1" stop-color="#9EAEFF"/></linearGradient></defs></svg>