<svg width="30" height="30" fill="none" xmlns="http://www.w3.org/2000/svg"><rect width="30" height="30" rx="4" fill="url(#paint0_linear)"/><path d="M9.984 20v-9.73h5.838v.784h-4.97v3.612h4.13v.77h-4.13v3.794h4.97V20H9.984zm8.056 0v-7h.826v1.008a7.784 7.784 0 0 1 1.26-.7 6.081 6.081 0 0 1 1.386-.448v.84a7.448 7.448 0 0 0-1.26.392 9.18 9.18 0 0 0-1.022.448l-.364.21V20h-.826z" fill="#fff"/><defs><linearGradient id="paint0_linear" x1="15" y1="45" x2="45" y2="15" gradientUnits="userSpaceOnUse"><stop stop-color="#127DB0"/><stop offset="1" stop-color="#54F0FF"/></linearGradient></defs></svg>