<svg width="15" height="17" fill="none" xmlns="http://www.w3.org/2000/svg"><path fill-rule="evenodd" clip-rule="evenodd" d="M12.375 6.25H14a1 1 0 0 1 1 1v8.25a1 1 0 0 1-1 1H1a1 1 0 0 1-1-1V7.25a1 1 0 0 1 1-1h1.625V4.875c0-1.344.477-2.492 1.43-3.445C5.008.477 6.156 0 7.5 0c1.344 0 2.492.477 3.445 1.43.953.953 1.43 2.101 1.43 3.445V6.25zm-9-1.375V6.25h8.25V4.875c0-1.156-.398-2.133-1.195-2.93C9.633 1.148 8.656.75 7.5.75c-1.156 0-2.133.398-2.93 1.195-.797.797-1.195 1.774-1.195 2.93zM13.75 15.75a.5.5 0 0 0 .5-.5V7.5a.5.5 0 0 0-.5-.5H1.25a.5.5 0 0 0-.5.5v7.75a.5.5 0 0 0 .5.5h12.5z" fill="#9EAEFF"/></svg>