<svg width="27" height="24" viewBox="0 0 27 24" fill="none" xmlns="http://www.w3.org/2000/svg">
<path fill-rule="evenodd" clip-rule="evenodd" d="M25.3125 0C25.7946 0 26.1964 0.199998 26.5179 0.6C26.8393 1 27 1.5 27 2.1V21.9C27 22.5 26.8393 23 26.5179 23.4C26.1964 23.8 25.7946 24 25.3125 24H1.6875C1.20535 24 0.803573 23.8 0.482143 23.4C0.160713 23 0 22.5 0 21.9V2.1C0 1.5 0.160713 1 0.482143 0.6C0.803573 0.199998 1.20535 0 1.6875 0H25.3125ZM2.2389 1.71426C1.77755 1.71426 1.50493 2.14283 1.42105 2.99998V5.14284H25.5789V2.99998C25.4951 2.14283 25.2225 1.71426 24.7611 1.71426H2.2389ZM24.7611 22.2857C25.2225 22.2857 25.4951 21.9107 25.5789 21.1607V10.2857H1.42105V21.1607C1.50493 21.9107 1.77755 22.2857 2.2389 22.2857H24.7611Z" fill="url(#paint0_linear)"/>
<defs>
<linearGradient id="paint0_linear" x1="13.5" y1="36" x2="37.3345" y2="9.18621" gradientUnits="userSpaceOnUse">
<stop stop-color="#6673B4"/>
<stop offset="1" stop-color="#9EAEFF"/>
</linearGradient>
</defs>
</svg>
