<svg width="27" height="24" fill="none" xmlns="http://www.w3.org/2000/svg"><path fill-rule="evenodd" clip-rule="evenodd" d="M25.313 0c.482 0 .883.2 1.205.6.321.4.482.9.482 1.5v19.8c0 .6-.16 1.1-.482 1.5-.322.4-.723.6-1.206.6H1.688c-.482 0-.883-.2-1.205-.6C.161 23 0 22.5 0 21.9V2.1C0 1.5.16 1 .482.6.804.2 1.205 0 1.688 0h23.625zM2.238 1.714c-.461 0-.734.429-.818 1.286v2.143h24.16V3c-.084-.857-.357-1.286-.818-1.286H2.24zM24.76 22.286c.462 0 .734-.375.818-1.125V10.286H1.42V21.16c.084.75.357 1.125.818 1.125H24.76z" fill="url(#paint0_linear)"/><defs><linearGradient id="paint0_linear" x1="13.5" y1="36" x2="37.334" y2="9.186" gradientUnits="userSpaceOnUse"><stop stop-color="#6673B4"/><stop offset="1" stop-color="#9EAEFF"/></linearGradient></defs></svg>