<svg width="15" height="15" xmlns="http://www.w3.org/2000/svg"><defs><linearGradient x1="0%" y1="100%" y2="0%" id="a"><stop stop-color="#6673B4" offset="0%"/><stop stop-color="#9EAEFF" offset="100%"/></linearGradient></defs><path d="M185.821 24.007c1.072.647 1.608 1.573 1.608 2.779 0 .893-.313 1.651-.938 2.276-.625.626-1.384.938-2.277.938-.893 0-1.651-.312-2.276-.938-.626-.625-.938-1.383-.938-2.276 0-1.25.536-2.188 1.607-2.813.156-.357.29-.815.402-1.373 0-.044.061-.106.184-.184s.184-.15.184-.217v-.67c0-.067-.039-.14-.117-.218-.078-.078-.117-.128-.117-.15v-.536c0-.09.011-.156.033-.2l.034-.034v-.034l.067-.033.134-.134v-.034c.067-.067.1-.134.1-.2l.034-.135v-.167c0-.09-.045-.179-.134-.268l-.201-.2a.362.362 0 0 1-.1-.269v-.234c0-.112.044-.212.133-.301l.168-.168c.089-.089.134-.156.134-.2v-.804c0-.09-.045-.179-.134-.268v-.034l-.168-.167a.362.362 0 0 1-.1-.268v-.602c0-.425.1-.681.301-.77.201-.068.458-.101.77-.101.357 0 .62.09.787.268.168.178.262.49.285.937.156 1.808.256 3.404.301 4.788l.234 3.014zm-2.377 4.62c.201.201.458.302.77.302.313 0 .57-.1.77-.302.201-.2.302-.457.302-.77 0-.312-.1-.57-.302-.77-.2-.2-.457-.301-.77-.301-.312 0-.569.1-.77.301-.2.2-.301.458-.301.77 0 .313.1.57.301.77zm7.733-7.634c-1.071-.647-1.607-1.573-1.607-2.779 0-.893.312-1.651.938-2.276.625-.626 1.383-.938 2.276-.938.893 0 1.652.312 2.277.938.625.625.938 1.383.938 2.276 0 1.25-.536 2.188-1.608 2.813-.156.357-.29.815-.401 1.373 0 .044-.062.106-.185.184-.122.078-.184.15-.184.217v.67c0 .067.04.14.118.218.078.078.117.128.117.15v.536c0 .09-.011.156-.034.2l-.033.034v.034l-.067.033-.134.134v.034c-.067.067-.1.134-.1.2l-.034.135v.167c0 .09.045.179.134.268l.2.2a.362.362 0 0 1 .101.269v.234a.416.416 0 0 1-.134.301l-.167.168c-.09.089-.134.156-.134.2v.804c0 .09.045.179.134.268v.034l.167.167c.067.067.1.156.1.268v.602c0 .425-.1.681-.3.77a2.452 2.452 0 0 1-.77.101c-.358 0-.62-.09-.788-.268-.167-.178-.262-.49-.284-.937a90.13 90.13 0 0 1-.301-4.788l-.235-3.014zm2.377-4.62a1.04 1.04 0 0 0-.77-.302c-.312 0-.569.1-.77.302-.2.2-.301.457-.301.77 0 .312.1.57.301.77.201.2.458.301.77.301.313 0 .57-.1.77-.301.201-.2.302-.458.302-.77 0-.313-.1-.57-.302-.77z" transform="translate(-181 -15)" fill="url(#a)" fill-rule="evenodd"/></svg>