<svg xmlns="http://www.w3.org/2000/svg" xmlns:xlink="http://www.w3.org/1999/xlink" width="192" height="160" viewBox="0 0 48 40"><defs><path id="a" d="M85.542 55.8h-1.197L81.952 49h.964l1.662 5.6h.698l1.696-5.6h.964zM72.012 51v2.8c0 .3-.066.633-.199.9-.133.233-.3.433-.499.6-.232.167-.498.3-.764.367a2.8 2.8 0 0 1-.898.133h-2.46v-.7h2.26c.2 0 .4-.033.566-.1.2-.033.366-.133.532-.267.166-.166.299-.333.399-.533.133-.233.166-.5.166-.767V51.3c0-.267-.067-.533-.166-.767-.1-.2-.233-.366-.4-.5a1.685 1.685 0 0 0-.531-.3c-.2-.066-.366-.1-.565-.1h-2.26v-.7h2.46c.332 0 .63.034.963.134.266.066.499.2.732.366.2.167.365.367.465.6.1.267.166.567.2.967zm6.682 1v.7h-3.956V52zm.532 3.133v.7h-4.488v-.7zm0-6.166v.7h-4.488v-.7zM62.173 57.7c-.233-.267-.266-.667 0-.9.266-.233.665-.233.897 0 .133.167.2.4.133.633l3.324 3.334a.632.632 0 0 1 .632.166c.233.267.233.667 0 .9-.266.234-.665.234-.897 0a.636.636 0 0 1-.167-.633l-3.324-3.333c-.233.066-.465 0-.598-.167zm-.067-2.167c-.232-.266-.232-.666 0-.9.266-.233.665-.233.898 0 .166.167.232.4.166.634l2.526 2.533h2.061c.034-.067.067-.133.1-.167.266-.233.665-.233.898 0 .232.267.232.667 0 .9-.266.234-.665.234-.898 0-.033-.066-.066-.1-.1-.166h-2.293l-2.693-2.7a.695.695 0 0 1-.665-.134zm6.649 9.767c.232.267.232.667 0 .9-.266.233-.665.233-.898 0-.133-.167-.2-.4-.133-.633l-4.986-5a.632.632 0 0 1-.632-.167c-.232-.267-.232-.667 0-.9.266-.233.665-.233.898 0 .166.167.232.4.166.633l4.986 5c.233-.066.466 0 .599.167zM52.499 48.933c-4.754-6.133-6.25-4.966-7.213-5.7-.931-.7-2.228-1.8-2.494-2 .499.334 4.787 3.134 5.286 2.467.465-.6-1.363-3.3-1.862-4.033.499.633 2.228 3 3.192 4.5 1.097 1.733 2.925 4.633 4.82 3.733 1.861-.9 3.69-1.433 2.393-4.433-1.296-3-2.327-5.434-2.294-6.334 0-.133-.265-1.433-.265-1.566.398 1.3 1.362 4.533 1.894 4.566.798.034.632-4.866.665-5.133.033.233.1 11.067 3.99 9.833.166-.033.332-.1.465-.166v3.966a3.996 3.996 0 0 0-3.99 3.7c-.199 2.2 1.463 4.134 3.657 4.3h.333v5.5C57.02 65.7 53.264 70.6 54.095 74.967c-.067-.134-1.962-4.4 3.39-10.567 1.397-1.633-.033-6.333-3.59-7.9-3.557-1.567-4.687-.267-6.349 1.6-1.629 1.867-4.022 3.467-4.754 3.567 1.862-1.2 2.061-1.9 2.66-2.567.598-.633 2.293-2.167 2.393-2.267-.166.034-3.922.934-5.784.8-.698-.066-1.363-.2-2.028-.366 2.46.2 5.086-.067 6.217-.967-4.355-1.433-3.923-2.833-6.25-3.633 1.828.3 4.255 3.033 6.449 2.866 2.094-.066 7.546-.066 6.25-5.9-.034-.233-.1-.566-.2-.7zm10.073-3c-.167 0-.3-.066-.499-.166-.233-.267-.233-.667 0-.9a.632.632 0 0 1 .632-.167l4.986-5c-.067-.2 0-.433.166-.6.266-.233.665-.233.898 0 .232.267.232.667 0 .9a.557.557 0 0 1-.632.133L63.17 45.1a.636.636 0 0 1-.166.633c-.1.134-.266.2-.432.2zm0 2.667c-.167 0-.3-.067-.466-.233-.232-.267-.232-.667 0-.9a.702.702 0 0 1 .632-.134L66.062 44a.636.636 0 0 1 .166-.633c.266-.234.665-.234.898 0 .233.266.233.666 0 .9a.632.632 0 0 1-.632.166l-3.324 3.334a.636.636 0 0 1-.166.633c-.1.133-.266.2-.432.2zm.465 4.467c-.266.233-.665.266-.898 0-.232-.267-.232-.667 0-.9.266-.234.665-.234.898 0 .033.066.066.1.1.166h4.62a.729.729 0 0 1 .1-.166c.266-.234.665-.234.898 0 .232.266.232.666 0 .9-.266.233-.665.233-.898 0-.033-.067-.066-.1-.1-.167h-4.62c-.034.067-.067.133-.1.167zm-.465-2.267c-.167 0-.3-.067-.433-.2-.232-.267-.232-.667 0-.9a.702.702 0 0 1 .632-.133l2.693-2.7h2.293a.729.729 0 0 1 .1-.167c.266-.233.665-.233.898 0 .232.267.232.667 0 .9-.266.233-.665.233-.898 0-.033-.067-.066-.1-.1-.167h-2.06l-2.527 2.534a.636.636 0 0 1-.166.633c-.1.133-.266.2-.432.2z"/></defs><use fill="#d0d8ff" xlink:href="#a" transform="translate(-40 -35)"/></svg>