<svg width="15" height="15" xmlns="http://www.w3.org/2000/svg"><defs><linearGradient x1="0%" y1="100%" y2="0%" id="a"><stop stop-color="#6673B4" offset="0%"/><stop stop-color="#9EAEFF" offset="100%"/></linearGradient></defs><path d="M31 18.75V15h3.75v3.75H31zM36.625 30v-3.75h3.75V30h-3.75zM31 30v-3.75h3.75V30H31zm0-5.625v-3.75h3.75v3.75H31zm5.625 0v-3.75h3.75v3.75h-3.75zM42.25 15H46v3.75h-3.75V15zm-5.625 3.75V15h3.75v3.75h-3.75zm5.625 5.625v-3.75H46v3.75h-3.75zm0 5.625v-3.75H46V30h-3.75z" transform="translate(-31 -15)" fill="url(#a)" fill-rule="evenodd"/></svg>