<svg width="15" height="15" xmlns="http://www.w3.org/2000/svg"><defs><linearGradient x1="0%" y1="100%" y2="0%" id="a"><stop stop-color="#6673B4" offset="0%"/><stop stop-color="#9EAEFF" offset="100%"/></linearGradient></defs><path d="M346 20.313c-.964.572-1.445 1.302-1.445 2.187 0 .885.481 1.615 1.445 2.188-.13.416-.339.911-.625 1.484-.885-.208-1.693.052-2.422.781-.65.651-.86 1.458-.625 2.422-.573.286-1.068.495-1.484.625-.573-.964-1.354-1.445-2.344-1.445-.99 0-1.77.481-2.344 1.445a13.524 13.524 0 0 1-1.523-.625c.234-.99.039-1.797-.586-2.422-.625-.625-1.432-.82-2.422-.586a13.524 13.524 0 0 1-.625-1.523c.964-.573 1.445-1.354 1.445-2.344 0-.885-.481-1.615-1.445-2.188.182-.572.39-1.067.625-1.484.885.208 1.693-.052 2.422-.781.625-.625.82-1.432.586-2.422.547-.26 1.054-.469 1.523-.625.573.964 1.354 1.445 2.344 1.445.99 0 1.77-.481 2.344-1.445.469.156.976.365 1.523.625-.234.99-.039 1.797.586 2.422.73.729 1.537.99 2.422.781.286.573.495 1.068.625 1.485zm-10.195 4.882c.755.756 1.653 1.133 2.695 1.133 1.042 0 1.94-.377 2.695-1.133.756-.755 1.133-1.653 1.133-2.695 0-1.042-.377-1.94-1.133-2.695-.755-.756-1.653-1.133-2.695-1.133-1.042 0-1.94.377-2.695 1.133-.756.755-1.133 1.653-1.133 2.695 0 1.042.377 1.94 1.133 2.695z" transform="translate(-331 -15)" fill="url(#a)" fill-rule="evenodd"/></svg>