<?xml version="1.0" encoding="UTF-8"?>
<svg width="30px" height="30px" viewBox="0 0 30 30" version="1.1" xmlns="http://www.w3.org/2000/svg" xmlns:xlink="http://www.w3.org/1999/xlink">
    <!-- Generator: sketchtool 52.6 (67491) - http://www.bohemiancoding.com/sketch -->
    <title>ABB37A74-745F-421D-8D5A-139E6ACFE770</title>
    <desc>Created with sketchtool.</desc>
    <defs>
        <linearGradient x1="0%" y1="100%" x2="100%" y2="0%" id="linearGradient-1">
            <stop stop-color="#6673B4" offset="0%"></stop>
            <stop stop-color="#9EAEFF" offset="100%"></stop>
        </linearGradient>
    </defs>
    <g id="Symbols" stroke="none" stroke-width="1" fill="none" fill-rule="evenodd">
        <g id="ic-btn-stop" fill="url(#linearGradient-1)">
            <path d="M15,30 C6.71572875,30 0,23.2842712 0,15 C0,6.71572875 6.71572875,0 15,0 C23.2842712,0 30,6.71572875 30,15 C30,23.2842712 23.2842712,30 15,30 Z M22.3342591,8.64266344 C23.8117163,10.3456821 24.7058824,12.5684192 24.7058824,15 C24.7058824,20.3604108 20.3604108,24.7058824 15,24.7058824 C12.5619364,24.7058824 10.3338315,23.8069421 8.62905331,22.3224295 C8.66736989,22.3006941 8.70342745,22.273495 8.73609028,22.2408322 L22.3342591,8.64266344 Z M21.4813706,7.77520267 L7.87591568,21.3806576 C7.84063917,21.4159341 7.8117358,21.4551704 7.78920556,21.4969357 C6.23824353,19.7766627 5.29411765,17.4985876 5.29411765,15 C5.29411765,9.63958919 9.63958919,5.29411765 15,5.29411765 C17.4910592,5.29411765 19.7629327,6.23256269 21.4813706,7.77520267 Z M15,26 C21.0751322,26 26,21.0751322 26,15 C26,8.92486775 21.0751322,4 15,4 C8.92486775,4 4,8.92486775 4,15 C4,21.0751322 8.92486775,26 15,26 Z" id="Combined-Shape"></path>
        </g>
    </g>
</svg>