<svg width="30" height="30" xmlns="http://www.w3.org/2000/svg"><defs><linearGradient x1="0%" y1="100%" y2="0%" id="a"><stop stop-color="#6673B4" offset="0%"/><stop stop-color="#9EAEFF" offset="100%"/></linearGradient></defs><path d="M15 30C6.716 30 0 23.284 0 15 0 6.716 6.716 0 15 0c8.284 0 15 6.716 15 15 0 8.284-6.716 15-15 15zM6.225 18.623c-.545-1.186-1.354-.494-1.207 0C6.704 22.978 10.573 26 15.078 26c4.494 0 8.357-3.034 10.048-7.376.141-.371-.12-.74-.465-.728-.202.007-5.279.928-5.279.928-.379.116-.427.517-.379.669.027.18.207.457.579.457l4.036-.7a16.72 16.72 0 0 1-.03.055c-1.744 3.334-4.953 5.465-8.51 5.465-3.812 0-7.212-2.42-8.853-6.147zm17.715-7.246c.545 1.186 1.355.494 1.208 0C23.46 7.022 19.592 4 15.088 4c-4.495 0-8.357 3.034-10.05 7.376-.14.371.122.74.467.728.2-.007 5.278-.928 5.278-.928.379-.116.428-.517.379-.669a.566.566 0 0 0-.578-.457l-4.037.7.03-.055C8.32 7.361 11.53 5.23 15.087 5.23c3.811 0 7.212 2.42 8.852 6.147z" fill="url(#a)" fill-rule="evenodd"/></svg>