<svg width="18" height="15" xmlns="http://www.w3.org/2000/svg"><defs><linearGradient x1="0%" y1="100%" y2="0%" id="a"><stop stop-color="#6673B4" offset="0%"/><stop stop-color="#9EAEFF" offset="100%"/></linearGradient></defs><path d="M120.352 25.195c1.328.495 2.018.925 2.07 1.29L122.5 30h-3.828c0-1.849-.013-2.852-.04-3.008a3.204 3.204 0 0 0-.097-.508c-.039-.13-.228-.338-.566-.625-.339-.286-.834-.56-1.485-.82a9.778 9.778 0 0 1-.37-.137 9.778 9.778 0 0 0-.372-.136 2.67 2.67 0 0 0 .274-.157c.078-.052.143-.097.195-.136a.263.263 0 0 0 .098-.176c.013-.078.02-.137.02-.176v-.45c0-.234-.079-.474-.235-.722-.157-.247-.274-.618-.352-1.113a1.51 1.51 0 0 0-.137-.43c-.065-.13-.136-.351-.214-.664a.685.685 0 0 1-.02-.43c.04-.156.059-.247.059-.273 0-.078-.013-.208-.04-.39a3.389 3.389 0 0 1-.038-.47c-.026-.416.143-.859.507-1.327.365-.47.938-.704 1.72-.704.78 0 1.36.241 1.737.723.378.482.554.918.528 1.309 0 .13-.013.286-.04.468a3.35 3.35 0 0 0-.038.391c0 .052.02.137.058.254.04.117.033.267-.02.45a3.59 3.59 0 0 1-.214.663 1.51 1.51 0 0 0-.137.43c-.078.495-.202.872-.371 1.133-.17.26-.254.495-.254.703 0 .547.065.872.195.976.053.026.495.209 1.329.547zM117.695 30H105c0-1.693.026-2.695.078-3.008.104-.469 1.003-1.028 2.695-1.68 1.042-.39 1.628-.657 1.758-.8.13-.144.196-.593.196-1.348 0-.26-.105-.514-.313-.762-.208-.247-.365-.696-.469-1.347a1.424 1.424 0 0 0-.175-.547c-.092-.156-.176-.443-.254-.86a1.206 1.206 0 0 1-.02-.566c.04-.17.059-.28.059-.332a15.127 15.127 0 0 1-.118-1.133c-.052-.52.163-1.087.645-1.699.482-.612 1.23-.918 2.246-.918s1.771.312 2.266.938c.495.625.716 1.184.664 1.68-.026.39-.065.767-.117 1.132 0 .052.026.156.078.313.052.156.052.351 0 .585-.078.417-.17.704-.274.86a1.25 1.25 0 0 0-.195.547c-.104.65-.26 1.1-.469 1.347-.208.248-.312.502-.312.762v.781c0 .104.039.248.117.43a.659.659 0 0 0 .352.371c.156.065.403.163.742.293.078.026.325.117.742.273 1.693.652 2.591 1.211 2.695 1.68.052.313.078.925.078 1.836V30z" transform="translate(-105 -15)" fill="url(#a)" fill-rule="evenodd"/></svg>