<?xml version="1.0" encoding="UTF-8"?>
<svg width="1279px" height="800px" viewBox="0 0 1279 800" version="1.1" xmlns="http://www.w3.org/2000/svg" xmlns:xlink="http://www.w3.org/1999/xlink">
    <!-- Generator: Sketch 52.6 (67491) - http://www.bohemiancoding.com/sketch -->
    <title>Shape</title>
    <desc>Created with Sketch.</desc>
    <defs>
        <linearGradient x1="32.3596735%" y1="32.3650026%" x2="69.1394867%" y2="69.1410003%" id="linearGradient-1">
            <stop stop-color="#00B3A5" offset="0%"></stop>
            <stop stop-color="#FF68F0" offset="100%"></stop>
        </linearGradient>
    </defs>
    <g id="Home" stroke="none" stroke-width="1" fill="none" fill-rule="evenodd" fill-opacity="0.5">
        <g id="home3" fill="url(#linearGradient-1)" fill-rule="nonzero">
            <g id="bg">
                <g id="Shape">
                    <path d="M1076.15925,380.894926 L1075.95941,380.994848 L999.978767,532.996097 L848.187354,608.886807 L847.98751,608.986729 L771.986885,760.987978 L620.195472,836.928649 L619.995628,837.028571 L543.995004,989.02982 L441.944731,1040 L445.002342,1040 L544.814364,990.098985 L545.014208,989.999063 L621.014832,837.997814 L772.806245,762.107104 L773.006089,762.007182 L849.006714,610.005933 L1000.79813,534.115222 L1000.99797,534.005308 L1076.99859,382.014052 L1228.79001,306.07338 L1228.98985,305.963466 L1278.95082,205.9516 L1278.95082,202.893989 L1227.92069,304.944262 L1076.15925,380.894926 Z M1057.17408,361.909758 L1056.96425,362.019672 L981.023575,514.010929 L829.232162,589.9516 L829.022326,590.051522 L753.081655,742.042779 L601.290242,817.98345 L601.080406,818.083372 L524.989852,969.974707 L384.949258,1040 L388.00687,1040 L525.809212,971.053864 L526.009055,970.94395 L602.00968,818.952693 L753.801093,743.012022 L754.010929,742.9121 L829.9516,590.920843 L981.743013,514.980172 L981.952849,514.88025 L1057.89352,362.888993 L1209.68493,286.948322 L1209.89477,286.8484 L1279.00078,149.006089 L1279.00078,145.948478 L1208.97549,285.999063 L1057.17408,361.909758 Z M1132.96487,-17.9734582 L1056.97424,133.997814 L905.182826,209.938486 L904.982982,210.038407 L828.982358,361.989696 L677.190945,437.930367 L676.991101,438.030289 L600.990476,589.991569 L449.199063,665.93224 L448.999219,666.032162 L372.998595,818.033411 L221.207182,893.974083 L221.007338,894.074005 L147.994379,1040 L149.523185,1040 L222.026542,894.993286 L373.817955,819.052615 L374.017799,818.952693 L450.018423,666.951444 L601.809836,591.010773 L602.00968,590.910851 L678.010304,438.909602 L829.801717,363.018891 L830.001561,362.91897 L906.002186,210.917721 L1057.7936,135.02701 L1057.99344,134.917096 L1133.99407,-17.0741608 L1279.00078,-89.4775956 L1279.00078,-91.0064012 L1133.1847,-18.063388 L1132.96487,-17.9734582 Z M1151.95004,1.0117096 L1075.94941,153.002966 L924.187978,228.893677 L923.988134,229.003591 L847.98751,380.994848 L696.196097,456.885558 L695.986261,456.995472 L620.045589,608.986729 L468.244184,684.9274 L468.04434,685.027322 L392.053708,837.018579 L240.252303,912.959251 L240.052459,913.059173 L176.492116,1040 L178.020921,1040 L241.021702,913.998439 L392.813115,838.057767 L393.022951,837.947853 L469.013583,685.956596 L620.804996,610.015925 L621.014832,609.906011 L696.955504,457.914754 L848.746916,381.974083 L848.956753,381.874161 L924.957377,229.882904 L1076.74879,153.942233 L1076.94863,153.842311 L1152.94926,1.84106167 L1279.00078,-60.9798595 L1279.00078,-62.5086651 L1152.17986,0.901795472 L1151.95004,1.0117096 Z M1247.02576,551.991257 L1171.02514,703.982514 L1019.23372,779.923185 L1019.03388,780.023107 L943.033255,932.014364 L791.241842,1007.95504 L791.032006,1008.05496 L775.044496,1040.02998 L776.573302,1040.02998 L792.071194,1009.05418 L943.862607,933.113505 L944.072443,933.003591 L1020.07307,781.012334 L1171.86448,705.121624 L1172.06432,705.01171 L1248.02498,553.010461 L1279.00078,537.502576 L1279.00078,535.97377 L1247.17564,551.891335 L1247.02576,551.991257 Z M1266.01093,570.976425 L1190.07026,722.977674 L1038.26885,798.918345 L1038.06901,799.018267 L962.068384,951.019516 L810.276971,1026.91023 L810.077127,1027.02014 L803.562217,1040.00999 L805.091023,1040.00999 L811.086339,1028.01936 L962.877752,952.078689 L963.077596,951.978767 L1039.07822,799.977518 L1190.86963,724.086807 L1191.06948,723.986885 L1267.01015,572.005621 L1279.00078,566.010304 L1279.00078,564.471507 L1266.1708,570.886495 L1266.01093,570.976425 Z M1114.17955,418.895238 L1113.9797,418.99516 L1037.97908,570.986417 L886.187666,646.927088 L885.987822,647.02701 L809.987198,799.018267 L658.195785,874.958938 L657.995941,875.05886 L581.995316,1027.01015 L555.945667,1040 L559.003279,1040 L582.804684,1028.0993 L583.01452,1027.99938 L659.015144,875.998126 L810.806557,800.107416 L811.006401,799.997502 L887.007026,648.006245 L1038.79844,572.065574 L1038.99828,571.95566 L1114.99891,419.964403 L1266.79032,344.073692 L1266.99016,343.963778 L1278.9808,319.982514 L1278.9808,316.924902 L1265.99094,342.974551 L1114.17955,418.895238 Z M1095.19438,399.91007 L1094.98454,400.009992 L1019.04387,552.011241 L867.192506,627.881967 L866.98267,627.981889 L790.982045,779.983138 L639.200625,855.92381 L638.990788,856.023731 L562.990164,1008.02498 L498.940203,1040 L502.007806,1040 L563.809524,1009.09415 L564.009368,1008.99422 L640.009992,857.002966 L791.801405,781.062295 L792.001249,780.962373 L868.001874,628.961124 L1019.79329,553.070414 L1020.00312,552.970492 L1095.94379,400.969243 L1247.73521,325.028571 L1247.94504,324.928649 L1278.92084,262.907104 L1278.92084,259.849493 L1246.94582,323.909446 L1095.19438,399.91007 Z M1227.98064,77.0223263 L1152.03997,229.023575 L1000.23856,304.964247 L1000.03872,305.064169 L923.978142,456.995472 L772.186729,532.936144 L771.986885,533.046058 L695.986261,684.987354 L544.194848,760.878064 L543.995004,760.987978 L467.994379,912.979235 L316.202966,988.869945 L316.003123,988.979859 L290.48306,1040 L292.021858,1040 L317.002342,990.039032 L468.793755,914.098361 L468.993599,913.998439 L544.994223,762.007182 L696.785636,686.066511 L696.98548,685.966589 L772.986105,533.975332 L924.777518,458.03466 L924.987354,457.934738 L1000.92802,305.933489 L1152.71944,229.992818 L1152.92927,229.892896 L1228.86995,77.8916472 L1278.83091,52.9111632 L1278.83091,51.3823575 L1228.01062,76.7925059 L1227.98064,77.0223263 Z M1265.95098,114.992662 L1190.0103,266.993911 L1038.2089,342.934582 L1038.00906,343.034504 L961.978454,494.995785 L810.187041,570.886495 L809.987198,570.986417 L733.986573,722.987666 L582.19516,798.928337 L581.995316,799.028259 L505.994692,951.029508 L354.203279,1026.92022 L354.003435,1027.03013 L347.488525,1040.01998 L349.01733,1040.01998 L355.012646,1028.02935 L506.804059,952.088681 L507.003903,951.988759 L583.004528,799.98751 L734.795941,724.096799 L734.995785,723.996877 L810.996409,571.995628 L962.787822,496.104918 L962.987666,496.004996 L1038.98829,344.003747 L1190.7797,268.063076 L1190.97955,267.963154 L1267.01015,116.021858 L1279.00078,110.026542 L1279.00078,108.497736 L1266.1708,114.912724 L1265.95098,114.992662 Z M1246.96581,96.0074941 L1170.96518,247.998751 L1019.17377,323.939422 L1018.97393,324.039344 L942.983294,475.990632 L791.191881,551.931304 L790.982045,552.031226 L714.991413,703.982514 L563.2,779.923185 L562.990164,780.023107 L487.049493,932.014364 L335.25808,1007.95504 L335.048244,1008.05496 L319.060734,1040.02998 L320.589539,1040.02998 L336.087432,1009.05418 L487.878845,933.113505 L488.088681,933.003591 L564.079313,781.012334 L715.870726,705.121624 L716.080562,705.01171 L792.021233,553.020453 L943.812646,477.079781 L944.022482,476.979859 L1020.02311,324.988603 L1171.81452,249.047931 L1172.01436,248.948009 L1248.02498,97.0266979 L1279.00078,81.5188134 L1279.00078,79.9900078 L1247.17564,95.89758 L1246.96581,96.0074941 Z M1170.96518,20.0068696 L1094.96456,171.998126 L943.173146,247.938798 L942.973302,248.03872 L866.98267,399.990008 L715.191257,475.930679 L714.991413,476.030601 L638.990788,627.981889 L487.199375,703.92256 L486.999532,704.022482 L410.998907,856.023731 L259.207494,931.964403 L258.997658,932.064325 L205.039813,1040.08993 L206.568618,1040.08993 L260.066823,933.083528 L411.858236,857.142857 L412.068072,857.042935 L488.018735,705.001717 L639.810148,629.061046 L640.009992,628.951132 L716.010617,476.959875 L867.80203,401.019204 L868.001874,400.90929 L944.002498,249.017955 L1095.79391,173.127244 L1095.99375,173.01733 L1171.99438,21.0260734 L1279.00078,-32.4721311 L1279.00078,-34.010929 L1171.17502,19.9469165 L1170.96518,20.0068696 Z M1114.16956,-37.0985168 L1113.96971,-36.9886027 L1037.96909,115.002654 L886.177674,190.943326 L885.97783,191.05324 L809.987198,342.994536 L658.195785,418.935207 L657.995941,419.035129 L581.995316,570.986417 L430.203903,646.927088 L429.994067,647.02701 L354.003435,799.018267 L202.20203,874.958938 L202.002186,875.05886 L126.061514,1027.06011 L99.921936,1040 L102.979547,1040 L126.780952,1028.0993 L126.990788,1027.99938 L202.981421,875.998126 L354.772834,800.107416 L354.98267,799.997502 L431.013271,648.006245 L582.804684,572.065574 L583.01452,571.95566 L659.015144,419.964403 L810.806557,344.073692 L811.006401,343.963778 L887.007026,192.022482 L1038.79844,116.081811 L1038.99828,115.981889 L1114.99891,-36.0093677 L1266.79032,-111.950039 L1266.99016,-112.049961 L1278.9808,-136.031226 L1278.9808,-139.078845 L1265.99094,-113.019204 L1114.16956,-37.0985168 Z M1189.97034,39.0020297 L1113.96971,191.003279 L962.178298,266.94395 L961.968462,267.053864 L885.987822,418.99516 L734.186417,494.935831 L733.986573,495.045746 L658.045902,647.037002 L506.244496,722.977674 L506.044653,723.087588 L430.044028,875.078845 L278.252615,951.019516 L278.052771,951.119438 L233.487588,1040 L235.026386,1040 L278.992037,951.998751 L430.78345,876.05808 L430.983294,875.948165 L506.983919,723.956909 L658.775332,648.016237 L658.985168,647.916315 L734.9758,495.925059 L886.767213,419.984387 L886.977049,419.884465 L962.917721,267.893208 L1114.70913,191.952537 L1114.91897,191.852615 L1190.9096,39.8513661 L1278.92084,-4.11428571 L1278.92084,-5.65308353 L1190.10023,38.762217 L1189.97034,39.0020297 Z M1227.94067,532.996097 L1152,684.987354 L1000.21858,760.878064 L1000.01874,760.987978 L924.078064,912.979235 L772.276659,988.869945 L772.076815,988.979859 L746.476815,1040 L748.005621,1040 L772.986105,990.039032 L924.777518,914.098361 L924.987354,913.998439 L1000.92802,762.007182 L1152.71944,686.066511 L1152.92927,685.966589 L1228.86995,533.96534 L1278.83091,508.984856 L1278.83091,507.45605 L1228.01062,532.866198 L1227.94067,532.996097 Z M1246.92584,-131.994379 L1095.13443,-56.053708 L1094.92459,-55.9537861 L1018.98392,96.0474629 L867.192506,171.988134 L866.98267,172.088056 L790.982045,323.999375 L639.200625,399.890086 L638.990788,399.990008 L562.990164,551.991257 L411.198751,627.881967 L410.998907,627.981889 L334.998283,779.983138 L183.20687,855.92381 L183.007026,856.023731 L107.006401,1008.02498 L42.9664325,1040 L46.0240437,1040 L107.835753,1009.09415 L108.035597,1008.99422 L184.036222,857.002966 L335.827635,781.062295 L336.027479,780.962373 L412.028103,628.961124 L563.819516,553.070414 L564.01936,552.970492 L640.019984,400.969243 L791.811397,325.028571 L792.011241,324.928649 L868.011866,172.9274 L1019.80328,97.0366901 L1020.01311,96.9367681 L1095.95379,-55.0644809 L1247.7452,-130.955191 L1247.95504,-131.065105 L1278.93084,-193.076659 L1278.93084,-196.034348 L1246.92584,-131.994379 Z M1208.9555,58.0071819 L1132.95488,209.998439 L981.233411,285.899141 L981.033568,285.999063 L904.982982,437.99032 L753.191569,513.930991 L752.991725,514.030913 L676.991101,665.982201 L525.199688,741.922873 L524.989852,742.022795 L449.04918,894.014052 L297.257767,969.954723 L297.047931,970.054645 L262.075254,1040.07994 L263.604059,1040.07994 L298.107104,971.073849 L449.888525,895.133177 L450.098361,895.023263 L526.098985,743.032006 L677.880406,667.141296 L678.090242,667.031382 L754.010929,515.010148 L905.802342,439.069477 L906.002186,438.959563 L982.00281,286.968306 L1133.79422,211.027635 L1133.99407,210.927713 L1209.99469,58.9364559 L1279.00078,24.5233411 L1279.00078,22.9945355 L1209.17533,57.90726 L1208.9555,58.0071819 Z M1170.98517,931.974395 L1116.96737,1040 L1118.49617,1040 L1171.99438,932.993599 L1279.00078,879.495394 L1279.00078,877.966589 L1171.17502,931.924434 L1170.98517,931.974395 Z M1189.97034,950.959563 L1145.46511,1040 L1146.99391,1040 L1190.95956,951.998751 L1278.9708,908.033099 L1278.9708,906.504294 L1190.1502,950.919594 L1189.97034,950.959563 Z M1132.96487,893.954098 L1059.9619,1040 L1061.5007,1040 L1133.99407,894.993286 L1279.00078,822.499922 L1279.00078,820.971116 L1133.1847,893.91413 L1132.96487,893.954098 Z M1208.9655,969.954723 L1173.99282,1039.98002 L1175.52162,1039.98002 L1210.02467,970.973927 L1279.03076,936.470882 L1279.03076,934.942077 L1209.20531,969.854801 L1208.9655,969.954723 Z M1114.16956,874.859016 L1113.96971,874.958938 L1037.97908,1027.01015 L1011.92943,1040 L1014.98704,1040 L1038.79844,1028.0993 L1038.99828,1027.99938 L1114.99891,875.998126 L1266.79032,800.107416 L1266.99016,799.997502 L1278.9808,776.016237 L1278.9808,772.958626 L1265.99094,799.008275 L1114.16956,874.859016 Z M1266.01093,1027.01015 L1259.49602,1040 L1261.01483,1040 L1267.01015,1028.00937 L1279.00078,1022.01405 L1279.00078,1020.48525 L1266.1708,1026.89024 L1266.01093,1027.01015 Z M1247.02576,1008.02498 L1231.03825,1040 L1232.56706,1040 L1248.07494,1009.0242 L1279.05074,993.526308 L1279.05074,991.98751 L1247.2256,1007.90507 L1247.02576,1008.02498 Z M1209.05543,514.040906 L1133.0548,666.032162 L981.233411,741.882904 L981.033568,741.982826 L905.032943,893.974083 L753.24153,969.914754 L753.041686,970.014676 L718.069009,1040.03997 L719.597814,1040.03997 L754.100859,971.03388 L905.892272,895.093208 L906.092116,894.983294 L982.09274,742.992037 L1133.88415,667.101327 L1134.084,666.991413 L1210.08462,515.000156 L1279.00078,480.507104 L1279.00078,478.978298 L1209.17533,513.891023 L1209.05543,514.040906 Z M1228.04059,989.02982 L1202.46058,1040 L1203.98938,1040 L1228.96987,990.039032 L1278.93084,965.058548 L1278.93084,963.51975 L1228.11054,988.929899 L1228.04059,989.02982 Z M1095.14442,855.883841 L1094.93458,855.983763 L1018.99391,1007.97502 L954.94395,1039.95004 L958.001561,1039.95004 L1019.80328,1009.04418 L1020.01311,1008.94426 L1095.95379,856.953005 L1247.7452,781.012334 L1247.95504,780.912412 L1278.93084,718.900859 L1278.93084,715.833255 L1246.95582,779.893208 L1095.14442,855.883841 Z M1151.94005,456.995472 L1075.93942,608.986729 L924.148009,684.9274 L923.948165,685.027322 L847.947541,837.018579 L696.156128,912.959251 L695.946292,913.059173 L632.505855,1040 L634.03466,1040 L696.98548,913.998439 L848.776893,838.057767 L848.986729,837.947853 L924.987354,685.956596 L1076.77877,610.015925 L1076.97861,609.906011 L1152.97923,457.914754 L1278.9808,394.963934 L1278.9808,393.505074 L1152.15988,456.905543 L1151.94005,456.995472 Z M1189.91038,494.965808 L1113.90976,646.957065 L962.118345,722.897736 L961.908509,723.00765 L885.917877,874.998907 L734.116472,950.939578 L733.916628,951.0395 L689.461358,1040 L690.990164,1040 L734.955816,951.998751 L886.747229,876.05808 L886.957065,875.948165 L962.897736,723.956909 L1114.68915,648.016237 L1114.89899,647.916315 L1190.88962,495.925059 L1278.90086,451.959407 L1278.90086,450.460578 L1190.08025,494.865886 L1189.91038,494.965808 Z M1170.92521,475.98064 L1094.92459,627.971897 L943.133177,703.912568 L942.933333,704.01249 L866.932709,856.013739 L715.141296,931.954411 L714.941452,932.054333 L660.973614,1040 L662.482436,1040 L715.98064,932.993599 L867.772053,857.052927 L867.971897,856.953005 L943.972521,704.951756 L1095.76393,629.011085 L1095.96378,628.901171 L1171.9644,476.909914 L1279.00078,423.481655 L1279.00078,421.982826 L1171.17502,475.940671 L1170.92521,475.98064 Z M1132.95488,438.010304 L1056.97424,589.991569 L905.182826,665.93224 L904.982982,666.032162 L828.982358,818.033411 L677.190945,893.974083 L676.991101,894.074005 L603.978142,1040 L605.526932,1040 L678.030289,894.993286 L829.821702,819.052615 L830.021546,818.952693 L906.02217,666.951444 L1057.81358,591.010773 L1058.01343,590.910851 L1134.01405,438.909602 L1279.00078,366.526151 L1279.00078,364.997346 L1133.1847,437.940359 L1132.95488,438.010304 Z M1076.15925,836.878689 L1075.95941,836.97861 L999.958782,988.979859 L897.928493,1040 L900.996097,1040 L1000.79813,990.098985 L1000.99797,989.999063 L1076.99859,837.997814 L1228.79001,762.107104 L1228.98985,762.007182 L1278.95082,661.995316 L1278.95082,658.927713 L1227.92069,760.987978 L1076.15925,836.878689 Z M1057.17408,817.893521 L1056.96425,817.993443 L981.023575,969.984699 L840.933021,1040 L844.000625,1040 L981.792974,971.053864 L982.00281,970.94395 L1057.94348,818.952693 L1209.73489,743.012022 L1209.94473,742.9121 L1279.00078,604.989852 L1279.00078,601.93224 L1208.97549,741.982826 L1057.17408,817.893521 Z M1151.97002,912.989227 L1088.45964,1040 L1089.99844,1040 L1152.99922,913.998439 L1279.00078,850.997658 L1279.00078,849.468852 L1152.17986,912.879313 L1151.97002,912.989227 Z M89.030445,306.013427 L240.821858,230.072756 L241.021702,229.972834 L317.022326,77.9715847 L468.813739,2.08087432 L469.013583,1.97096019 L545.014208,-149.970336 L696.805621,-225.861046 L697.005464,-225.97096 L703.520375,-238.960812 L701.991569,-238.960812 L695.996253,-226.97018 L544.194848,-151.069477 L543.995004,-150.969555 L467.994379,1.0117096 L316.202966,76.90242 L316.003123,77.0023419 L240.002498,229.003591 L88.2110851,304.944262 L88.0112412,305.044184 L11.9906323,456.995472 L0,462.990788 L0,464.519594 L12.9898517,458.004684 L89.030445,306.013427 Z M51.0601093,496.014988 L127.060734,344.013739 L278.852147,268.073068 L279.051991,267.973146 L355.022639,116.021858 L506.814052,40.1311475 L507.013895,40.0212334 L583.01452,-111.970023 L734.805933,-187.860734 L735.005777,-187.970648 L760.525839,-239.000781 L758.997034,-239.000781 L734.01655,-188.989852 L582.19516,-113.099141 L581.995316,-112.999219 L505.994692,39.0020297 L354.203279,114.942701 L354.003435,115.042623 L278.00281,267.003903 L126.211397,342.944575 L126.011553,343.044496 L50.010929,494.995785 L0.049960968,519.976269 L0.049960968,521.505074 L50.8702576,496.094926 L51.0601093,496.014988 Z M183.856362,629.111007 L184.066198,629.001093 L260.056831,477.009836 L411.848244,401.069165 L412.05808,400.959251 L488.018735,249.017955 L639.810148,173.127244 L640.009992,173.01733 L716.010617,21.0260734 L867.80203,-54.914598 L868.001874,-55.0145199 L944.002498,-206.965808 L1008.06245,-239.000781 L1005.00484,-239.000781 L943.183138,-208.084934 L942.983294,-207.985012 L866.98267,-55.9937549 L715.191257,19.9469165 L714.991413,20.0468384 L638.990788,171.998126 L487.199375,247.938798 L486.999532,248.03872 L410.998907,399.990008 L259.207494,475.930679 L258.997658,476.030601 L183.056987,628.021858 L31.2655738,703.962529 L31.0557377,704.062451 L0,766.004059 L0,769.061671 L32.0249805,705.001717 L183.856362,629.111007 Z M164.871194,610.125839 L165.071038,610.015925 L241.071663,458.024668 L392.863076,382.083997 L393.072912,381.984075 L469.063544,229.992818 L620.854957,154.052147 L621.064793,153.952225 L697.005464,1.9509758 L848.796877,-73.9896956 L849.006714,-74.0896175 L925.007338,-226.010929 L951.066979,-239.000781 L948.009368,-239.000781 L924.187978,-227.090086 L923.988134,-226.990164 L847.98751,-74.9889149 L696.196097,0.95175644 L695.986261,1.06167057 L620.045589,153.052927 L468.194223,228.893677 L467.994379,229.003591 L392.003747,380.994848 L240.202342,456.885558 L240.002498,456.995472 L164.001874,608.986729 L12.2104606,684.9274 L12.0106167,685.027322 L0.0199843872,709.008587 L0.0199843872,712.066198 L13.0098361,686.006557 L164.871194,610.125839 Z M39.0994536,-239.000781 L36.0318501,-239.000781 L12.2104606,-227.090086 L11.9906323,-227.010148 L0,-203.028884 L0,-199.971272 L12.9898517,-226.010929 L39.0994536,-239.000781 Z M108.045589,553.010461 L184.046214,401.009212 L335.837627,325.06854 L336.037471,324.968618 L412.038095,172.967369 L563.829508,97.0766589 L564.029352,96.9767369 L640.029977,-55.0245121 L791.82139,-130.915222 L792.021233,-131.025137 L846.019048,-239.000781 L844.490242,-239.000781 L790.982045,-131.994379 L639.200625,-56.053708 L638.990788,-55.9537861 L562.990164,96.0074941 L411.198751,171.948165 L410.998907,172.048087 L334.998283,323.999375 L183.20687,399.890086 L183.007026,399.990008 L107.006401,551.991257 L0,605.489461 L0,607.028259 L107.825761,553.070414 L108.045589,553.010461 Z M89.0604215,534.025293 L165.021077,382.014052 L316.81249,306.07338 L317.022326,305.963466 L393.022951,153.972209 L544.814364,78.0814988 L545.014208,77.9715847 L621.014832,-73.9697112 L772.806245,-149.910383 L773.006089,-150.010304 L817.521311,-239.000781 L815.992506,-239.000781 L772.026854,-150.989539 L620.195472,-75.1288056 L619.995628,-75.0188915 L543.995004,77.0023419 L392.203591,152.943013 L392.003747,153.042935 L316.003123,304.994223 L164.21171,380.934895 L164.001874,381.034817 L88.0612022,533.036066 L0,576.991725 L0,578.520531 L88.8206089,534.115222 L89.0604215,534.025293 Z M70.0752537,515.040125 L146.075878,363.048868 L297.867291,287.108197 L298.067135,287.008275 L374.06776,135.007026 L525.859173,59.1163154 L526.059016,59.0163934 L602.059641,-92.9848556 L753.801093,-168.865574 L754.010929,-168.965496 L789.023575,-239.000781 L787.49477,-239.000781 L752.991725,-169.984699 L601.200312,-94.1139735 L600.990476,-94.0140515 L524.989852,58.0071819 L373.208431,133.897892 L372.998595,133.997814 L296.99797,285.999063 L145.206557,361.939735 L145.006714,362.049649 L69.006089,513.990945 L0,548.493989 L0,550.022795 L69.8254489,515.11007 L70.0752537,515.040125 Z M51.0900859,952.028728 L127.09071,800.027479 L278.782201,724.106792 L278.982045,724.00687 L355.022639,572.005621 L506.814052,496.11491 L507.013895,496.014988 L583.01452,344.013739 L734.805933,268.073068 L735.005777,267.973146 L811.006401,116.021858 L962.797814,40.1311475 L962.997658,40.0212334 L1038.99828,-111.970023 L1190.7897,-187.860734 L1190.98954,-187.970648 L1216.5096,-239.000781 L1214.9808,-239.000781 L1190.00031,-188.989852 L1038.18891,-113.099141 L1037.98907,-112.999219 L961.978454,39.0020297 L810.187041,114.942701 L809.987198,115.042623 L733.986573,267.003903 L582.19516,342.944575 L581.995316,343.044496 L505.994692,494.995785 L354.203279,570.886495 L354.003435,570.986417 L278.00281,722.987666 L126.211397,798.928337 L126.011553,799.028259 L50.010929,950.979547 L0.049960968,975.960031 L0.049960968,977.488837 L50.8202966,952.068696 L51.0900859,952.028728 Z M32.104918,933.04356 L108.105543,781.052303 L259.797034,705.111632 L259.996877,705.001717 L335.997502,553.010461 L487.788915,477.069789 L487.998751,476.969867 L563.989383,324.97861 L715.780796,249.037939 L715.990632,248.938017 L791.931304,96.9467603 L943.722717,21.006089 L943.932553,20.9061671 L1019.93318,-131.095082 L1171.72459,-206.985792 L1171.92443,-207.085714 L1187.91194,-239.120687 L1186.38314,-239.120687 L1170.87525,-208.144887 L1019.20375,-132.084309 L1019.0039,-131.984387 L942.983294,20.0068696 L791.191881,95.947541 L790.982045,96.0574551 L714.991413,247.998751 L563.2,323.939422 L562.990164,324.039344 L487.049493,476.030601 L335.25808,551.971272 L335.048244,552.071194 L258.997658,703.982514 L107.216237,779.923185 L107.006401,780.023107 L30.9758002,931.974395 L0,947.482279 L0,949.011085 L31.8251366,933.083528 L32.104918,933.04356 Z M89.030445,762.007182 L240.821858,686.066511 L241.021702,685.966589 L317.022326,533.96534 L468.813739,458.024668 L469.013583,457.924746 L545.014208,305.923497 L696.805621,229.982826 L697.005464,229.882904 L773.006089,77.881655 L924.797502,1.99094457 L925.007338,1.88103044 L1000.94801,-150.110226 L1152.73942,-226.000937 L1152.94926,-226.110851 L1159.46417,-239.100703 L1157.93536,-239.100703 L1151.94005,-227.11007 L1000.21858,-151.069477 L1000.01874,-150.969555 L924.078064,1.03169399 L772.186729,76.90242 L771.986885,77.0023419 L695.986261,229.003591 L544.194848,304.944262 L543.995004,305.044184 L467.994379,456.995472 L316.202966,532.936144 L316.003123,533.046058 L240.002498,684.987354 L88.2110851,760.878064 L88.0112412,760.987978 L11.9906323,912.979235 L0,918.974551 L0,920.503357 L12.9898517,913.988447 L89.030445,762.007182 Z M202.84153,648.106167 L203.041374,648.006245 L279.041998,496.014988 L430.833411,420.074317 L431.033255,419.974395 L507.03388,267.983138 L658.825293,192.042467 L659.035129,191.942545 L735.025761,39.9412959 L886.817174,-35.9993755 L887.02701,-36.0992974 L962.967681,-188.100546 L1065.06792,-239.000781 L1062.00031,-239.000781 L962.18829,-189.039813 L961.978454,-188.939891 L885.97783,-36.9886027 L734.186417,38.9520687 L733.986573,39.0519906 L658.045902,191.05324 L506.244496,266.993911 L506.044653,267.103825 L429.994067,418.99516 L278.202654,494.935831 L278.00281,495.045746 L202.002186,646.987041 L50.2107728,722.927713 L50.010929,723.037627 L0,822.999532 L0,826.067135 L51.0301327,724.00687 L202.84153,648.106167 Z M89.030445,990.039032 L165.021077,838.037783 L316.81249,762.147073 L317.022326,762.047151 L393.022951,610.045902 L544.814364,534.155191 L545.014208,534.045277 L621.014832,382.014052 L772.806245,306.07338 L773.006089,305.963466 L849.006714,153.972209 L1000.79813,78.0814988 L1000.99797,77.9715847 L1076.99859,-74.0196721 L1228.79001,-149.960343 L1228.98985,-150.060265 L1273.50507,-239.000781 L1272.00625,-239.000781 L1228.04059,-150.989539 L1076.15925,-75.1288056 L1075.95941,-75.0188915 L999.958782,76.9723653 L848.167369,152.913037 L847.967525,153.012959 L771.986885,304.994223 L620.195472,380.934895 L619.995628,381.034817 L543.995004,532.996097 L392.203591,608.886807 L392.003747,608.986729 L316.003123,760.987978 L164.21171,836.928649 L164.001874,837.028571 L88.0612022,989.02982 L0,1033.00546 L0,1034.53427 L88.8206089,990.11897 L89.030445,990.039032 Z M221.826698,667.111319 L222.036534,667.001405 L298.017174,515.010148 L449.808587,439.069477 L450.018423,438.959563 L525.959094,286.968306 L677.750507,211.027635 L677.960343,210.927713 L754.010929,59.0263856 L905.802342,-16.9142857 L906.002186,-17.0142077 L982.00281,-168.965496 L1122.06339,-239.000781 L1119.00578,-239.000781 L981.233411,-170.054645 L981.033568,-169.944731 L904.982982,-17.9934426 L753.191569,57.9472287 L752.991725,58.0471507 L676.991101,209.998439 L525.199688,285.93911 L524.989852,286.039032 L449.04918,438.030289 L297.257767,513.97096 L297.047931,514.070882 L221.007338,665.982201 L69.2159251,741.922873 L69.006089,742.022795 L0,879.995004 L0,883.062607 L70.0252927,743.00203 L221.826698,667.111319 Z M127.040749,572.005621 L203.031382,420.014364 L354.822795,344.123653 L355.032631,344.013739 L431.023263,192.022482 L582.814676,116.081811 L583.024512,115.981889 L659.025137,-36.0093677 L810.81655,-111.950039 L811.016393,-112.049961 L874.516784,-239.000781 L872.987978,-239.000781 L810.037158,-112.989227 L658.245746,-37.0485558 L658.045902,-36.9386417 L581.995316,115.002654 L430.203903,190.943326 L429.994067,191.05324 L354.003435,342.994536 L202.20203,418.935207 L202.002186,419.035129 L126.061514,571.026386 L0,633.987198 L0,635.525995 L126.820921,572.115535 L127.040749,572.005621 Z M70.0852459,970.993911 L146.08587,819.002654 L297.877283,743.061983 L298.077127,742.962061 L374.077752,590.970804 L525.869165,515.030133 L526.069009,514.930211 L602.069633,362.938954 L753.861046,286.998283 L754.070882,286.898361 L830.011553,134.897112 L981.802966,59.0064012 L982.012802,58.9064793 L1057.95347,-93.0947697 L1209.74489,-168.98548 L1209.95472,-169.085402 L1245.02732,-239.000781 L1243.49852,-239.000781 L1208.99547,-169.984699 L1057.17408,-94.1139735 L1056.96425,-94.0140515 L981.023575,57.9871975 L829.192194,133.897892 L828.982358,133.997814 L753.041686,285.999063 L601.250273,361.939735 L601.040437,362.049649 L524.989852,513.990945 L373.208431,589.931616 L372.998595,590.031538 L296.99797,741.982826 L145.206557,817.923497 L145.006714,818.023419 L69.006089,969.974707 L0,1004.47775 L0,1006.02654 L69.8254489,971.12381 L70.0852459,970.993911 Z M32.1149102,477.009836 L108.115535,325.018579 L259.797034,249.117877 L259.996877,249.017955 L335.997502,97.0266979 L487.788915,21.0860265 L487.998751,20.9861046 L563.989383,-131.015144 L715.800781,-206.865886 L716.010617,-206.965808 L732.028103,-239.000781 L730.489305,-239.000781 L714.991413,-208.02498 L563.2,-132.084309 L562.990164,-131.984387 L487.049493,20.0168618 L335.25808,95.9575332 L335.048244,96.0674473 L258.997658,247.998751 L107.216237,323.939422 L107.006401,324.039344 L30.9758002,475.990632 L0,491.498517 L0,493.027322 L31.8251366,477.109758 L32.1149102,477.009836 Z M70.0852459,59.0263856 L146.08587,-92.9748634 L297.81733,-168.865574 L298.017174,-168.965496 L333.039813,-239.000781 L331.511007,-239.000781 L296.99797,-169.984699 L145.206557,-94.1139735 L145.006714,-94.0140515 L69.006089,58.0071819 L0,92.5102264 L0,94.039032 L69.8254489,59.1263076 L70.0852459,59.0263856 Z M108.055582,96.9967213 L184.056206,-55.0045277 L335.847619,-130.895238 L336.047463,-131.005152 L390.035285,-239.000781 L388.506479,-239.000781 L334.998283,-131.994379 L183.20687,-56.053708 L183.007026,-55.9537861 L107.006401,96.0074941 L0,149.505699 L0,151.034504 L107.825761,97.1266198 L108.055582,96.9967213 Z M127.040749,115.981889 L203.031382,-36.0093677 L354.822795,-111.950039 L355.032631,-112.049961 L418.533021,-239.000781 L417.004215,-239.000781 L354.003435,-112.989227 L202.20203,-37.0485558 L202.002186,-36.9386417 L126.061514,115.052615 L0,178.003435 L0,179.53224 L126.820921,116.12178 L127.040749,115.981889 Z M89.0704137,78.0115535 L165.061046,-73.9797034 L316.852459,-149.920375 L317.062295,-150.020297 L361.537549,-239.000781 L360.008743,-239.000781 L316.043091,-150.989539 L164.21171,-75.1288056 L164.001874,-75.0188915 L88.0612022,76.9723653 L0,121.007963 L0,122.536768 L88.8206089,78.1314598 L89.0704137,78.0115535 Z M146.025917,134.967057 L222.026542,-16.9742389 L373.817955,-92.8649493 L374.017799,-92.9748634 L447.030757,-239.000781 L445.501952,-239.000781 L372.998595,-93.9940671 L221.207182,-18.0533958 L221.007338,-17.9534738 L145.006714,133.997814 L0,206.501171 L0,208.029977 L145.816081,135.086963 L146.025917,134.967057 Z M96.0949258,-239.000781 L93.0373146,-239.000781 L31.2156128,-208.084934 L30.9758002,-208.02498 L0,-145.973458 L0,-142.905855 L32.0249805,-206.965808 L96.0949258,-239.000781 Z M210.095863,-239.000781 L207.028259,-239.000781 L69.2159251,-170.054645 L69.006089,-169.944731 L0,-31.9725215 L0,-28.9149102 L70.0252927,-168.965496 L210.095863,-239.000781 Z M153.140359,-239.000781 L150.082748,-239.000781 L50.2107728,-189.039813 L50.010929,-188.939891 L0,-88.9679938 L0,-85.9103825 L51.0301327,-187.970648 L153.140359,-239.000781 Z M164.871194,154.122092 L165.071038,154.02217 L241.071663,2.02092116 L392.863076,-73.9197502 L393.072912,-74.0196721 L469.013583,-226.010929 L495.083216,-239.000781 L492.025605,-239.000781 L468.194223,-227.090086 L467.994379,-226.990164 L392.003747,-74.9889149 L240.202342,0.95175644 L240.002498,1.06167057 L164.001874,153.002966 L12.2104606,228.893677 L12.0106167,229.003591 L0.0199843872,252.984856 L0.0199843872,256.052459 L13.0098361,229.992818 L164.871194,154.122092 Z M51.0301327,40.0212334 L127.030757,-111.970023 L278.782201,-187.860734 L278.982045,-187.970648 L304.542077,-239.000781 L303.003279,-239.000781 L278.022795,-188.989852 L126.211397,-113.099141 L126.011553,-112.999219 L50.010929,39.0020297 L0.049960968,63.9825137 L0.049960968,65.5113193 L50.8702576,40.101171 L51.0301327,40.0212334 Z M221.826698,211.117564 L222.036534,211.017642 L298.027166,59.0263856 L449.818579,-16.9142857 L450.028415,-17.0142077 L525.969087,-169.005464 L666.079625,-239.000781 L663.012022,-239.000781 L525.199688,-170.054645 L524.989852,-169.944731 L449.04918,-17.9534738 L297.257767,57.9871975 L297.047931,58.0871194 L221.007338,209.998439 L69.2159251,285.93911 L69.006089,286.039032 L0,424.011241 L0,427.078845 L70.0252927,287.018267 L221.826698,211.117564 Z M183.856362,173.147229 L184.066198,173.037315 L260.056831,21.0460578 L411.848244,-54.8946136 L412.05808,-54.9945355 L488.018735,-206.965808 L552.078689,-239.000781 L549.021077,-239.000781 L487.199375,-208.084934 L486.999532,-207.985012 L410.998907,-55.9937549 L259.207494,19.9469165 L258.997658,20.0468384 L183.056987,172.038095 L31.2655738,247.978767 L31.0557377,248.078689 L0,310.020297 L0,313.077908 L32.0249805,249.017955 L183.856362,173.147229 Z M202.84153,192.132397 L203.041374,192.032475 L279.041998,40.0312256 L430.833411,-35.9094457 L431.033255,-36.0093677 L507.013895,-187.970648 L609.084153,-239.000781 L606.01655,-239.000781 L506.194536,-189.039813 L505.994692,-188.939891 L429.994067,-36.9886027 L278.202654,38.9520687 L278.00281,39.0519906 L202.002186,191.003279 L50.2107728,266.94395 L50.010929,267.053864 L0,367.015769 L0,370.07338 L51.0301327,268.023107 L202.84153,192.132397 Z M32.0249805,21.0260734 L108.025605,-130.975176 L259.797034,-206.865886 L259.996877,-206.965808 L276.034348,-239.000781 L274.505543,-239.000781 L258.997658,-208.02498 L107.216237,-132.084309 L107.006401,-131.984387 L30.9758002,20.0068696 L0,35.5147541 L0,37.0435597 L31.8251366,21.1259953 L32.0249805,21.0260734 Z M89.030445,-149.970336 L240.811866,-225.861046 L241.01171,-225.97096 L247.52662,-238.960812 L246.007806,-238.960812 L240.01249,-226.97018 L88.2110851,-151.069477 L88.0112412,-150.969555 L11.9906323,1.0117096 L0,7.00702576 L0,8.54582358 L12.9898517,2.02092116 L89.030445,-149.970336 Z M145.985948,591.010773 L222.026542,439.009524 L373.817955,363.118813 L374.017799,363.018891 L450.018423,211.017642 L601.809836,135.126932 L602.00968,135.017018 L678.010304,-16.9742389 L829.801717,-92.8649493 L830.001561,-92.9748634 L903.01452,-239.000781 L901.485714,-239.000781 L828.982358,-93.9940671 L677.190945,-18.0533958 L676.991101,-17.9534738 L600.990476,133.997814 L449.199063,209.938486 L448.999219,210.038407 L372.998595,361.999688 L221.207182,437.890398 L221.007338,437.99032 L145.006714,589.991569 L0,662.494926 L0,664.023731 L145.816081,591.080718 L145.985948,591.010773 Z"></path>
                </g>
            </g>
        </g>
    </g>
</svg>