<svg width="805" height="46" xmlns="http://www.w3.org/2000/svg"><g fill="none" fill-rule="evenodd"><path d="M361 1h82.003a4 4 0 0 1 4 4v37.003A3.997 3.997 0 0 0 451 46h-98a4 4 0 0 0 4-4V5a4 4 0 0 1 4-4z" fill-opacity=".3" fill="#1E2549"/><path d="M0 1h361a3.935 3.935 0 0 0-3.935 3.935V42a4 4 0 0 1-4 4H0V1zm805 0H443a3.584 3.584 0 0 1 3.584 3.584V42a4 4 0 0 0 4 4H805V1z" fill-opacity=".5" fill="#1E2549"/><path d="M0 45.5h353.475a4 4 0 0 0 4-4v-37a4 4 0 0 1 4-4h80.994a4 4 0 0 1 4 4v37a4 4 0 0 0 4 4H805" stroke="#6673B4"/></g></svg>