<svg width="20" height="12" xmlns="http://www.w3.org/2000/svg"><defs><linearGradient x1="0%" y1="100%" y2="0%" id="a"><stop stop-color="#6673B4" offset="0%"/><stop stop-color="#9EAEFF" offset="100%"/></linearGradient></defs><path d="M9.477 14.76c.144.156.337.24.526.24a.703.703 0 0 0 .526-.24l4.75-5.145a.855.855 0 0 0 0-1.146.706.706 0 0 0-1.057 0l-3.472 3.766V-4.19c0-.45-.332-.81-.747-.81-.416 0-.748.36-.748.81v16.425L5.778 8.47a.706.706 0 0 0-1.058 0 .855.855 0 0 0 0 1.146l4.757 5.145z" transform="rotate(90 9.5 5.5)" fill="url(#a)" fill-rule="evenodd"/></svg>