<svg width="10" height="10" xmlns="http://www.w3.org/2000/svg"><defs><linearGradient x1="0%" y1="100%" y2="0%" id="a"><stop stop-color="#6673B4" offset="0%"/><stop stop-color="#9EAEFF" offset="100%"/></linearGradient></defs><path d="M9.817.183a.62.62 0 0 0-.879 0L5 4.12 1.062.183a.62.62 0 0 0-.88 0 .62.62 0 0 0 0 .879l3.94 3.937-3.94 3.938a.62.62 0 0 0 0 .879.608.608 0 0 0 .875 0l3.938-3.938 3.939 3.938c.12.12.28.184.437.184.16 0 .317-.06.437-.184a.62.62 0 0 0 0-.879L5.878 5l3.94-3.937a.62.62 0 0 0 0-.88z" fill="url(#a)" fill-rule="evenodd"/></svg>