<svg width="660" height="800" xmlns="http://www.w3.org/2000/svg" xmlns:xlink="http://www.w3.org/1999/xlink"><defs><path id="a" d="M0 0h660v800H0z"/></defs><g fill="none" fill-rule="evenodd"><mask id="b" fill="#fff"><use xlink:href="#a"/></mask><use fill="#1E2549" xlink:href="#a"/><g opacity=".1" mask="url(#b)" fill="#A8B6FC" fill-opacity=".2"><path d="M381.18 395.484a8.026 8.026 0 0 0 8.024 8.029 8.026 8.026 0 0 0 8.023-8.03 8.026 8.026 0 0 0-8.023-8.028 8.026 8.026 0 0 0-8.024 8.029zm22.285 0a8.026 8.026 0 0 0 8.024 8.029 8.026 8.026 0 0 0 8.024-8.03 8.026 8.026 0 0 0-8.024-8.028 8.026 8.026 0 0 0-8.024 8.029zm-11.142 19.339a8.026 8.026 0 0 0 8.023 8.029 8.026 8.026 0 0 0 8.024-8.03 8.026 8.026 0 0 0-8.024-8.028 8.026 8.026 0 0 0-8.023 8.029zm-22.286 0a8.026 8.026 0 0 0 8.024 8.029 8.026 8.026 0 0 0 8.023-8.03 8.026 8.026 0 0 0-8.023-8.028 8.026 8.026 0 0 0-8.024 8.029zm-11.143-19.339a8.026 8.026 0 0 0 8.024 8.029 8.026 8.026 0 0 0 8.024-8.03 8.026 8.026 0 0 0-8.024-8.028 8.026 8.026 0 0 0-8.024 8.029zm11.143-19.289a8.026 8.026 0 0 0 8.024 8.029 8.026 8.026 0 0 0 8.023-8.029 8.026 8.026 0 0 0-8.023-8.029 8.026 8.026 0 0 0-8.024 8.029zm22.286 0a8.026 8.026 0 0 0 8.023 8.029 8.026 8.026 0 0 0 8.024-8.029 8.026 8.026 0 0 0-8.024-8.029 8.026 8.026 0 0 0-8.023 8.029zm33.428 19.289a8.026 8.026 0 0 0 8.024 8.029 8.026 8.026 0 0 0 8.023-8.03 8.026 8.026 0 0 0-8.023-8.028 8.026 8.026 0 0 0-8.024 8.029zm-5.968 22.32a8.026 8.026 0 0 0 8.024 8.028 8.026 8.026 0 0 0 8.024-8.028 8.026 8.026 0 0 0-8.024-8.03 8.026 8.026 0 0 0-8.024 8.03zm-16.318 16.328a8.026 8.026 0 0 0 8.024 8.029 8.026 8.026 0 0 0 8.024-8.03 8.026 8.026 0 0 0-8.024-8.028 8.026 8.026 0 0 0-8.024 8.029zm-22.285 5.981a8.026 8.026 0 0 0 8.024 8.029 8.026 8.026 0 0 0 8.023-8.029 8.026 8.026 0 0 0-8.023-8.028 8.026 8.026 0 0 0-8.024 8.028zm-22.286-5.981a8.026 8.026 0 0 0 8.024 8.029 8.026 8.026 0 0 0 8.024-8.03 8.026 8.026 0 0 0-8.024-8.028 8.026 8.026 0 0 0-8.024 8.029zm-16.318-16.328a8.026 8.026 0 0 0 8.024 8.028 8.026 8.026 0 0 0 8.024-8.028 8.026 8.026 0 0 0-8.024-8.03 8.026 8.026 0 0 0-8.024 8.03zm-5.967-22.32a8.026 8.026 0 0 0 8.023 8.029 8.026 8.026 0 0 0 8.024-8.03 8.026 8.026 0 0 0-8.024-8.028 8.026 8.026 0 0 0-8.023 8.029zm5.967-22.28a8.026 8.026 0 0 0 8.024 8.029 8.026 8.026 0 0 0 8.024-8.029 8.026 8.026 0 0 0-8.024-8.028 8.026 8.026 0 0 0-8.024 8.028zm105.471 22.28a8.026 8.026 0 0 0 8.023 8.029 8.026 8.026 0 0 0 8.024-8.03 8.026 8.026 0 0 0-8.024-8.028 8.026 8.026 0 0 0-8.023 8.029zm-4.032 22.912a8.026 8.026 0 0 0 8.023 8.028 8.026 8.026 0 0 0 8.024-8.028 8.026 8.026 0 0 0-8.024-8.029 8.026 8.026 0 0 0-8.023 8.029zM432.4 438.508a8.026 8.026 0 0 0 8.024 8.028 8.026 8.026 0 0 0 8.024-8.028 8.026 8.026 0 0 0-8.024-8.03 8.026 8.026 0 0 0-8.023 8.03zm-17.792 14.942a8.026 8.026 0 0 0 8.024 8.03 8.026 8.026 0 0 0 8.023-8.03 8.026 8.026 0 0 0-8.023-8.028 8.026 8.026 0 0 0-8.024 8.029zm-21.824 7.95a8.026 8.026 0 0 0 8.024 8.028 8.026 8.026 0 0 0 8.023-8.029 8.026 8.026 0 0 0-8.023-8.028 8.026 8.026 0 0 0-8.024 8.028zm-23.218 0a8.026 8.026 0 0 0 8.023 8.028 8.026 8.026 0 0 0 8.024-8.029 8.026 8.026 0 0 0-8.024-8.028 8.026 8.026 0 0 0-8.023 8.028zm-21.814-7.95a8.026 8.026 0 0 0 8.023 8.03 8.026 8.026 0 0 0 8.024-8.03 8.026 8.026 0 0 0-8.024-8.028 8.026 8.026 0 0 0-8.023 8.029zm-17.792-14.942a8.026 8.026 0 0 0 8.023 8.028 8.026 8.026 0 0 0 8.023-8.028 8.026 8.026 0 0 0-8.023-8.03 8.026 8.026 0 0 0-8.024 8.03zm-11.615-20.122a8.026 8.026 0 0 0 8.024 8.028 8.026 8.026 0 0 0 8.023-8.028 8.026 8.026 0 0 0-8.023-8.029 8.026 8.026 0 0 0-8.024 8.029zm0-45.764a8.026 8.026 0 0 0 8.024 8.029 8.026 8.026 0 0 0 8.023-8.029 8.026 8.026 0 0 0-8.023-8.028 8.026 8.026 0 0 0-8.024 8.028zM329.96 352.5a8.026 8.026 0 0 0 8.023 8.029 8.026 8.026 0 0 0 8.023-8.029 8.026 8.026 0 0 0-8.023-8.028 8.026 8.026 0 0 0-8.024 8.028zm17.792-14.933a8.026 8.026 0 0 0 8.023 8.029 8.026 8.026 0 0 0 8.024-8.029 8.026 8.026 0 0 0-8.024-8.029 8.026 8.026 0 0 0-8.023 8.029zm21.814-7.948a8.026 8.026 0 0 0 8.023 8.028 8.026 8.026 0 0 0 8.024-8.028 8.026 8.026 0 0 0-8.024-8.029 8.026 8.026 0 0 0-8.023 8.029zm45.042 7.948a8.026 8.026 0 0 0 8.024 8.029 8.026 8.026 0 0 0 8.023-8.029 8.026 8.026 0 0 0-8.023-8.029 8.026 8.026 0 0 0-8.024 8.029zm55.724 57.917a8.026 8.026 0 0 0 8.024 8.029 8.026 8.026 0 0 0 8.023-8.03 8.026 8.026 0 0 0-8.023-8.028 8.026 8.026 0 0 0-8.024 8.029zm-3.039 23.082a8.026 8.026 0 0 0 8.024 8.029 8.026 8.026 0 0 0 8.023-8.029 8.026 8.026 0 0 0-8.023-8.028 8.026 8.026 0 0 0-8.024 8.028zm-8.886 21.547a8.026 8.026 0 0 0 8.024 8.029 8.026 8.026 0 0 0 8.023-8.029 8.026 8.026 0 0 0-8.023-8.028 8.026 8.026 0 0 0-8.024 8.028zm-14.192 18.467a8.026 8.026 0 0 0 8.024 8.028 8.026 8.026 0 0 0 8.024-8.029 8.026 8.026 0 0 0-8.024-8.028 8.026 8.026 0 0 0-8.024 8.028zm-18.464 14.18a8.026 8.026 0 0 0 8.024 8.029 8.026 8.026 0 0 0 8.023-8.03 8.026 8.026 0 0 0-8.023-8.028 8.026 8.026 0 0 0-8.024 8.029zm-21.503 8.912a8.026 8.026 0 0 0 8.023 8.028 8.026 8.026 0 0 0 8.024-8.028 8.026 8.026 0 0 0-8.024-8.029 8.026 8.026 0 0 0-8.023 8.029zm-23.068 3.041a8.026 8.026 0 0 0 8.024 8.028 8.026 8.026 0 0 0 8.023-8.028 8.026 8.026 0 0 0-8.023-8.03 8.026 8.026 0 0 0-8.024 8.03zm-23.068-3.041a8.026 8.026 0 0 0 8.024 8.028 8.026 8.026 0 0 0 8.023-8.028 8.026 8.026 0 0 0-8.023-8.029 8.026 8.026 0 0 0-8.024 8.029zm-21.503-8.912a8.026 8.026 0 0 0 8.023 8.029 8.026 8.026 0 0 0 8.024-8.03 8.026 8.026 0 0 0-8.024-8.028 8.026 8.026 0 0 0-8.023 8.029zm-18.474-14.18a8.026 8.026 0 0 0 8.023 8.028 8.026 8.026 0 0 0 8.024-8.029 8.026 8.026 0 0 0-8.024-8.028 8.026 8.026 0 0 0-8.023 8.028zm-14.182-18.467a8.026 8.026 0 0 0 8.023 8.029 8.026 8.026 0 0 0 8.024-8.029 8.026 8.026 0 0 0-8.024-8.028 8.026 8.026 0 0 0-8.023 8.028zm-8.886-21.547a8.026 8.026 0 0 0 8.023 8.029 8.026 8.026 0 0 0 8.024-8.029 8.026 8.026 0 0 0-8.024-8.028 8.026 8.026 0 0 0-8.023 8.028zm41.542-100.358a8.026 8.026 0 0 0 8.023 8.029 8.026 8.026 0 0 0 8.024-8.03 8.026 8.026 0 0 0-8.024-8.028 8.026 8.026 0 0 0-8.023 8.029zm21.503-8.872a8.026 8.026 0 0 0 8.024 8.029 8.026 8.026 0 0 0 8.023-8.029 8.026 8.026 0 0 0-8.023-8.028 8.026 8.026 0 0 0-8.024 8.028zm23.068-3.041a8.026 8.026 0 0 0 8.024 8.029 8.026 8.026 0 0 0 8.023-8.029 8.026 8.026 0 0 0-8.023-8.028 8.026 8.026 0 0 0-8.024 8.028zm23.068 3.041a8.026 8.026 0 0 0 8.023 8.029 8.026 8.026 0 0 0 8.024-8.029 8.026 8.026 0 0 0-8.024-8.028 8.026 8.026 0 0 0-8.023 8.028zm21.503 8.872a8.026 8.026 0 0 0 8.024 8.029 8.026 8.026 0 0 0 8.023-8.03 8.026 8.026 0 0 0-8.023-8.028 8.026 8.026 0 0 0-8.024 8.029zm18.464 14.221a8.026 8.026 0 0 0 8.024 8.028 8.026 8.026 0 0 0 8.024-8.028 8.026 8.026 0 0 0-8.024-8.029 8.026 8.026 0 0 0-8.024 8.029zm48.403 63.055a8.026 8.026 0 0 0 8.023 8.029 8.026 8.026 0 0 0 8.024-8.03 8.026 8.026 0 0 0-8.024-8.028 8.026 8.026 0 0 0-8.023 8.029zm-2.438 23.213a8.026 8.026 0 0 0 8.024 8.028 8.026 8.026 0 0 0 8.024-8.028 8.026 8.026 0 0 0-8.024-8.029 8.026 8.026 0 0 0-8.023 8.029zm-7.19 22.169a8.026 8.026 0 0 0 8.023 8.029 8.026 8.026 0 0 0 8.024-8.029 8.026 8.026 0 0 0-8.024-8.029 8.026 8.026 0 0 0-8.024 8.029zm-11.655 20.182a8.026 8.026 0 0 0 8.024 8.029 8.026 8.026 0 0 0 8.023-8.029 8.026 8.026 0 0 0-8.023-8.029 8.026 8.026 0 0 0-8.024 8.029zM455.75 478.37a8.026 8.026 0 0 0 8.023 8.029 8.026 8.026 0 0 0 8.023-8.03 8.026 8.026 0 0 0-8.023-8.028 8.026 8.026 0 0 0-8.024 8.029zm-18.846 13.709a8.026 8.026 0 0 0 8.023 8.029 8.026 8.026 0 0 0 8.024-8.03 8.026 8.026 0 0 0-8.024-8.028 8.026 8.026 0 0 0-8.023 8.029zm-21.293 9.474a8.026 8.026 0 0 0 8.024 8.028 8.026 8.026 0 0 0 8.023-8.028 8.026 8.026 0 0 0-8.023-8.029 8.026 8.026 0 0 0-8.024 8.029zm-22.787 4.857a8.026 8.026 0 0 0 8.024 8.029 8.026 8.026 0 0 0 8.023-8.029 8.026 8.026 0 0 0-8.023-8.029 8.026 8.026 0 0 0-8.024 8.029zm-23.298-.01a8.026 8.026 0 0 0 8.023 8.029 8.026 8.026 0 0 0 8.024-8.029 8.026 8.026 0 0 0-8.024-8.029 8.026 8.026 0 0 0-8.023 8.029zm-22.777-4.847a8.026 8.026 0 0 0 8.023 8.028 8.026 8.026 0 0 0 8.024-8.028 8.026 8.026 0 0 0-8.024-8.029 8.026 8.026 0 0 0-8.023 8.029zm-21.293-9.474a8.026 8.026 0 0 0 8.024 8.029 8.026 8.026 0 0 0 8.023-8.03 8.026 8.026 0 0 0-8.023-8.028 8.026 8.026 0 0 0-8.024 8.029zM306.61 478.37a8.026 8.026 0 0 0 8.024 8.029 8.026 8.026 0 0 0 8.024-8.03 8.026 8.026 0 0 0-8.024-8.028 8.026 8.026 0 0 0-8.023 8.029zm-15.585-17.322a8.026 8.026 0 0 0 8.023 8.029 8.026 8.026 0 0 0 8.024-8.029 8.026 8.026 0 0 0-8.024-8.029 8.026 8.026 0 0 0-8.023 8.029zm-11.645-20.192a8.026 8.026 0 0 0 8.024 8.029 8.026 8.026 0 0 0 8.024-8.03 8.026 8.026 0 0 0-8.024-8.028 8.026 8.026 0 0 0-8.023 8.029zm-7.2-22.169a8.026 8.026 0 0 0 8.023 8.028 8.026 8.026 0 0 0 8.024-8.028 8.026 8.026 0 0 0-8.024-8.029 8.026 8.026 0 0 0-8.024 8.029zm74.559-129.232a8.026 8.026 0 0 0 8.023 8.029 8.026 8.026 0 0 0 8.024-8.029 8.026 8.026 0 0 0-8.024-8.028 8.026 8.026 0 0 0-8.023 8.028zm22.787-4.847a8.026 8.026 0 0 0 8.023 8.029 8.026 8.026 0 0 0 8.024-8.03 8.026 8.026 0 0 0-8.024-8.028 8.026 8.026 0 0 0-8.023 8.029zm23.308 0a8.026 8.026 0 0 0 8.024 8.029 8.026 8.026 0 0 0 8.023-8.03 8.026 8.026 0 0 0-8.023-8.028 8.026 8.026 0 0 0-8.024 8.029zm22.787 4.847a8.026 8.026 0 0 0 8.024 8.029 8.026 8.026 0 0 0 8.023-8.029 8.026 8.026 0 0 0-8.023-8.028 8.026 8.026 0 0 0-8.024 8.028zm21.273 9.485a8.026 8.026 0 0 0 8.023 8.028 8.026 8.026 0 0 0 8.024-8.029 8.026 8.026 0 0 0-8.024-8.029 8.026 8.026 0 0 0-8.023 8.03zm18.856 13.698a8.026 8.026 0 0 0 8.023 8.029 8.026 8.026 0 0 0 8.023-8.029 8.026 8.026 0 0 0-8.023-8.029 8.026 8.026 0 0 0-8.024 8.029zm15.585 17.322a8.026 8.026 0 0 0 8.024 8.029 8.026 8.026 0 0 0 8.023-8.03 8.026 8.026 0 0 0-8.023-8.028 8.026 8.026 0 0 0-8.024 8.029zm18.845 42.361a8.026 8.026 0 0 0 8.024 8.029 8.026 8.026 0 0 0 8.024-8.029 8.026 8.026 0 0 0-8.024-8.029 8.026 8.026 0 0 0-8.023 8.03zm24.723 23.163a8.026 8.026 0 0 0 8.024 8.029 8.026 8.026 0 0 0 8.023-8.03 8.026 8.026 0 0 0-8.023-8.028 8.026 8.026 0 0 0-8.024 8.029zm-17.913 66.929a8.026 8.026 0 0 0 8.024 8.029 8.026 8.026 0 0 0 8.024-8.03 8.026 8.026 0 0 0-8.024-8.028 8.026 8.026 0 0 0-8.023 8.029zm-13.369 19.108a8.026 8.026 0 0 0 8.024 8.029 8.026 8.026 0 0 0 8.023-8.029 8.026 8.026 0 0 0-8.023-8.029 8.026 8.026 0 0 0-8.024 8.03zm-16.488 16.489a8.026 8.026 0 0 0 8.023 8.029 8.026 8.026 0 0 0 8.024-8.029 8.026 8.026 0 0 0-8.024-8.029 8.026 8.026 0 0 0-8.023 8.029zm-19.086 13.378a8.026 8.026 0 0 0 8.023 8.028 8.026 8.026 0 0 0 8.024-8.028 8.026 8.026 0 0 0-8.024-8.029 8.026 8.026 0 0 0-8.023 8.029zm-21.133 9.865a8.026 8.026 0 0 0 8.024 8.029 8.026 8.026 0 0 0 8.024-8.029 8.026 8.026 0 0 0-8.024-8.029 8.026 8.026 0 0 0-8.024 8.029zm-91.469 0a8.026 8.026 0 0 0 8.024 8.029 8.026 8.026 0 0 0 8.024-8.029 8.026 8.026 0 0 0-8.024-8.029 8.026 8.026 0 0 0-8.024 8.029zm-40.218-23.243a8.026 8.026 0 0 0 8.024 8.029 8.026 8.026 0 0 0 8.023-8.029 8.026 8.026 0 0 0-8.023-8.029 8.026 8.026 0 0 0-8.024 8.029zm-16.488-16.489a8.026 8.026 0 0 0 8.023 8.029 8.026 8.026 0 0 0 8.024-8.029 8.026 8.026 0 0 0-8.024-8.029 8.026 8.026 0 0 0-8.023 8.03zm-13.369-19.108a8.026 8.026 0 0 0 8.023 8.029 8.026 8.026 0 0 0 8.024-8.03 8.026 8.026 0 0 0-8.024-8.028 8.026 8.026 0 0 0-8.024 8.029zm-9.85-21.146a8.026 8.026 0 0 0 8.024 8.03 8.026 8.026 0 0 0 8.024-8.03 8.026 8.026 0 0 0-8.024-8.028 8.026 8.026 0 0 0-8.024 8.028zm-6.037-22.53a8.026 8.026 0 0 0 8.023 8.029 8.026 8.026 0 0 0 8.024-8.03 8.026 8.026 0 0 0-8.024-8.028 8.026 8.026 0 0 0-8.023 8.029zM381.18 261.696a8.026 8.026 0 0 0 8.024 8.029 8.026 8.026 0 0 0 8.023-8.029 8.026 8.026 0 0 0-8.023-8.029 8.026 8.026 0 0 0-8.024 8.03zm23.218 2.037a8.026 8.026 0 0 0 8.024 8.029 8.026 8.026 0 0 0 8.023-8.029 8.026 8.026 0 0 0-8.023-8.028 8.026 8.026 0 0 0-8.024 8.028zm79.223 45.764a8.026 8.026 0 0 0 8.024 8.028 8.026 8.026 0 0 0 8.023-8.028 8.026 8.026 0 0 0-8.023-8.029 8.026 8.026 0 0 0-8.024 8.029zm13.369 19.098a8.026 8.026 0 0 0 8.024 8.029 8.026 8.026 0 0 0 8.024-8.029 8.026 8.026 0 0 0-8.024-8.029 8.026 8.026 0 0 0-8.023 8.029zm9.85 21.145a8.026 8.026 0 0 0 8.023 8.03 8.026 8.026 0 0 0 8.024-8.03 8.026 8.026 0 0 0-8.024-8.028 8.026 8.026 0 0 0-8.023 8.029zm6.037 22.531a8.026 8.026 0 0 0 8.024 8.029 8.026 8.026 0 0 0 8.023-8.029 8.026 8.026 0 0 0-8.023-8.029 8.026 8.026 0 0 0-8.024 8.029zm8.866 90.975a8.026 8.026 0 0 0 8.024 8.029 8.026 8.026 0 0 0 8.024-8.03 8.026 8.026 0 0 0-8.024-8.028 8.026 8.026 0 0 0-8.024 8.029zm-11.653 20.202a8.026 8.026 0 0 0 8.023 8.029 8.026 8.026 0 0 0 8.023-8.029 8.026 8.026 0 0 0-8.023-8.029 8.026 8.026 0 0 0-8.024 8.029zm-31.624 34.112a8.026 8.026 0 0 0 8.024 8.029 8.026 8.026 0 0 0 8.023-8.03 8.026 8.026 0 0 0-8.023-8.028 8.026 8.026 0 0 0-8.024 8.029zM303.17 530.707a8.026 8.026 0 0 0 8.024 8.028 8.026 8.026 0 0 0 8.024-8.028 8.026 8.026 0 0 0-8.024-8.029 8.026 8.026 0 0 0-8.023 8.029zm-19.276-13.147a8.026 8.026 0 0 0 8.023 8.029 8.026 8.026 0 0 0 8.024-8.03 8.026 8.026 0 0 0-8.024-8.028 8.026 8.026 0 0 0-8.023 8.029zm-17.05-15.867a8.026 8.026 0 0 0 8.023 8.029 8.026 8.026 0 0 0 8.024-8.029 8.026 8.026 0 0 0-8.024-8.028 8.026 8.026 0 0 0-8.023 8.028zm-14.574-18.245a8.026 8.026 0 0 0 8.024 8.029 8.026 8.026 0 0 0 8.024-8.029 8.026 8.026 0 0 0-8.024-8.029 8.026 8.026 0 0 0-8.023 8.029zm-11.653-20.202a8.026 8.026 0 0 0 8.023 8.029 8.026 8.026 0 0 0 8.024-8.03 8.026 8.026 0 0 0-8.024-8.028 8.026 8.026 0 0 0-8.023 8.029zm-8.516-21.728a8.026 8.026 0 0 0 8.024 8.029 8.026 8.026 0 0 0 8.024-8.029 8.026 8.026 0 0 0-8.024-8.028 8.026 8.026 0 0 0-8.024 8.028zm-5.195-22.741a8.026 8.026 0 0 0 8.024 8.029 8.026 8.026 0 0 0 8.023-8.029 8.026 8.026 0 0 0-8.023-8.029 8.026 8.026 0 0 0-8.024 8.03zm165.928-178.949a8.026 8.026 0 0 0 8.024 8.029 8.026 8.026 0 0 0 8.023-8.029 8.026 8.026 0 0 0-8.023-8.029 8.026 8.026 0 0 0-8.024 8.029zm23.058 3.482a8.026 8.026 0 0 0 8.024 8.03 8.026 8.026 0 0 0 8.023-8.03 8.026 8.026 0 0 0-8.023-8.028 8.026 8.026 0 0 0-8.024 8.028zm94.198 64.25a8.026 8.026 0 0 0 8.023 8.029 8.026 8.026 0 0 0 8.023-8.03 8.026 8.026 0 0 0-8.023-8.028 8.026 8.026 0 0 0-8.024 8.029zm11.653 20.212a8.026 8.026 0 0 0 8.024 8.029 8.026 8.026 0 0 0 8.024-8.029 8.026 8.026 0 0 0-8.024-8.029 8.026 8.026 0 0 0-8.024 8.029zm8.515 21.718a8.026 8.026 0 0 0 8.024 8.028 8.026 8.026 0 0 0 8.024-8.028 8.026 8.026 0 0 0-8.024-8.03 8.026 8.026 0 0 0-8.024 8.03zm29.226 45.994a8.026 8.026 0 0 0 8.024 8.029 8.026 8.026 0 0 0 8.024-8.03 8.026 8.026 0 0 0-8.024-8.028 8.026 8.026 0 0 0-8.024 8.029zM292.028 550.036a8.026 8.026 0 0 0 8.023 8.029 8.026 8.026 0 0 0 8.024-8.03 8.026 8.026 0 0 0-8.024-8.028 8.026 8.026 0 0 0-8.023 8.029zM272.64 537.05a8.026 8.026 0 0 0 8.024 8.028 8.026 8.026 0 0 0 8.024-8.029 8.026 8.026 0 0 0-8.024-8.028 8.026 8.026 0 0 0-8.023 8.028zm-17.54-15.385a8.026 8.026 0 0 0 8.023 8.028 8.026 8.026 0 0 0 8.023-8.028 8.026 8.026 0 0 0-8.023-8.03 8.026 8.026 0 0 0-8.024 8.03zm-28.374-36.952a8.026 8.026 0 0 0 8.023 8.028 8.026 8.026 0 0 0 8.024-8.028 8.026 8.026 0 0 0-8.024-8.03 8.026 8.026 0 0 0-8.023 8.03zm-10.281-20.935a8.026 8.026 0 0 0 8.024 8.028 8.026 8.026 0 0 0 8.024-8.028 8.026 8.026 0 0 0-8.024-8.029 8.026 8.026 0 0 0-8.024 8.029zm-7.492-22.129a8.026 8.026 0 0 0 8.024 8.028 8.026 8.026 0 0 0 8.024-8.028 8.026 8.026 0 0 0-8.024-8.029 8.026 8.026 0 0 0-8.024 8.029zm-4.553-22.852a8.026 8.026 0 0 0 8.024 8.029 8.026 8.026 0 0 0 8.023-8.029 8.026 8.026 0 0 0-8.023-8.029 8.026 8.026 0 0 0-8.024 8.03zm22.326-112.502a8.026 8.026 0 0 0 8.023 8.029 8.026 8.026 0 0 0 8.024-8.029 8.026 8.026 0 0 0-8.024-8.028 8.026 8.026 0 0 0-8.023 8.028zm13.038-19.399a8.026 8.026 0 0 0 8.024 8.029 8.026 8.026 0 0 0 8.023-8.029 8.026 8.026 0 0 0-8.023-8.029 8.026 8.026 0 0 0-8.024 8.03zm73.216-56.221a8.026 8.026 0 0 0 8.023 8.029 8.026 8.026 0 0 0 8.024-8.029 8.026 8.026 0 0 0-8.024-8.028 8.026 8.026 0 0 0-8.024 8.028zm68.2-13.588a8.026 8.026 0 0 0 8.024 8.028 8.026 8.026 0 0 0 8.023-8.028 8.026 8.026 0 0 0-8.023-8.029 8.026 8.026 0 0 0-8.024 8.029zm23.268 1.535a8.026 8.026 0 0 0 8.024 8.029 8.026 8.026 0 0 0 8.024-8.029 8.026 8.026 0 0 0-8.024-8.028 8.026 8.026 0 0 0-8.024 8.028zm131.186 87.683a8.026 8.026 0 0 0 8.024 8.029 8.026 8.026 0 0 0 8.023-8.029 8.026 8.026 0 0 0-8.023-8.028 8.026 8.026 0 0 0-8.024 8.028zm10.28 20.935a8.026 8.026 0 0 0 8.024 8.029 8.026 8.026 0 0 0 8.024-8.029 8.026 8.026 0 0 0-8.024-8.029 8.026 8.026 0 0 0-8.024 8.03zm7.492 22.079a8.026 8.026 0 0 0 8.024 8.029 8.026 8.026 0 0 0 8.024-8.029 8.026 8.026 0 0 0-8.024-8.029 8.026 8.026 0 0 0-8.024 8.029zm4.554 22.901a8.026 8.026 0 0 0 8.023 8.03 8.026 8.026 0 0 0 8.024-8.03 8.026 8.026 0 0 0-8.024-8.028 8.026 8.026 0 0 0-8.023 8.029zm23.81 23.264a8.026 8.026 0 0 0 8.024 8.029 8.026 8.026 0 0 0 8.023-8.03 8.026 8.026 0 0 0-8.023-8.028 8.026 8.026 0 0 0-8.024 8.029zm-1.354 23.323a8.026 8.026 0 0 0 8.024 8.029 8.026 8.026 0 0 0 8.023-8.029 8.026 8.026 0 0 0-8.023-8.029 8.026 8.026 0 0 0-8.024 8.03zM261.398 556.509a8.026 8.026 0 0 0 8.023 8.029 8.026 8.026 0 0 0 8.024-8.029 8.026 8.026 0 0 0-8.024-8.029 8.026 8.026 0 0 0-8.023 8.029zm-17.873-15.014a8.026 8.026 0 0 0 8.024 8.029 8.026 8.026 0 0 0 8.023-8.029 8.026 8.026 0 0 0-8.023-8.028 8.026 8.026 0 0 0-8.024 8.028zm-29.938-35.687a8.026 8.026 0 0 0 8.024 8.029 8.026 8.026 0 0 0 8.023-8.03 8.026 8.026 0 0 0-8.023-8.028 8.026 8.026 0 0 0-8.024 8.029zm-11.664-20.222a8.026 8.026 0 0 0 8.023 8.028 8.026 8.026 0 0 0 8.024-8.028 8.026 8.026 0 0 0-8.024-8.029 8.026 8.026 0 0 0-8.023 8.029zm-9.237-21.426a8.026 8.026 0 0 0 8.023 8.028 8.026 8.026 0 0 0 8.024-8.029 8.026 8.026 0 0 0-8.024-8.029 8.026 8.026 0 0 0-8.023 8.03zm-6.69-22.36a8.026 8.026 0 0 0 8.023 8.028 8.026 8.026 0 0 0 8.024-8.029 8.026 8.026 0 0 0-8.024-8.028 8.026 8.026 0 0 0-8.023 8.028zm-4.052-22.993a8.026 8.026 0 0 0 8.024 8.029 8.026 8.026 0 0 0 8.023-8.029 8.026 8.026 0 0 0-8.023-8.029 8.026 8.026 0 0 0-8.024 8.03zm19.979-113.385a8.026 8.026 0 0 0 8.023 8.029 8.026 8.026 0 0 0 8.024-8.029 8.026 8.026 0 0 0-8.024-8.028 8.026 8.026 0 0 0-8.023 8.028zm11.664-20.212a8.026 8.026 0 0 0 8.024 8.029 8.026 8.026 0 0 0 8.023-8.029 8.026 8.026 0 0 0-8.023-8.029 8.026 8.026 0 0 0-8.024 8.029zm13.931-18.717a8.026 8.026 0 0 0 8.024 8.029 8.026 8.026 0 0 0 8.023-8.029 8.026 8.026 0 0 0-8.023-8.028 8.026 8.026 0 0 0-8.024 8.028zm16.007-16.98a8.026 8.026 0 0 0 8.024 8.028 8.026 8.026 0 0 0 8.023-8.028 8.026 8.026 0 0 0-8.023-8.03 8.026 8.026 0 0 0-8.024 8.03zm17.873-15.004a8.026 8.026 0 0 0 8.023 8.029 8.026 8.026 0 0 0 8.024-8.029 8.026 8.026 0 0 0-8.024-8.029 8.026 8.026 0 0 0-8.023 8.029zm19.487-12.826a8.026 8.026 0 0 0 8.024 8.029 8.026 8.026 0 0 0 8.023-8.029 8.026 8.026 0 0 0-8.023-8.029 8.026 8.026 0 0 0-8.024 8.03zm20.841-10.477a8.026 8.026 0 0 0 8.024 8.028 8.026 8.026 0 0 0 8.023-8.028 8.026 8.026 0 0 0-8.023-8.029 8.026 8.026 0 0 0-8.024 8.029zm21.924-7.989a8.026 8.026 0 0 0 8.024 8.029 8.026 8.026 0 0 0 8.024-8.029 8.026 8.026 0 0 0-8.024-8.028 8.026 8.026 0 0 0-8.023 8.028zm69.194-8.089a8.026 8.026 0 0 0 8.024 8.029 8.026 8.026 0 0 0 8.023-8.029 8.026 8.026 0 0 0-8.023-8.028 8.026 8.026 0 0 0-8.024 8.028zm23.168 2.71a8.026 8.026 0 0 0 8.024 8.029 8.026 8.026 0 0 0 8.024-8.029 8.026 8.026 0 0 0-8.024-8.029 8.026 8.026 0 0 0-8.024 8.029zm144.425 107.584a8.026 8.026 0 0 0 8.024 8.029 8.026 8.026 0 0 0 8.023-8.029 8.026 8.026 0 0 0-8.023-8.028 8.026 8.026 0 0 0-8.024 8.028zm9.237 21.437a8.026 8.026 0 0 0 8.024 8.028 8.026 8.026 0 0 0 8.024-8.028 8.026 8.026 0 0 0-8.024-8.029 8.026 8.026 0 0 0-8.024 8.029zm10.742 45.341a8.026 8.026 0 0 0 8.024 8.03 8.026 8.026 0 0 0 8.023-8.03 8.026 8.026 0 0 0-8.023-8.028 8.026 8.026 0 0 0-8.024 8.029zm23.639 23.284a8.026 8.026 0 0 0 8.024 8.029 8.026 8.026 0 0 0 8.024-8.03 8.026 8.026 0 0 0-8.024-8.028 8.026 8.026 0 0 0-8.024 8.029zm-1.223 23.333a8.026 8.026 0 0 0 8.023 8.029 8.026 8.026 0 0 0 8.024-8.029 8.026 8.026 0 0 0-8.024-8.028 8.026 8.026 0 0 0-8.023 8.028zM561.49 526.592a8.026 8.026 0 0 0 8.024 8.029 8.026 8.026 0 0 0 8.023-8.029 8.026 8.026 0 0 0-8.023-8.029 8.026 8.026 0 0 0-8.024 8.03zm-14.683 18.145a8.026 8.026 0 0 0 8.024 8.029 8.026 8.026 0 0 0 8.023-8.03 8.026 8.026 0 0 0-8.023-8.028 8.026 8.026 0 0 0-8.024 8.029zm-34.622 31.191a8.026 8.026 0 0 0 8.024 8.029 8.026 8.026 0 0 0 8.023-8.029 8.026 8.026 0 0 0-8.023-8.028 8.026 8.026 0 0 0-8.024 8.028zm-19.567 12.716a8.026 8.026 0 0 0 8.023 8.028 8.026 8.026 0 0 0 8.024-8.028 8.026 8.026 0 0 0-8.024-8.029 8.026 8.026 0 0 0-8.023 8.029zm-20.781 10.567a8.026 8.026 0 0 0 8.023 8.03 8.026 8.026 0 0 0 8.024-8.03 8.026 8.026 0 0 0-8.024-8.028 8.026 8.026 0 0 0-8.023 8.028zm-21.784 8.4a8.026 8.026 0 0 0 8.023 8.03 8.026 8.026 0 0 0 8.024-8.03 8.026 8.026 0 0 0-8.024-8.028 8.026 8.026 0 0 0-8.023 8.028zm-22.537 6.042a8.026 8.026 0 0 0 8.024 8.029 8.026 8.026 0 0 0 8.023-8.029 8.026 8.026 0 0 0-8.023-8.029 8.026 8.026 0 0 0-8.024 8.029zm-23.038 3.623a8.026 8.026 0 0 0 8.024 8.029 8.026 8.026 0 0 0 8.024-8.029 8.026 8.026 0 0 0-8.024-8.029 8.026 8.026 0 0 0-8.024 8.029zm-23.298 1.244a8.026 8.026 0 0 0 8.024 8.03 8.026 8.026 0 0 0 8.023-8.03 8.026 8.026 0 0 0-8.023-8.028 8.026 8.026 0 0 0-8.024 8.028zm-149.139-57.274a8.026 8.026 0 0 0 8.024 8.029 8.026 8.026 0 0 0 8.023-8.03 8.026 8.026 0 0 0-8.023-8.028 8.026 8.026 0 0 0-8.024 8.029zm-16.488-16.509a8.026 8.026 0 0 0 8.023 8.029 8.026 8.026 0 0 0 8.024-8.03 8.026 8.026 0 0 0-8.024-8.028 8.026 8.026 0 0 0-8.023 8.029zm-14.683-18.145a8.026 8.026 0 0 0 8.023 8.029 8.026 8.026 0 0 0 8.024-8.029 8.026 8.026 0 0 0-8.024-8.029 8.026 8.026 0 0 0-8.023 8.03zm-12.708-19.58a8.026 8.026 0 0 0 8.024 8.029 8.026 8.026 0 0 0 8.023-8.029 8.026 8.026 0 0 0-8.023-8.028 8.026 8.026 0 0 0-8.024 8.028zm-10.581-20.794a8.026 8.026 0 0 0 8.024 8.029 8.026 8.026 0 0 0 8.023-8.03 8.026 8.026 0 0 0-8.023-8.028 8.026 8.026 0 0 0-8.024 8.029zm-8.364-21.798a8.026 8.026 0 0 0 8.023 8.029 8.026 8.026 0 0 0 8.024-8.029 8.026 8.026 0 0 0-8.024-8.029 8.026 8.026 0 0 0-8.023 8.03zm-6.048-22.54a8.026 8.026 0 0 0 8.023 8.028 8.026 8.026 0 0 0 8.024-8.028 8.026 8.026 0 0 0-8.024-8.03 8.026 8.026 0 0 0-8.023 8.03zm-3.641-23.063a8.026 8.026 0 0 0 8.024 8.029 8.026 8.026 0 0 0 8.023-8.029 8.026 8.026 0 0 0-8.023-8.028 8.026 8.026 0 0 0-8.024 8.028zm-1.224-23.333a8.026 8.026 0 0 0 8.024 8.029 8.026 8.026 0 0 0 8.024-8.03 8.026 8.026 0 0 0-8.024-8.028 8.026 8.026 0 0 0-8.024 8.029zm19.277-90.684a8.026 8.026 0 0 0 8.024 8.029 8.026 8.026 0 0 0 8.023-8.029 8.026 8.026 0 0 0-8.023-8.029 8.026 8.026 0 0 0-8.024 8.029zm10.581-20.804a8.026 8.026 0 0 0 8.024 8.028 8.026 8.026 0 0 0 8.023-8.028 8.026 8.026 0 0 0-8.023-8.029 8.026 8.026 0 0 0-8.024 8.029zm12.708-19.58a8.026 8.026 0 0 0 8.023 8.028 8.026 8.026 0 0 0 8.024-8.028 8.026 8.026 0 0 0-8.024-8.029 8.026 8.026 0 0 0-8.023 8.029zm14.683-18.135a8.026 8.026 0 0 0 8.023 8.029 8.026 8.026 0 0 0 8.024-8.029 8.026 8.026 0 0 0-8.024-8.029 8.026 8.026 0 0 0-8.023 8.029zm16.488-16.509a8.026 8.026 0 0 0 8.024 8.029 8.026 8.026 0 0 0 8.023-8.029 8.026 8.026 0 0 0-8.023-8.029 8.026 8.026 0 0 0-8.024 8.029zm18.134-14.692a8.026 8.026 0 0 0 8.023 8.028 8.026 8.026 0 0 0 8.024-8.028 8.026 8.026 0 0 0-8.024-8.03 8.026 8.026 0 0 0-8.023 8.03zm19.567-12.716a8.026 8.026 0 0 0 8.024 8.029 8.026 8.026 0 0 0 8.023-8.029 8.026 8.026 0 0 0-8.023-8.029 8.026 8.026 0 0 0-8.024 8.03zm20.781-10.608a8.026 8.026 0 0 0 8.024 8.029 8.026 8.026 0 0 0 8.024-8.029 8.026 8.026 0 0 0-8.024-8.028 8.026 8.026 0 0 0-8.024 8.028zm302.62 134.832a8.026 8.026 0 0 0 8.024 8.028 8.026 8.026 0 0 0 8.024-8.028 8.026 8.026 0 0 0-8.024-8.029 8.026 8.026 0 0 0-8.024 8.029zm9.689 45.602a8.026 8.026 0 0 0 8.023 8.03 8.026 8.026 0 0 0 8.024-8.03 8.026 8.026 0 0 0-8.024-8.028 8.026 8.026 0 0 0-8.023 8.029zm5.948 114.49a8.026 8.026 0 0 0 8.023 8.028 8.026 8.026 0 0 0 8.024-8.028 8.026 8.026 0 0 0-8.024-8.03 8.026 8.026 0 0 0-8.024 8.03zm-9.69 21.205a8.026 8.026 0 0 0 8.024 8.029 8.026 8.026 0 0 0 8.024-8.029 8.026 8.026 0 0 0-8.024-8.028 8.026 8.026 0 0 0-8.023 8.028zm-11.663 20.253a8.026 8.026 0 0 0 8.023 8.028 8.026 8.026 0 0 0 8.024-8.028 8.026 8.026 0 0 0-8.024-8.029 8.026 8.026 0 0 0-8.023 8.029zm-13.54 19.018a8.026 8.026 0 0 0 8.023 8.028 8.026 8.026 0 0 0 8.024-8.028 8.026 8.026 0 0 0-8.024-8.03 8.026 8.026 0 0 0-8.023 8.03zm-15.275 17.643a8.026 8.026 0 0 0 8.023 8.028 8.026 8.026 0 0 0 8.024-8.028 8.026 8.026 0 0 0-8.024-8.03 8.026 8.026 0 0 0-8.023 8.03zm-16.89 16.107a8.026 8.026 0 0 0 8.024 8.029 8.026 8.026 0 0 0 8.023-8.029 8.026 8.026 0 0 0-8.023-8.029 8.026 8.026 0 0 0-8.024 8.03zm-18.334 14.432a8.026 8.026 0 0 0 8.024 8.028 8.026 8.026 0 0 0 8.023-8.028 8.026 8.026 0 0 0-8.023-8.029 8.026 8.026 0 0 0-8.024 8.029zm-19.628 12.625a8.026 8.026 0 0 0 8.024 8.028 8.026 8.026 0 0 0 8.024-8.028 8.026 8.026 0 0 0-8.024-8.029 8.026 8.026 0 0 0-8.024 8.029zm-20.73 10.697a8.026 8.026 0 0 0 8.023 8.03 8.026 8.026 0 0 0 8.024-8.03 8.026 8.026 0 0 0-8.024-8.028 8.026 8.026 0 0 0-8.024 8.029zm-21.614 8.652a8.026 8.026 0 0 0 8.024 8.029 8.026 8.026 0 0 0 8.023-8.03 8.026 8.026 0 0 0-8.023-8.028 8.026 8.026 0 0 0-8.024 8.029zm-22.436 6.603a8.026 8.026 0 0 0 8.024 8.03 8.026 8.026 0 0 0 8.023-8.03 8.026 8.026 0 0 0-8.023-8.028 8.026 8.026 0 0 0-8.024 8.028zm-22.907 4.436a8.026 8.026 0 0 0 8.023 8.029 8.026 8.026 0 0 0 8.024-8.029 8.026 8.026 0 0 0-8.024-8.028 8.026 8.026 0 0 0-8.023 8.028zm-23.229 2.199a8.026 8.026 0 0 0 8.024 8.028 8.026 8.026 0 0 0 8.023-8.029 8.026 8.026 0 0 0-8.023-8.029 8.026 8.026 0 0 0-8.024 8.03zm-23.328 0a8.026 8.026 0 0 0 8.023 8.028 8.026 8.026 0 0 0 8.024-8.029 8.026 8.026 0 0 0-8.024-8.029 8.026 8.026 0 0 0-8.023 8.03zm-23.229-2.199a8.026 8.026 0 0 0 8.024 8.029 8.026 8.026 0 0 0 8.024-8.029 8.026 8.026 0 0 0-8.024-8.028 8.026 8.026 0 0 0-8.024 8.028zm-22.907-4.436a8.026 8.026 0 0 0 8.024 8.03 8.026 8.026 0 0 0 8.023-8.03 8.026 8.026 0 0 0-8.023-8.028 8.026 8.026 0 0 0-8.024 8.028zm-22.386-6.603a8.026 8.026 0 0 0 8.024 8.029 8.026 8.026 0 0 0 8.023-8.03 8.026 8.026 0 0 0-8.023-8.028 8.026 8.026 0 0 0-8.024 8.029zm-21.664-8.652a8.026 8.026 0 0 0 8.024 8.03 8.026 8.026 0 0 0 8.024-8.03 8.026 8.026 0 0 0-8.024-8.028 8.026 8.026 0 0 0-8.024 8.029zm-40.358-23.322a8.026 8.026 0 0 0 8.023 8.028 8.026 8.026 0 0 0 8.024-8.028 8.026 8.026 0 0 0-8.024-8.029 8.026 8.026 0 0 0-8.023 8.029zm-18.344-14.432a8.026 8.026 0 0 0 8.023 8.029 8.026 8.026 0 0 0 8.024-8.029 8.026 8.026 0 0 0-8.024-8.029 8.026 8.026 0 0 0-8.023 8.03zm-16.89-16.107a8.026 8.026 0 0 0 8.024 8.028 8.026 8.026 0 0 0 8.023-8.028 8.026 8.026 0 0 0-8.023-8.03 8.026 8.026 0 0 0-8.024 8.03zm-15.265-17.643a8.026 8.026 0 0 0 8.024 8.028 8.026 8.026 0 0 0 8.023-8.028 8.026 8.026 0 0 0-8.023-8.03 8.026 8.026 0 0 0-8.024 8.03zm-13.54-19.018a8.026 8.026 0 0 0 8.024 8.028 8.026 8.026 0 0 0 8.024-8.028 8.026 8.026 0 0 0-8.024-8.029 8.026 8.026 0 0 0-8.024 8.029zm-11.664-20.253a8.026 8.026 0 0 0 8.024 8.029 8.026 8.026 0 0 0 8.023-8.029 8.026 8.026 0 0 0-8.023-8.028 8.026 8.026 0 0 0-8.024 8.028zm-9.699-21.205a8.026 8.026 0 0 0 8.024 8.028 8.026 8.026 0 0 0 8.024-8.028 8.026 8.026 0 0 0-8.024-8.03 8.026 8.026 0 0 0-8.023 8.03zm-7.622-22.06a8.026 8.026 0 0 0 8.024 8.03 8.026 8.026 0 0 0 8.023-8.03 8.026 8.026 0 0 0-8.023-8.028 8.026 8.026 0 0 0-8.024 8.029zm-5.476-22.69a8.026 8.026 0 0 0 8.024 8.028 8.026 8.026 0 0 0 8.023-8.028 8.026 8.026 0 0 0-8.023-8.029 8.026 8.026 0 0 0-8.024 8.029zm-3.35-23.103a8.026 8.026 0 0 0 8.024 8.029 8.026 8.026 0 0 0 8.023-8.029 8.026 8.026 0 0 0-8.023-8.028 8.026 8.026 0 0 0-8.024 8.028zm-1.103-23.343a8.026 8.026 0 0 0 8.023 8.029 8.026 8.026 0 0 0 8.024-8.03 8.026 8.026 0 0 0-8.024-8.028 8.026 8.026 0 0 0-8.023 8.029zm9.929-69.097a8.026 8.026 0 0 0 8.024 8.029 8.026 8.026 0 0 0 8.023-8.029 8.026 8.026 0 0 0-8.023-8.029 8.026 8.026 0 0 0-8.024 8.03zm7.632-22.059a8.026 8.026 0 0 0 8.024 8.029 8.026 8.026 0 0 0 8.024-8.029 8.026 8.026 0 0 0-8.024-8.028 8.026 8.026 0 0 0-8.023 8.028zm9.689-21.246a8.026 8.026 0 0 0 8.024 8.03 8.026 8.026 0 0 0 8.023-8.03 8.026 8.026 0 0 0-8.023-8.028 8.026 8.026 0 0 0-8.024 8.028zm11.664-20.212a8.026 8.026 0 0 0 8.024 8.029 8.026 8.026 0 0 0 8.024-8.029 8.026 8.026 0 0 0-8.024-8.028 8.026 8.026 0 0 0-8.024 8.028zm13.54-19.008a8.026 8.026 0 0 0 8.024 8.029 8.026 8.026 0 0 0 8.023-8.029 8.026 8.026 0 0 0-8.023-8.028 8.026 8.026 0 0 0-8.024 8.028zm15.265-17.652a8.026 8.026 0 0 0 8.024 8.028 8.026 8.026 0 0 0 8.023-8.029 8.026 8.026 0 0 0-8.023-8.028 8.026 8.026 0 0 0-8.024 8.028zm16.89-16.108a8.026 8.026 0 0 0 8.023 8.028 8.026 8.026 0 0 0 8.024-8.028 8.026 8.026 0 0 0-8.024-8.029 8.026 8.026 0 0 0-8.023 8.029zm18.344-14.432a8.026 8.026 0 0 0 8.023 8.029 8.026 8.026 0 0 0 8.024-8.029 8.026 8.026 0 0 0-8.024-8.028 8.026 8.026 0 0 0-8.023 8.028zm19.628-12.615a8.026 8.026 0 0 0 8.023 8.029 8.026 8.026 0 0 0 8.024-8.029 8.026 8.026 0 0 0-8.024-8.028 8.026 8.026 0 0 0-8.024 8.028zm20.73-10.698a8.026 8.026 0 0 0 8.024 8.029 8.026 8.026 0 0 0 8.024-8.029 8.026 8.026 0 0 0-8.024-8.029 8.026 8.026 0 0 0-8.024 8.029zm21.664-8.701a8.026 8.026 0 0 0 8.024 8.029 8.026 8.026 0 0 0 8.023-8.03 8.026 8.026 0 0 0-8.023-8.028 8.026 8.026 0 0 0-8.024 8.029zm311.807 365.666a8.026 8.026 0 0 0 8.024 8.029 8.026 8.026 0 0 0 8.023-8.03 8.026 8.026 0 0 0-8.023-8.028 8.026 8.026 0 0 0-8.024 8.029zm-12.537 19.71a8.026 8.026 0 0 0 8.024 8.029 8.026 8.026 0 0 0 8.024-8.029 8.026 8.026 0 0 0-8.024-8.028 8.026 8.026 0 0 0-8.024 8.028zm-14.201 18.496a8.026 8.026 0 0 0 8.023 8.029 8.026 8.026 0 0 0 8.024-8.029 8.026 8.026 0 0 0-8.024-8.028 8.026 8.026 0 0 0-8.023 8.028zm-15.767 17.212a8.026 8.026 0 0 0 8.024 8.028 8.026 8.026 0 0 0 8.023-8.028 8.026 8.026 0 0 0-8.023-8.029 8.026 8.026 0 0 0-8.024 8.029zm-55.393 42.572a8.026 8.026 0 0 0 8.024 8.029 8.026 8.026 0 0 0 8.023-8.03 8.026 8.026 0 0 0-8.023-8.028 8.026 8.026 0 0 0-8.024 8.029zm-20.691 10.748a8.026 8.026 0 0 0 8.024 8.029 8.026 8.026 0 0 0 8.024-8.029 8.026 8.026 0 0 0-8.024-8.028 8.026 8.026 0 0 0-8.024 8.028zm-21.553 8.922a8.026 8.026 0 0 0 8.024 8.029 8.026 8.026 0 0 0 8.023-8.029 8.026 8.026 0 0 0-8.023-8.029 8.026 8.026 0 0 0-8.024 8.03zm-22.276 7.025a8.026 8.026 0 0 0 8.024 8.029 8.026 8.026 0 0 0 8.024-8.029 8.026 8.026 0 0 0-8.024-8.029 8.026 8.026 0 0 0-8.024 8.03zm-22.766 5.058a8.026 8.026 0 0 0 8.023 8.029 8.026 8.026 0 0 0 8.024-8.029 8.026 8.026 0 0 0-8.024-8.028 8.026 8.026 0 0 0-8.023 8.028zm-23.129 3.041a8.026 8.026 0 0 0 8.024 8.029 8.026 8.026 0 0 0 8.024-8.029 8.026 8.026 0 0 0-8.024-8.029 8.026 8.026 0 0 0-8.024 8.03zm-23.308 1.014a8.026 8.026 0 0 0 8.024 8.028 8.026 8.026 0 0 0 8.023-8.028 8.026 8.026 0 0 0-8.023-8.029 8.026 8.026 0 0 0-8.024 8.029zm-23.309-1.014a8.026 8.026 0 0 0 8.024 8.029 8.026 8.026 0 0 0 8.024-8.029 8.026 8.026 0 0 0-8.024-8.029 8.026 8.026 0 0 0-8.024 8.03zm-23.138-3.041a8.026 8.026 0 0 0 8.024 8.029 8.026 8.026 0 0 0 8.024-8.029 8.026 8.026 0 0 0-8.024-8.028 8.026 8.026 0 0 0-8.024 8.028zm-22.757-5.058a8.026 8.026 0 0 0 8.024 8.029 8.026 8.026 0 0 0 8.024-8.029 8.026 8.026 0 0 0-8.024-8.029 8.026 8.026 0 0 0-8.024 8.03zm-22.276-7.015a8.026 8.026 0 0 0 8.024 8.029 8.026 8.026 0 0 0 8.024-8.029 8.026 8.026 0 0 0-8.024-8.029 8.026 8.026 0 0 0-8.023 8.03zm-21.553-8.932a8.026 8.026 0 0 0 8.024 8.029 8.026 8.026 0 0 0 8.024-8.029 8.026 8.026 0 0 0-8.024-8.028 8.026 8.026 0 0 0-8.024 8.028zm-20.69-10.748a8.026 8.026 0 0 0 8.023 8.029 8.026 8.026 0 0 0 8.024-8.03 8.026 8.026 0 0 0-8.024-8.028 8.026 8.026 0 0 0-8.023 8.029zm-19.678-12.585a8.026 8.026 0 0 0 8.023 8.029 8.026 8.026 0 0 0 8.024-8.03 8.026 8.026 0 0 0-8.024-8.028 8.026 8.026 0 0 0-8.023 8.029zm-18.515-14.211a8.026 8.026 0 0 0 8.024 8.029 8.026 8.026 0 0 0 8.024-8.029 8.026 8.026 0 0 0-8.024-8.029 8.026 8.026 0 0 0-8.024 8.03zm-17.2-15.766a8.026 8.026 0 0 0 8.023 8.028 8.026 8.026 0 0 0 8.024-8.028 8.026 8.026 0 0 0-8.024-8.029 8.026 8.026 0 0 0-8.023 8.029zm-15.767-17.222a8.026 8.026 0 0 0 8.024 8.029 8.026 8.026 0 0 0 8.024-8.029 8.026 8.026 0 0 0-8.024-8.028 8.026 8.026 0 0 0-8.024 8.028zm-14.201-18.496a8.026 8.026 0 0 0 8.023 8.029 8.026 8.026 0 0 0 8.024-8.029 8.026 8.026 0 0 0-8.024-8.028 8.026 8.026 0 0 0-8.023 8.028zm-12.537-19.71a8.026 8.026 0 0 0 8.023 8.029 8.026 8.026 0 0 0 8.024-8.03 8.026 8.026 0 0 0-8.024-8.028 8.026 8.026 0 0 0-8.023 8.029zm-10.772-20.714a8.026 8.026 0 0 0 8.024 8.029 8.026 8.026 0 0 0 8.023-8.03 8.026 8.026 0 0 0-8.023-8.028 8.026 8.026 0 0 0-8.024 8.029zm-8.927-21.568a8.026 8.026 0 0 0 8.024 8.03 8.026 8.026 0 0 0 8.024-8.03 8.026 8.026 0 0 0-8.024-8.028 8.026 8.026 0 0 0-8.023 8.029zm-7.02-22.309a8.026 8.026 0 0 0 8.024 8.029 8.026 8.026 0 0 0 8.023-8.029 8.026 8.026 0 0 0-8.023-8.028 8.026 8.026 0 0 0-8.024 8.028zm-5.045-22.751a8.026 8.026 0 0 0 8.024 8.029 8.026 8.026 0 0 0 8.023-8.03 8.026 8.026 0 0 0-8.023-8.028 8.026 8.026 0 0 0-8.024 8.029zm-3.049-23.153a8.026 8.026 0 0 0 8.024 8.029 8.026 8.026 0 0 0 8.024-8.029 8.026 8.026 0 0 0-8.024-8.028 8.026 8.026 0 0 0-8.024 8.028zm-1.023-23.343a8.026 8.026 0 0 0 8.024 8.029 8.026 8.026 0 0 0 8.024-8.03 8.026 8.026 0 0 0-8.024-8.028 8.026 8.026 0 0 0-8.024 8.029zm9.117-69.247a8.026 8.026 0 0 0 8.024 8.028 8.026 8.026 0 0 0 8.023-8.028 8.026 8.026 0 0 0-8.023-8.03 8.026 8.026 0 0 0-8.024 8.03zm7.02-22.26a8.026 8.026 0 0 0 8.024 8.029 8.026 8.026 0 0 0 8.024-8.029 8.026 8.026 0 0 0-8.024-8.029 8.026 8.026 0 0 0-8.023 8.03zm8.927-21.577a8.026 8.026 0 0 0 8.024 8.029 8.026 8.026 0 0 0 8.023-8.029 8.026 8.026 0 0 0-8.023-8.029 8.026 8.026 0 0 0-8.024 8.029zm10.772-20.704a8.026 8.026 0 0 0 8.023 8.029 8.026 8.026 0 0 0 8.024-8.029 8.026 8.026 0 0 0-8.024-8.029 8.026 8.026 0 0 0-8.023 8.03zm12.537-19.69a8.026 8.026 0 0 0 8.023 8.028 8.026 8.026 0 0 0 8.024-8.028 8.026 8.026 0 0 0-8.024-8.029 8.026 8.026 0 0 0-8.023 8.029zm14.201-18.526a8.026 8.026 0 0 0 8.024 8.028 8.026 8.026 0 0 0 8.024-8.028 8.026 8.026 0 0 0-8.024-8.03 8.026 8.026 0 0 0-8.024 8.03zm15.767-17.212a8.026 8.026 0 0 0 8.023 8.029 8.026 8.026 0 0 0 8.024-8.029 8.026 8.026 0 0 0-8.024-8.029 8.026 8.026 0 0 0-8.023 8.03zm17.2-15.776a8.026 8.026 0 0 0 8.024 8.028 8.026 8.026 0 0 0 8.024-8.028 8.026 8.026 0 0 0-8.024-8.029 8.026 8.026 0 0 0-8.024 8.029zm18.515-14.211a8.026 8.026 0 0 0 8.023 8.029 8.026 8.026 0 0 0 8.024-8.029 8.026 8.026 0 0 0-8.024-8.029 8.026 8.026 0 0 0-8.023 8.029zm19.678-12.545a8.026 8.026 0 0 0 8.023 8.029 8.026 8.026 0 0 0 8.024-8.029 8.026 8.026 0 0 0-8.024-8.028 8.026 8.026 0 0 0-8.023 8.028zm20.69-10.778a8.026 8.026 0 0 0 8.024 8.028 8.026 8.026 0 0 0 8.024-8.028 8.026 8.026 0 0 0-8.024-8.029 8.026 8.026 0 0 0-8.024 8.029zm21.553-8.932a8.026 8.026 0 0 0 8.024 8.028 8.026 8.026 0 0 0 8.024-8.028 8.026 8.026 0 0 0-8.024-8.029 8.026 8.026 0 0 0-8.023 8.029zm225.203 19.71a8.026 8.026 0 0 0 8.024 8.029 8.026 8.026 0 0 0 8.023-8.029 8.026 8.026 0 0 0-8.023-8.028 8.026 8.026 0 0 0-8.024 8.028zm97.958 405.94a8.026 8.026 0 0 0 8.024 8.029 8.026 8.026 0 0 0 8.024-8.029 8.026 8.026 0 0 0-8.024-8.029 8.026 8.026 0 0 0-8.024 8.029zm-14.803 18.084a8.026 8.026 0 0 0 8.023 8.03 8.026 8.026 0 0 0 8.024-8.03 8.026 8.026 0 0 0-8.024-8.028 8.026 8.026 0 0 0-8.023 8.029zm-92.673 69.66a8.026 8.026 0 0 0 8.024 8.028 8.026 8.026 0 0 0 8.023-8.029 8.026 8.026 0 0 0-8.023-8.028 8.026 8.026 0 0 0-8.024 8.028zm-21.463 9.162a8.026 8.026 0 0 0 8.024 8.029 8.026 8.026 0 0 0 8.023-8.029 8.026 8.026 0 0 0-8.023-8.029 8.026 8.026 0 0 0-8.024 8.03zm-22.135 7.396a8.026 8.026 0 0 0 8.024 8.03 8.026 8.026 0 0 0 8.023-8.03 8.026 8.026 0 0 0-8.023-8.028 8.026 8.026 0 0 0-8.024 8.028zm-22.647 5.59a8.026 8.026 0 0 0 8.024 8.03 8.026 8.026 0 0 0 8.024-8.03 8.026 8.026 0 0 0-8.024-8.028 8.026 8.026 0 0 0-8.024 8.028zm-23.037 3.744a8.026 8.026 0 0 0 8.023 8.029 8.026 8.026 0 0 0 8.024-8.03 8.026 8.026 0 0 0-8.024-8.028 8.026 8.026 0 0 0-8.023 8.029zm-23.259 1.887a8.026 8.026 0 0 0 8.024 8.028 8.026 8.026 0 0 0 8.023-8.028 8.026 8.026 0 0 0-8.023-8.03 8.026 8.026 0 0 0-8.024 8.03zm-23.328 0a8.026 8.026 0 0 0 8.023 8.028 8.026 8.026 0 0 0 8.024-8.028 8.026 8.026 0 0 0-8.024-8.03 8.026 8.026 0 0 0-8.023 8.03zm-23.259-1.887a8.026 8.026 0 0 0 8.024 8.029 8.026 8.026 0 0 0 8.023-8.03 8.026 8.026 0 0 0-8.023-8.028 8.026 8.026 0 0 0-8.024 8.029zm-23.037-3.744a8.026 8.026 0 0 0 8.023 8.03 8.026 8.026 0 0 0 8.024-8.03 8.026 8.026 0 0 0-8.024-8.028 8.026 8.026 0 0 0-8.024 8.028zm-22.657-5.59a8.026 8.026 0 0 0 8.023 8.03 8.026 8.026 0 0 0 8.024-8.03 8.026 8.026 0 0 0-8.024-8.028 8.026 8.026 0 0 0-8.023 8.028zm-22.125-7.396a8.026 8.026 0 0 0 8.023 8.029 8.026 8.026 0 0 0 8.024-8.029 8.026 8.026 0 0 0-8.024-8.029 8.026 8.026 0 0 0-8.023 8.03zm-21.463-9.162a8.026 8.026 0 0 0 8.023 8.028 8.026 8.026 0 0 0 8.024-8.029 8.026 8.026 0 0 0-8.024-8.028 8.026 8.026 0 0 0-8.023 8.028zm-20.661-10.83a8.026 8.026 0 0 0 8.023 8.03 8.026 8.026 0 0 0 8.024-8.03 8.026 8.026 0 0 0-8.024-8.028 8.026 8.026 0 0 0-8.023 8.029zm-19.728-12.484a8.026 8.026 0 0 0 8.023 8.029 8.026 8.026 0 0 0 8.024-8.029 8.026 8.026 0 0 0-8.024-8.029 8.026 8.026 0 0 0-8.023 8.03zm-18.655-14.02a8.026 8.026 0 0 0 8.024 8.029 8.026 8.026 0 0 0 8.023-8.029 8.026 8.026 0 0 0-8.023-8.029 8.026 8.026 0 0 0-8.024 8.029zM180.47 604.6a8.026 8.026 0 0 0 8.023 8.03 8.026 8.026 0 0 0 8.024-8.03 8.026 8.026 0 0 0-8.024-8.028 8.026 8.026 0 0 0-8.023 8.029zm-16.168-16.84a8.026 8.026 0 0 0 8.024 8.03 8.026 8.026 0 0 0 8.023-8.03 8.026 8.026 0 0 0-8.023-8.028 8.026 8.026 0 0 0-8.024 8.029zm-14.753-18.084a8.026 8.026 0 0 0 8.023 8.029 8.026 8.026 0 0 0 8.024-8.029 8.026 8.026 0 0 0-8.024-8.029 8.026 8.026 0 0 0-8.023 8.029zm-13.259-19.219a8.026 8.026 0 0 0 8.023 8.029 8.026 8.026 0 0 0 8.024-8.029 8.026 8.026 0 0 0-8.024-8.028 8.026 8.026 0 0 0-8.023 8.028zm-11.665-20.222a8.026 8.026 0 0 0 8.024 8.029 8.026 8.026 0 0 0 8.024-8.029 8.026 8.026 0 0 0-8.024-8.029 8.026 8.026 0 0 0-8.024 8.03zm-9.999-21.085a8.026 8.026 0 0 0 8.024 8.028 8.026 8.026 0 0 0 8.023-8.028 8.026 8.026 0 0 0-8.023-8.029 8.026 8.026 0 0 0-8.024 8.029zm-8.254-21.838a8.026 8.026 0 0 0 8.023 8.029 8.026 8.026 0 0 0 8.024-8.03 8.026 8.026 0 0 0-8.024-8.028 8.026 8.026 0 0 0-8.023 8.029zm-6.509-22.42a8.026 8.026 0 0 0 8.023 8.028 8.026 8.026 0 0 0 8.024-8.028 8.026 8.026 0 0 0-8.024-8.029 8.026 8.026 0 0 0-8.023 8.029zm-4.674-22.882a8.026 8.026 0 0 0 8.023 8.029 8.026 8.026 0 0 0 8.024-8.029 8.026 8.026 0 0 0-8.024-8.029 8.026 8.026 0 0 0-8.023 8.029zm-2.809-23.173a8.026 8.026 0 0 0 8.024 8.029 8.026 8.026 0 0 0 8.024-8.029 8.026 8.026 0 0 0-8.024-8.028 8.026 8.026 0 0 0-8.023 8.028zm-.942-23.353a8.026 8.026 0 0 0 8.023 8.029 8.026 8.026 0 0 0 8.024-8.03 8.026 8.026 0 0 0-8.024-8.028 8.026 8.026 0 0 0-8.023 8.029zm3.751-46.486a8.026 8.026 0 0 0 8.023 8.029 8.026 8.026 0 0 0 8.024-8.03 8.026 8.026 0 0 0-8.024-8.028 8.026 8.026 0 0 0-8.023 8.029zm4.674-22.872a8.026 8.026 0 0 0 8.023 8.029 8.026 8.026 0 0 0 8.024-8.029 8.026 8.026 0 0 0-8.024-8.029 8.026 8.026 0 0 0-8.023 8.03zm6.509-22.43a8.026 8.026 0 0 0 8.023 8.029 8.026 8.026 0 0 0 8.024-8.029 8.026 8.026 0 0 0-8.024-8.029 8.026 8.026 0 0 0-8.023 8.03zm8.254-21.828a8.026 8.026 0 0 0 8.024 8.029 8.026 8.026 0 0 0 8.023-8.029 8.026 8.026 0 0 0-8.023-8.029 8.026 8.026 0 0 0-8.024 8.03zm9.999-21.095a8.026 8.026 0 0 0 8.024 8.028 8.026 8.026 0 0 0 8.024-8.028 8.026 8.026 0 0 0-8.024-8.029 8.026 8.026 0 0 0-8.024 8.029zm11.665-20.223a8.026 8.026 0 0 0 8.023 8.03 8.026 8.026 0 0 0 8.024-8.03 8.026 8.026 0 0 0-8.024-8.028 8.026 8.026 0 0 0-8.023 8.029zm13.259-19.218a8.026 8.026 0 0 0 8.023 8.029 8.026 8.026 0 0 0 8.024-8.03 8.026 8.026 0 0 0-8.024-8.028 8.026 8.026 0 0 0-8.023 8.029zm14.753-18.085a8.026 8.026 0 0 0 8.024 8.029 8.026 8.026 0 0 0 8.023-8.029 8.026 8.026 0 0 0-8.023-8.028 8.026 8.026 0 0 0-8.024 8.028zm16.168-16.83a8.026 8.026 0 0 0 8.023 8.029 8.026 8.026 0 0 0 8.024-8.029 8.026 8.026 0 0 0-8.024-8.028 8.026 8.026 0 0 0-8.023 8.028zm17.471-15.485a8.026 8.026 0 0 0 8.024 8.029 8.026 8.026 0 0 0 8.023-8.03 8.026 8.026 0 0 0-8.023-8.028 8.026 8.026 0 0 0-8.024 8.029zm18.645-14.03a8.026 8.026 0 0 0 8.023 8.028 8.026 8.026 0 0 0 8.024-8.028 8.026 8.026 0 0 0-8.024-8.029 8.026 8.026 0 0 0-8.023 8.029zm19.728-12.475a8.026 8.026 0 0 0 8.023 8.029 8.026 8.026 0 0 0 8.024-8.029 8.026 8.026 0 0 0-8.024-8.028 8.026 8.026 0 0 0-8.023 8.028zm20.661-10.879a8.026 8.026 0 0 0 8.023 8.03 8.026 8.026 0 0 0 8.024-8.03 8.026 8.026 0 0 0-8.024-8.028 8.026 8.026 0 0 0-8.023 8.028zm21.463-9.122a8.026 8.026 0 0 0 8.023 8.028 8.026 8.026 0 0 0 8.024-8.028 8.026 8.026 0 0 0-8.024-8.029 8.026 8.026 0 0 0-8.023 8.029zm247.608 20.001a8.026 8.026 0 0 0 8.024 8.029 8.026 8.026 0 0 0 8.023-8.029 8.026 8.026 0 0 0-8.023-8.028 8.026 8.026 0 0 0-8.024 8.028zm19.728 12.475a8.026 8.026 0 0 0 8.024 8.028 8.026 8.026 0 0 0 8.023-8.028 8.026 8.026 0 0 0-8.023-8.029 8.026 8.026 0 0 0-8.024 8.029zm-29.196 519.907a8.026 8.026 0 0 0 8.024 8.028 8.026 8.026 0 0 0 8.023-8.028 8.026 8.026 0 0 0-8.023-8.03 8.026 8.026 0 0 0-8.024 8.03zm-21.403 9.343a8.026 8.026 0 0 0 8.024 8.029 8.026 8.026 0 0 0 8.023-8.029 8.026 8.026 0 0 0-8.023-8.029 8.026 8.026 0 0 0-8.024 8.029zm-22.025 7.708a8.026 8.026 0 0 0 8.024 8.028 8.026 8.026 0 0 0 8.024-8.029 8.026 8.026 0 0 0-8.024-8.028 8.026 8.026 0 0 0-8.024 8.028zm-22.536 6.051a8.026 8.026 0 0 0 8.024 8.029 8.026 8.026 0 0 0 8.023-8.029 8.026 8.026 0 0 0-8.023-8.029 8.026 8.026 0 0 0-8.024 8.03zm-22.927 4.336a8.026 8.026 0 0 0 8.023 8.028 8.026 8.026 0 0 0 8.024-8.028 8.026 8.026 0 0 0-8.024-8.03 8.026 8.026 0 0 0-8.023 8.03zm-23.188 2.609a8.026 8.026 0 0 0 8.023 8.029 8.026 8.026 0 0 0 8.024-8.03 8.026 8.026 0 0 0-8.024-8.028 8.026 8.026 0 0 0-8.023 8.029zm-23.319.873a8.026 8.026 0 0 0 8.024 8.029 8.026 8.026 0 0 0 8.023-8.029 8.026 8.026 0 0 0-8.023-8.029 8.026 8.026 0 0 0-8.024 8.029zm-23.319-.873a8.026 8.026 0 0 0 8.024 8.029 8.026 8.026 0 0 0 8.024-8.03 8.026 8.026 0 0 0-8.024-8.028 8.026 8.026 0 0 0-8.024 8.029zm-23.188-2.609a8.026 8.026 0 0 0 8.024 8.028 8.026 8.026 0 0 0 8.023-8.028 8.026 8.026 0 0 0-8.023-8.03 8.026 8.026 0 0 0-8.024 8.03zm-22.927-4.336a8.026 8.026 0 0 0 8.023 8.029 8.026 8.026 0 0 0 8.024-8.029 8.026 8.026 0 0 0-8.024-8.029 8.026 8.026 0 0 0-8.023 8.03zm-22.536-6.051a8.026 8.026 0 0 0 8.023 8.028 8.026 8.026 0 0 0 8.024-8.029 8.026 8.026 0 0 0-8.024-8.028 8.026 8.026 0 0 0-8.024 8.028zm-22.025-7.708a8.026 8.026 0 0 0 8.023 8.029 8.026 8.026 0 0 0 8.024-8.029 8.026 8.026 0 0 0-8.024-8.029 8.026 8.026 0 0 0-8.023 8.029zm-21.403-9.343a8.026 8.026 0 0 0 8.023 8.028 8.026 8.026 0 0 0 8.024-8.028 8.026 8.026 0 0 0-8.024-8.03 8.026 8.026 0 0 0-8.023 8.03zM225.161 665.9a8.026 8.026 0 0 0 8.024 8.028 8.026 8.026 0 0 0 8.023-8.028 8.026 8.026 0 0 0-8.023-8.029 8.026 8.026 0 0 0-8.024 8.029zm-19.748-12.415a8.026 8.026 0 0 0 8.024 8.029 8.026 8.026 0 0 0 8.023-8.029 8.026 8.026 0 0 0-8.023-8.028 8.026 8.026 0 0 0-8.024 8.028zm-18.805-13.869a8.026 8.026 0 0 0 8.023 8.028 8.026 8.026 0 0 0 8.024-8.028 8.026 8.026 0 0 0-8.024-8.029 8.026 8.026 0 0 0-8.023 8.029zm-17.662-15.225a8.026 8.026 0 0 0 8.023 8.03 8.026 8.026 0 0 0 8.024-8.03 8.026 8.026 0 0 0-8.024-8.028 8.026 8.026 0 0 0-8.023 8.028zm-16.499-16.519a8.026 8.026 0 0 0 8.024 8.03 8.026 8.026 0 0 0 8.023-8.03 8.026 8.026 0 0 0-8.023-8.028 8.026 8.026 0 0 0-8.024 8.028zm-15.215-17.692a8.026 8.026 0 0 0 8.024 8.028 8.026 8.026 0 0 0 8.024-8.029 8.026 8.026 0 0 0-8.024-8.028 8.026 8.026 0 0 0-8.024 8.028zm-13.81-18.788a8.026 8.026 0 0 0 8.023 8.029 8.026 8.026 0 0 0 8.024-8.029 8.026 8.026 0 0 0-8.024-8.029 8.026 8.026 0 0 0-8.023 8.03zm-12.467-19.77a8.026 8.026 0 0 0 8.024 8.028 8.026 8.026 0 0 0 8.023-8.028 8.026 8.026 0 0 0-8.023-8.03 8.026 8.026 0 0 0-8.024 8.03zm-10.902-20.654a8.026 8.026 0 0 0 8.024 8.028 8.026 8.026 0 0 0 8.023-8.028 8.026 8.026 0 0 0-8.023-8.029 8.026 8.026 0 0 0-8.024 8.029zm-9.327-21.397a8.026 8.026 0 0 0 8.023 8.029 8.026 8.026 0 0 0 8.024-8.029 8.026 8.026 0 0 0-8.024-8.028 8.026 8.026 0 0 0-8.023 8.028zm-7.713-22.038a8.026 8.026 0 0 0 8.024 8.028 8.026 8.026 0 0 0 8.023-8.028 8.026 8.026 0 0 0-8.023-8.03 8.026 8.026 0 0 0-8.024 8.03zm-6.038-22.551A8.026 8.026 0 0 0 85 473.011a8.026 8.026 0 0 0 8.023-8.029A8.026 8.026 0 0 0 85 456.953a8.026 8.026 0 0 0-8.024 8.03zm-4.343-22.942a8.026 8.026 0 0 0 8.024 8.029 8.026 8.026 0 0 0 8.024-8.029 8.026 8.026 0 0 0-8.024-8.029 8.026 8.026 0 0 0-8.024 8.03zm-2.607-23.203a8.026 8.026 0 0 0 8.023 8.029 8.026 8.026 0 0 0 8.024-8.029 8.026 8.026 0 0 0-8.024-8.028 8.026 8.026 0 0 0-8.023 8.028zm-.873-23.353a8.026 8.026 0 0 0 8.024 8.029 8.026 8.026 0 0 0 8.023-8.03 8.026 8.026 0 0 0-8.023-8.028 8.026 8.026 0 0 0-8.024 8.029zm3.48-46.516a8.026 8.026 0 0 0 8.024 8.028 8.026 8.026 0 0 0 8.024-8.028 8.026 8.026 0 0 0-8.024-8.029 8.026 8.026 0 0 0-8.024 8.029zm4.343-22.942A8.026 8.026 0 0 0 85 334.054a8.026 8.026 0 0 0 8.023-8.028A8.026 8.026 0 0 0 85 317.997a8.026 8.026 0 0 0-8.024 8.029zm6.038-22.551a8.026 8.026 0 0 0 8.024 8.029 8.026 8.026 0 0 0 8.023-8.029 8.026 8.026 0 0 0-8.023-8.028 8.026 8.026 0 0 0-8.024 8.028zm7.703-22.038a8.026 8.026 0 0 0 8.023 8.028 8.026 8.026 0 0 0 8.024-8.028 8.026 8.026 0 0 0-8.024-8.03 8.026 8.026 0 0 0-8.023 8.03zM100.053 260a8.026 8.026 0 0 0 8.024 8.029A8.026 8.026 0 0 0 116.1 260a8.026 8.026 0 0 0-8.023-8.029 8.026 8.026 0 0 0-8.024 8.029zm10.902-20.604a8.026 8.026 0 0 0 8.024 8.03 8.026 8.026 0 0 0 8.023-8.03 8.026 8.026 0 0 0-8.023-8.028 8.026 8.026 0 0 0-8.024 8.028zm12.467-19.77a8.026 8.026 0 0 0 8.023 8.028 8.026 8.026 0 0 0 8.024-8.028 8.026 8.026 0 0 0-8.024-8.029 8.026 8.026 0 0 0-8.023 8.029zm13.81-18.787a8.026 8.026 0 0 0 8.024 8.028 8.026 8.026 0 0 0 8.024-8.028 8.026 8.026 0 0 0-8.024-8.029 8.026 8.026 0 0 0-8.024 8.029zm15.215-17.704a8.026 8.026 0 0 0 8.024 8.03 8.026 8.026 0 0 0 8.023-8.03 8.026 8.026 0 0 0-8.023-8.028 8.026 8.026 0 0 0-8.024 8.028zm16.499-16.468a8.026 8.026 0 0 0 8.023 8.028 8.026 8.026 0 0 0 8.024-8.028 8.026 8.026 0 0 0-8.024-8.029 8.026 8.026 0 0 0-8.023 8.029zm17.662-15.275a8.026 8.026 0 0 0 8.023 8.029 8.026 8.026 0 0 0 8.024-8.029 8.026 8.026 0 0 0-8.024-8.029 8.026 8.026 0 0 0-8.023 8.03zm18.795-13.829a8.026 8.026 0 0 0 8.024 8.028 8.026 8.026 0 0 0 8.023-8.028 8.026 8.026 0 0 0-8.023-8.029 8.026 8.026 0 0 0-8.024 8.029zm19.758-12.455a8.026 8.026 0 0 0 8.024 8.029 8.026 8.026 0 0 0 8.023-8.029 8.026 8.026 0 0 0-8.023-8.028 8.026 8.026 0 0 0-8.024 8.028zm20.621-10.908a8.026 8.026 0 0 0 8.023 8.028 8.026 8.026 0 0 0 8.024-8.029 8.026 8.026 0 0 0-8.024-8.028 8.026 8.026 0 0 0-8.023 8.028zm21.403-9.344a8.026 8.026 0 0 0 8.023 8.029 8.026 8.026 0 0 0 8.024-8.03 8.026 8.026 0 0 0-8.024-8.028 8.026 8.026 0 0 0-8.023 8.029zm227.99.01a8.026 8.026 0 0 0 8.024 8.029 8.026 8.026 0 0 0 8.023-8.029 8.026 8.026 0 0 0-8.023-8.029 8.026 8.026 0 0 0-8.024 8.029zm21.403 9.334a8.026 8.026 0 0 0 8.024 8.028 8.026 8.026 0 0 0 8.023-8.029 8.026 8.026 0 0 0-8.023-8.028 8.026 8.026 0 0 0-8.024 8.028zm20.621 10.908a8.026 8.026 0 0 0 8.023 8.029 8.026 8.026 0 0 0 8.024-8.029 8.026 8.026 0 0 0-8.024-8.028 8.026 8.026 0 0 0-8.023 8.028zm19.758 12.455a8.026 8.026 0 0 0 8.024 8.028 8.026 8.026 0 0 0 8.023-8.028 8.026 8.026 0 0 0-8.023-8.029 8.026 8.026 0 0 0-8.024 8.029zm18.795 13.839a8.026 8.026 0 0 0 8.024 8.029 8.026 8.026 0 0 0 8.023-8.029 8.026 8.026 0 0 0-8.023-8.029 8.026 8.026 0 0 0-8.024 8.03zM484.484 713.62a8.026 8.026 0 0 0 8.023 8.029 8.026 8.026 0 0 0 8.024-8.029 8.026 8.026 0 0 0-8.024-8.029 8.026 8.026 0 0 0-8.023 8.03zm-22.426 6.473a8.026 8.026 0 0 0 8.023 8.029 8.026 8.026 0 0 0 8.024-8.029 8.026 8.026 0 0 0-8.024-8.028 8.026 8.026 0 0 0-8.023 8.028zm-22.828 4.857a8.026 8.026 0 0 0 8.024 8.03 8.026 8.026 0 0 0 8.024-8.03 8.026 8.026 0 0 0-8.024-8.028 8.026 8.026 0 0 0-8.023 8.029zm-23.107 3.252a8.026 8.026 0 0 0 8.023 8.029 8.026 8.026 0 0 0 8.024-8.029 8.026 8.026 0 0 0-8.024-8.029 8.026 8.026 0 0 0-8.023 8.03zm-23.279 1.626a8.026 8.026 0 0 0 8.024 8.029 8.026 8.026 0 0 0 8.023-8.029 8.026 8.026 0 0 0-8.023-8.029 8.026 8.026 0 0 0-8.024 8.029zm-23.328 0a8.026 8.026 0 0 0 8.023 8.029 8.026 8.026 0 0 0 8.024-8.029 8.026 8.026 0 0 0-8.024-8.029 8.026 8.026 0 0 0-8.023 8.029zm-23.279-1.626a8.026 8.026 0 0 0 8.024 8.029 8.026 8.026 0 0 0 8.023-8.029 8.026 8.026 0 0 0-8.023-8.029 8.026 8.026 0 0 0-8.024 8.03zm-23.107-3.252a8.026 8.026 0 0 0 8.023 8.03 8.026 8.026 0 0 0 8.023-8.03 8.026 8.026 0 0 0-8.023-8.028 8.026 8.026 0 0 0-8.024 8.029zm-22.828-4.857a8.026 8.026 0 0 0 8.024 8.029 8.026 8.026 0 0 0 8.023-8.029 8.026 8.026 0 0 0-8.023-8.028 8.026 8.026 0 0 0-8.024 8.028zm-22.426-6.473a8.026 8.026 0 0 0 8.024 8.029 8.026 8.026 0 0 0 8.023-8.029 8.026 8.026 0 0 0-8.023-8.029 8.026 8.026 0 0 0-8.024 8.03zm-21.934-7.938a8.026 8.026 0 0 0 8.023 8.028 8.026 8.026 0 0 0 8.024-8.028 8.026 8.026 0 0 0-8.024-8.029 8.026 8.026 0 0 0-8.023 8.029zm-21.323-9.504a8.026 8.026 0 0 0 8.023 8.028 8.026 8.026 0 0 0 8.024-8.028 8.026 8.026 0 0 0-8.024-8.029 8.026 8.026 0 0 0-8.023 8.029zm-20.601-10.959a8.026 8.026 0 0 0 8.024 8.028 8.026 8.026 0 0 0 8.023-8.028 8.026 8.026 0 0 0-8.023-8.029 8.026 8.026 0 0 0-8.024 8.029zm-19.788-12.375a8.026 8.026 0 0 0 8.024 8.03 8.026 8.026 0 0 0 8.023-8.03 8.026 8.026 0 0 0-8.023-8.028 8.026 8.026 0 0 0-8.024 8.028zm-18.875-13.729a8.026 8.026 0 0 0 8.023 8.03 8.026 8.026 0 0 0 8.024-8.03 8.026 8.026 0 0 0-8.024-8.028 8.026 8.026 0 0 0-8.023 8.028zm-17.833-15.003a8.026 8.026 0 0 0 8.024 8.029 8.026 8.026 0 0 0 8.023-8.03 8.026 8.026 0 0 0-8.023-8.028 8.026 8.026 0 0 0-8.024 8.029zm-16.829-16.228a8.026 8.026 0 0 0 8.023 8.029 8.026 8.026 0 0 0 8.024-8.03 8.026 8.026 0 0 0-8.024-8.028 8.026 8.026 0 0 0-8.023 8.029zm-15.616-17.342a8.026 8.026 0 0 0 8.023 8.029 8.026 8.026 0 0 0 8.024-8.03 8.026 8.026 0 0 0-8.024-8.028 8.026 8.026 0 0 0-8.023 8.029zm-14.363-18.356a8.026 8.026 0 0 0 8.024 8.03 8.026 8.026 0 0 0 8.024-8.03 8.026 8.026 0 0 0-8.024-8.028 8.026 8.026 0 0 0-8.024 8.028zm-13.048-19.409a8.026 8.026 0 0 0 8.024 8.029 8.026 8.026 0 0 0 8.023-8.029 8.026 8.026 0 0 0-8.023-8.029 8.026 8.026 0 0 0-8.024 8.03zm-11.664-20.222a8.026 8.026 0 0 0 8.023 8.029 8.026 8.026 0 0 0 8.024-8.03 8.026 8.026 0 0 0-8.024-8.028 8.026 8.026 0 0 0-8.023 8.029zm-10.24-20.985a8.026 8.026 0 0 0 8.023 8.029 8.026 8.026 0 0 0 8.024-8.03 8.026 8.026 0 0 0-8.024-8.028 8.026 8.026 0 0 0-8.023 8.029zm-8.736-21.678a8.026 8.026 0 0 0 8.024 8.03 8.026 8.026 0 0 0 8.023-8.03 8.026 8.026 0 0 0-8.023-8.028 8.026 8.026 0 0 0-8.024 8.028zm-7.211-22.179a8.026 8.026 0 0 0 8.023 8.029 8.026 8.026 0 0 0 8.024-8.029 8.026 8.026 0 0 0-8.024-8.028 8.026 8.026 0 0 0-8.023 8.028zm-5.597-22.651a8.026 8.026 0 0 0 8.024 8.029 8.026 8.026 0 0 0 8.023-8.029 8.026 8.026 0 0 0-8.023-8.028 8.026 8.026 0 0 0-8.024 8.028zm-4.102-23.002a8.026 8.026 0 0 0 8.024 8.029 8.026 8.026 0 0 0 8.023-8.029 8.026 8.026 0 0 0-8.023-8.028 8.026 8.026 0 0 0-8.024 8.028zm-2.436-23.223a8.026 8.026 0 0 0 8.023 8.029 8.026 8.026 0 0 0 8.023-8.029 8.026 8.026 0 0 0-8.023-8.028 8.026 8.026 0 0 0-8.024 8.028zm-.813-23.353a8.026 8.026 0 0 0 8.023 8.029 8.026 8.026 0 0 0 8.024-8.03 8.026 8.026 0 0 0-8.024-8.028 8.026 8.026 0 0 0-8.023 8.029zm.813-23.314a8.026 8.026 0 0 0 8.023 8.03 8.026 8.026 0 0 0 8.023-8.03 8.026 8.026 0 0 0-8.023-8.028 8.026 8.026 0 0 0-8.024 8.029zm2.436-23.222a8.026 8.026 0 0 0 8.024 8.028 8.026 8.026 0 0 0 8.023-8.028 8.026 8.026 0 0 0-8.023-8.029 8.026 8.026 0 0 0-8.024 8.029zm4.102-22.992a8.026 8.026 0 0 0 8.024 8.028 8.026 8.026 0 0 0 8.023-8.028 8.026 8.026 0 0 0-8.023-8.03 8.026 8.026 0 0 0-8.024 8.03zm5.597-22.661a8.026 8.026 0 0 0 8.023 8.028 8.026 8.026 0 0 0 8.024-8.028 8.026 8.026 0 0 0-8.024-8.03 8.026 8.026 0 0 0-8.023 8.03zm7.211-22.22a8.026 8.026 0 0 0 8.024 8.029 8.026 8.026 0 0 0 8.023-8.029 8.026 8.026 0 0 0-8.023-8.028 8.026 8.026 0 0 0-8.024 8.028zm8.746-21.637a8.026 8.026 0 0 0 8.023 8.029 8.026 8.026 0 0 0 8.024-8.029 8.026 8.026 0 0 0-8.024-8.029 8.026 8.026 0 0 0-8.023 8.029zm10.23-20.985a8.026 8.026 0 0 0 8.023 8.029 8.026 8.026 0 0 0 8.024-8.029 8.026 8.026 0 0 0-8.024-8.029 8.026 8.026 0 0 0-8.023 8.029zm11.664-20.223a8.026 8.026 0 0 0 8.024 8.03 8.026 8.026 0 0 0 8.023-8.03 8.026 8.026 0 0 0-8.023-8.028 8.026 8.026 0 0 0-8.024 8.029zm13.048-19.358a8.026 8.026 0 0 0 8.024 8.028 8.026 8.026 0 0 0 8.024-8.028 8.026 8.026 0 0 0-8.024-8.029 8.026 8.026 0 0 0-8.024 8.029zm14.363-18.396a8.026 8.026 0 0 0 8.023 8.029 8.026 8.026 0 0 0 8.024-8.029 8.026 8.026 0 0 0-8.024-8.029 8.026 8.026 0 0 0-8.023 8.029zm15.616-17.352a8.026 8.026 0 0 0 8.023 8.029 8.026 8.026 0 0 0 8.024-8.029 8.026 8.026 0 0 0-8.024-8.029 8.026 8.026 0 0 0-8.023 8.029zm16.829-16.218a8.026 8.026 0 0 0 8.024 8.029 8.026 8.026 0 0 0 8.023-8.029 8.026 8.026 0 0 0-8.023-8.029 8.026 8.026 0 0 0-8.024 8.03zm17.833-15.014a8.026 8.026 0 0 0 8.023 8.03 8.026 8.026 0 0 0 8.024-8.03 8.026 8.026 0 0 0-8.024-8.028 8.026 8.026 0 0 0-8.023 8.028zm18.875-13.729a8.026 8.026 0 0 0 8.024 8.03 8.026 8.026 0 0 0 8.023-8.03 8.026 8.026 0 0 0-8.023-8.028 8.026 8.026 0 0 0-8.024 8.028zm19.788-12.363a8.026 8.026 0 0 0 8.024 8.028 8.026 8.026 0 0 0 8.023-8.029 8.026 8.026 0 0 0-8.023-8.028 8.026 8.026 0 0 0-8.024 8.028zm20.611-10.96a8.026 8.026 0 0 0 8.024 8.029 8.026 8.026 0 0 0 8.023-8.029 8.026 8.026 0 0 0-8.023-8.029 8.026 8.026 0 0 0-8.024 8.03zm21.313-9.464a8.026 8.026 0 0 0 8.023 8.029 8.026 8.026 0 0 0 8.024-8.029 8.026 8.026 0 0 0-8.024-8.028 8.026 8.026 0 0 0-8.023 8.028zm21.934-8.028a8.026 8.026 0 0 0 8.024 8.028 8.026 8.026 0 0 0 8.023-8.028 8.026 8.026 0 0 0-8.023-8.029 8.026 8.026 0 0 0-8.024 8.029zm22.426-6.433a8.026 8.026 0 0 0 8.024 8.028 8.026 8.026 0 0 0 8.023-8.028 8.026 8.026 0 0 0-8.023-8.029 8.026 8.026 0 0 0-8.024 8.029zm206.116 14.461a8.026 8.026 0 0 0 8.024 8.029 8.026 8.026 0 0 0 8.023-8.029 8.026 8.026 0 0 0-8.023-8.028 8.026 8.026 0 0 0-8.024 8.028zm21.313 9.454a8.026 8.026 0 0 0 8.024 8.029 8.026 8.026 0 0 0 8.023-8.029 8.026 8.026 0 0 0-8.023-8.029 8.026 8.026 0 0 0-8.024 8.03zm20.611 10.97a8.026 8.026 0 0 0 8.023 8.028 8.026 8.026 0 0 0 8.024-8.029 8.026 8.026 0 0 0-8.024-8.028 8.026 8.026 0 0 0-8.023 8.028zm19.788 12.373a8.026 8.026 0 0 0 8.023 8.03 8.026 8.026 0 0 0 8.024-8.03 8.026 8.026 0 0 0-8.024-8.028 8.026 8.026 0 0 0-8.023 8.028zm18.875 13.719a8.026 8.026 0 0 0 8.024 8.03 8.026 8.026 0 0 0 8.024-8.03 8.026 8.026 0 0 0-8.024-8.028 8.026 8.026 0 0 0-8.024 8.028zm17.833 15.014a8.026 8.026 0 0 0 8.023 8.029 8.026 8.026 0 0 0 8.024-8.029 8.026 8.026 0 0 0-8.024-8.029 8.026 8.026 0 0 0-8.023 8.03zm16.829 16.218a8.026 8.026 0 0 0 8.024 8.029 8.026 8.026 0 0 0 8.023-8.029 8.026 8.026 0 0 0-8.023-8.029 8.026 8.026 0 0 0-8.024 8.029zM473.451 740.175a8.026 8.026 0 0 0 8.024 8.029 8.026 8.026 0 0 0 8.024-8.03 8.026 8.026 0 0 0-8.024-8.028 8.026 8.026 0 0 0-8.024 8.029zm-22.696 5.309a8.026 8.026 0 0 0 8.023 8.029 8.026 8.026 0 0 0 8.024-8.03 8.026 8.026 0 0 0-8.024-8.028 8.026 8.026 0 0 0-8.023 8.029zm-23.028 3.793a8.026 8.026 0 0 0 8.023 8.03 8.026 8.026 0 0 0 8.024-8.03 8.026 8.026 0 0 0-8.024-8.028 8.026 8.026 0 0 0-8.023 8.028zm-23.228 2.289a8.026 8.026 0 0 0 8.023 8.028 8.026 8.026 0 0 0 8.024-8.028 8.026 8.026 0 0 0-8.024-8.03 8.026 8.026 0 0 0-8.023 8.03zm-23.319.772a8.026 8.026 0 0 0 8.024 8.029 8.026 8.026 0 0 0 8.023-8.029 8.026 8.026 0 0 0-8.023-8.028 8.026 8.026 0 0 0-8.024 8.028zm-23.329-.762a8.026 8.026 0 0 0 8.024 8.028 8.026 8.026 0 0 0 8.024-8.028 8.026 8.026 0 0 0-8.024-8.029 8.026 8.026 0 0 0-8.024 8.029zm-23.218-2.299a8.026 8.026 0 0 0 8.024 8.03 8.026 8.026 0 0 0 8.023-8.03 8.026 8.026 0 0 0-8.023-8.028 8.026 8.026 0 0 0-8.024 8.028zm-23.018-3.793a8.026 8.026 0 0 0 8.024 8.029 8.026 8.026 0 0 0 8.024-8.03 8.026 8.026 0 0 0-8.024-8.028 8.026 8.026 0 0 0-8.024 8.029zm-22.706-5.309a8.026 8.026 0 0 0 8.023 8.029 8.026 8.026 0 0 0 8.024-8.03 8.026 8.026 0 0 0-8.024-8.028 8.026 8.026 0 0 0-8.023 8.029zm-22.356-6.775a8.026 8.026 0 0 0 8.023 8.03 8.026 8.026 0 0 0 8.024-8.03 8.026 8.026 0 0 0-8.024-8.028 8.026 8.026 0 0 0-8.023 8.029zm-21.844-8.229a8.026 8.026 0 0 0 8.023 8.029 8.026 8.026 0 0 0 8.024-8.029 8.026 8.026 0 0 0-8.024-8.028 8.026 8.026 0 0 0-8.023 8.028zm-21.253-9.634a8.026 8.026 0 0 0 8.024 8.029 8.026 8.026 0 0 0 8.023-8.03 8.026 8.026 0 0 0-8.023-8.028 8.026 8.026 0 0 0-8.024 8.029zm-20.58-11.009a8.026 8.026 0 0 0 8.023 8.028 8.026 8.026 0 0 0 8.024-8.028 8.026 8.026 0 0 0-8.024-8.03 8.026 8.026 0 0 0-8.023 8.03zm-19.819-12.334a8.026 8.026 0 0 0 8.024 8.028 8.026 8.026 0 0 0 8.023-8.028 8.026 8.026 0 0 0-8.023-8.03 8.026 8.026 0 0 0-8.024 8.03zm-18.966-13.599a8.026 8.026 0 0 0 8.024 8.029 8.026 8.026 0 0 0 8.024-8.029 8.026 8.026 0 0 0-8.024-8.029 8.026 8.026 0 0 0-8.024 8.029zm-18.033-14.803a8.026 8.026 0 0 0 8.024 8.029 8.026 8.026 0 0 0 8.024-8.029 8.026 8.026 0 0 0-8.024-8.029 8.026 8.026 0 0 0-8.024 8.03zm-17.04-15.967a8.026 8.026 0 0 0 8.024 8.029 8.026 8.026 0 0 0 8.023-8.029 8.026 8.026 0 0 0-8.023-8.029 8.026 8.026 0 0 0-8.024 8.03zm-15.947-17.041a8.026 8.026 0 0 0 8.024 8.029 8.026 8.026 0 0 0 8.024-8.029 8.026 8.026 0 0 0-8.024-8.028 8.026 8.026 0 0 0-8.024 8.028zM98.268 612.73a8.026 8.026 0 0 0 8.023 8.028 8.026 8.026 0 0 0 8.024-8.028 8.026 8.026 0 0 0-8.024-8.029 8.026 8.026 0 0 0-8.023 8.029zm-13.59-18.978a8.026 8.026 0 0 0 8.023 8.029 8.026 8.026 0 0 0 8.024-8.029 8.026 8.026 0 0 0-8.024-8.029 8.026 8.026 0 0 0-8.023 8.029zm-12.326-19.831a8.026 8.026 0 0 0 8.023 8.029 8.026 8.026 0 0 0 8.024-8.029 8.026 8.026 0 0 0-8.024-8.029 8.026 8.026 0 0 0-8.023 8.03zM61.35 553.328a8.026 8.026 0 0 0 8.023 8.028 8.026 8.026 0 0 0 8.023-8.028 8.026 8.026 0 0 0-8.023-8.03 8.026 8.026 0 0 0-8.024 8.03zm-9.63-21.266a8.026 8.026 0 0 0 8.025 8.028 8.026 8.026 0 0 0 8.023-8.028 8.026 8.026 0 0 0-8.023-8.029 8.026 8.026 0 0 0-8.024 8.029zm-8.223-21.858a8.026 8.026 0 0 0 8.023 8.028 8.026 8.026 0 0 0 8.024-8.028 8.026 8.026 0 0 0-8.024-8.03 8.026 8.026 0 0 0-8.023 8.03zm-6.77-22.39a8.026 8.026 0 0 0 8.023 8.028 8.026 8.026 0 0 0 8.024-8.028 8.026 8.026 0 0 0-8.024-8.03 8.026 8.026 0 0 0-8.023 8.03zm-5.306-22.691a8.026 8.026 0 0 0 8.024 8.028 8.026 8.026 0 0 0 8.023-8.028 8.026 8.026 0 0 0-8.023-8.03 8.026 8.026 0 0 0-8.024 8.03zM27.63 442.08a8.026 8.026 0 0 0 8.024 8.029 8.026 8.026 0 0 0 8.023-8.029 8.026 8.026 0 0 0-8.023-8.028 8.026 8.026 0 0 0-8.024 8.028zm-2.297-23.233a8.026 8.026 0 0 0 8.024 8.029 8.026 8.026 0 0 0 8.024-8.029 8.026 8.026 0 0 0-8.024-8.028 8.026 8.026 0 0 0-8.024 8.028zm-.762-23.363a8.026 8.026 0 0 0 8.024 8.029 8.026 8.026 0 0 0 8.023-8.03 8.026 8.026 0 0 0-8.023-8.028 8.026 8.026 0 0 0-8.024 8.029zm.762-23.314a8.026 8.026 0 0 0 8.024 8.03 8.026 8.026 0 0 0 8.024-8.03 8.026 8.026 0 0 0-8.024-8.028 8.026 8.026 0 0 0-8.024 8.029zm2.297-23.242a8.026 8.026 0 0 0 8.024 8.028 8.026 8.026 0 0 0 8.023-8.028 8.026 8.026 0 0 0-8.023-8.03 8.026 8.026 0 0 0-8.024 8.03zm3.801-23.033a8.026 8.026 0 0 0 8.024 8.029 8.026 8.026 0 0 0 8.023-8.029 8.026 8.026 0 0 0-8.023-8.028 8.026 8.026 0 0 0-8.024 8.028zm5.296-22.741a8.026 8.026 0 0 0 8.023 8.029 8.026 8.026 0 0 0 8.024-8.029 8.026 8.026 0 0 0-8.024-8.029 8.026 8.026 0 0 0-8.023 8.03zm6.77-22.35a8.026 8.026 0 0 0 8.023 8.029 8.026 8.026 0 0 0 8.024-8.029 8.026 8.026 0 0 0-8.024-8.028 8.026 8.026 0 0 0-8.023 8.028zm8.223-21.808a8.026 8.026 0 0 0 8.025 8.03 8.026 8.026 0 0 0 8.023-8.03 8.026 8.026 0 0 0-8.023-8.028 8.026 8.026 0 0 0-8.024 8.028zm9.63-21.306a8.026 8.026 0 0 0 8.023 8.029 8.026 8.026 0 0 0 8.023-8.029 8.026 8.026 0 0 0-8.023-8.028 8.026 8.026 0 0 0-8.024 8.028zm11.002-20.603a8.026 8.026 0 0 0 8.023 8.028 8.026 8.026 0 0 0 8.024-8.028 8.026 8.026 0 0 0-8.024-8.029 8.026 8.026 0 0 0-8.023 8.029zm12.326-19.831a8.026 8.026 0 0 0 8.023 8.029 8.026 8.026 0 0 0 8.024-8.03 8.026 8.026 0 0 0-8.024-8.028 8.026 8.026 0 0 0-8.023 8.029zm13.59-18.968a8.026 8.026 0 0 0 8.023 8.029 8.026 8.026 0 0 0 8.024-8.029 8.026 8.026 0 0 0-8.024-8.029 8.026 8.026 0 0 0-8.023 8.03zm14.803-18.054a8.026 8.026 0 0 0 8.024 8.028 8.026 8.026 0 0 0 8.024-8.028 8.026 8.026 0 0 0-8.024-8.029 8.026 8.026 0 0 0-8.024 8.029zm15.947-17.051a8.026 8.026 0 0 0 8.024 8.028 8.026 8.026 0 0 0 8.023-8.028 8.026 8.026 0 0 0-8.023-8.029 8.026 8.026 0 0 0-8.024 8.029zm17.04-15.957a8.026 8.026 0 0 0 8.024 8.028 8.026 8.026 0 0 0 8.024-8.028 8.026 8.026 0 0 0-8.024-8.029 8.026 8.026 0 0 0-8.024 8.029zm36.999-28.412a8.026 8.026 0 0 0 8.024 8.029 8.026 8.026 0 0 0 8.023-8.029 8.026 8.026 0 0 0-8.023-8.028 8.026 8.026 0 0 0-8.024 8.028zm40.399-23.343a8.026 8.026 0 0 0 8.024 8.029 8.026 8.026 0 0 0 8.023-8.029 8.026 8.026 0 0 0-8.023-8.029 8.026 8.026 0 0 0-8.024 8.029zm21.263-9.634a8.026 8.026 0 0 0 8.023 8.028 8.026 8.026 0 0 0 8.024-8.028 8.026 8.026 0 0 0-8.024-8.03 8.026 8.026 0 0 0-8.023 8.03zm21.834-8.23a8.026 8.026 0 0 0 8.023 8.029 8.026 8.026 0 0 0 8.024-8.029 8.026 8.026 0 0 0-8.024-8.029 8.026 8.026 0 0 0-8.023 8.03zm22.356-6.774a8.026 8.026 0 0 0 8.023 8.029 8.026 8.026 0 0 0 8.024-8.029 8.026 8.026 0 0 0-8.024-8.029 8.026 8.026 0 0 0-8.023 8.029zm22.706-5.299a8.026 8.026 0 0 0 8.024 8.029 8.026 8.026 0 0 0 8.024-8.029 8.026 8.026 0 0 0-8.024-8.029 8.026 8.026 0 0 0-8.024 8.03zm23.018-3.804a8.026 8.026 0 0 0 8.024 8.03 8.026 8.026 0 0 0 8.023-8.03 8.026 8.026 0 0 0-8.023-8.028 8.026 8.026 0 0 0-8.024 8.028zm23.228-2.288a8.026 8.026 0 0 0 8.024 8.029 8.026 8.026 0 0 0 8.024-8.029 8.026 8.026 0 0 0-8.024-8.028 8.026 8.026 0 0 0-8.024 8.028zm23.319-.772a8.026 8.026 0 0 0 8.024 8.028 8.026 8.026 0 0 0 8.023-8.028 8.026 8.026 0 0 0-8.023-8.03 8.026 8.026 0 0 0-8.024 8.03zm23.319.772a8.026 8.026 0 0 0 8.023 8.029 8.026 8.026 0 0 0 8.024-8.029 8.026 8.026 0 0 0-8.024-8.028 8.026 8.026 0 0 0-8.023 8.028zm23.228 2.288a8.026 8.026 0 0 0 8.023 8.03 8.026 8.026 0 0 0 8.024-8.03 8.026 8.026 0 0 0-8.024-8.028 8.026 8.026 0 0 0-8.023 8.028zm23.018 3.804a8.026 8.026 0 0 0 8.023 8.029 8.026 8.026 0 0 0 8.024-8.029 8.026 8.026 0 0 0-8.024-8.029 8.026 8.026 0 0 0-8.023 8.03zm22.706 5.299a8.026 8.026 0 0 0 8.024 8.029 8.026 8.026 0 0 0 8.024-8.029 8.026 8.026 0 0 0-8.024-8.029 8.026 8.026 0 0 0-8.024 8.029zm22.356 6.784a8.026 8.026 0 0 0 8.024 8.029 8.026 8.026 0 0 0 8.023-8.029 8.026 8.026 0 0 0-8.023-8.028 8.026 8.026 0 0 0-8.024 8.028zm21.834 8.22a8.026 8.026 0 0 0 8.024 8.028 8.026 8.026 0 0 0 8.023-8.028 8.026 8.026 0 0 0-8.023-8.03 8.026 8.026 0 0 0-8.024 8.03zm21.263 9.634a8.026 8.026 0 0 0 8.023 8.029 8.026 8.026 0 0 0 8.024-8.029 8.026 8.026 0 0 0-8.024-8.029 8.026 8.026 0 0 0-8.023 8.029zm20.58 11.009a8.026 8.026 0 0 0 8.024 8.029 8.026 8.026 0 0 0 8.024-8.029 8.026 8.026 0 0 0-8.024-8.028 8.026 8.026 0 0 0-8.024 8.028zm19.819 12.334a8.026 8.026 0 0 0 8.023 8.029 8.026 8.026 0 0 0 8.024-8.029 8.026 8.026 0 0 0-8.024-8.028 8.026 8.026 0 0 0-8.023 8.028zm18.965 13.599a8.026 8.026 0 0 0 8.024 8.029 8.026 8.026 0 0 0 8.024-8.03 8.026 8.026 0 0 0-8.024-8.028 8.026 8.026 0 0 0-8.024 8.029zm18.033 14.813a8.026 8.026 0 0 0 8.024 8.028 8.026 8.026 0 0 0 8.024-8.028 8.026 8.026 0 0 0-8.024-8.029 8.026 8.026 0 0 0-8.024 8.029zm-131.436 632.94a8.026 8.026 0 0 0 8.023 8.029 8.026 8.026 0 0 0 8.024-8.029 8.026 8.026 0 0 0-8.024-8.028 8.026 8.026 0 0 0-8.023 8.028zm-22.627 5.691a8.026 8.026 0 0 0 8.024 8.028 8.026 8.026 0 0 0 8.024-8.028 8.026 8.026 0 0 0-8.024-8.029 8.026 8.026 0 0 0-8.024 8.029zm-22.887 4.295a8.026 8.026 0 0 0 8.024 8.029 8.026 8.026 0 0 0 8.023-8.029 8.026 8.026 0 0 0-8.023-8.029 8.026 8.026 0 0 0-8.024 8.029zm-23.218 2.87a8.026 8.026 0 0 0 8.023 8.029 8.026 8.026 0 0 0 8.024-8.029 8.026 8.026 0 0 0-8.024-8.028 8.026 8.026 0 0 0-8.023 8.028zm-23.279 1.435a8.026 8.026 0 0 0 8.024 8.029 8.026 8.026 0 0 0 8.023-8.029 8.026 8.026 0 0 0-8.023-8.028 8.026 8.026 0 0 0-8.024 8.028zm-23.338 0a8.026 8.026 0 0 0 8.023 8.029 8.026 8.026 0 0 0 8.024-8.029 8.026 8.026 0 0 0-8.024-8.028 8.026 8.026 0 0 0-8.023 8.028zm-23.299-1.435a8.026 8.026 0 0 0 8.024 8.029 8.026 8.026 0 0 0 8.023-8.029 8.026 8.026 0 0 0-8.023-8.028 8.026 8.026 0 0 0-8.024 8.028zm-23.158-2.88a8.026 8.026 0 0 0 8.024 8.029 8.026 8.026 0 0 0 8.023-8.03 8.026 8.026 0 0 0-8.023-8.028 8.026 8.026 0 0 0-8.024 8.029zm-22.937-4.285a8.026 8.026 0 0 0 8.023 8.028 8.026 8.026 0 0 0 8.024-8.028 8.026 8.026 0 0 0-8.024-8.029 8.026 8.026 0 0 0-8.023 8.029zm-22.637-5.701a8.026 8.026 0 0 0 8.024 8.029 8.026 8.026 0 0 0 8.023-8.029 8.026 8.026 0 0 0-8.023-8.028 8.026 8.026 0 0 0-8.024 8.028zm-22.235-7.075a8.026 8.026 0 0 0 8.023 8.029 8.026 8.026 0 0 0 8.024-8.029 8.026 8.026 0 0 0-8.024-8.029 8.026 8.026 0 0 0-8.023 8.029zm-21.754-8.431a8.026 8.026 0 0 0 8.023 8.03 8.026 8.026 0 0 0 8.024-8.03 8.026 8.026 0 0 0-8.024-8.028 8.026 8.026 0 0 0-8.023 8.029zm-21.203-9.764a8.026 8.026 0 0 0 8.024 8.029 8.026 8.026 0 0 0 8.023-8.029 8.026 8.026 0 0 0-8.023-8.029 8.026 8.026 0 0 0-8.024 8.029zm-20.56-11.039a8.026 8.026 0 0 0 8.023 8.028 8.026 8.026 0 0 0 8.024-8.028 8.026 8.026 0 0 0-8.024-8.03 8.026 8.026 0 0 0-8.023 8.03zm-19.839-12.294a8.026 8.026 0 0 0 8.024 8.028 8.026 8.026 0 0 0 8.024-8.028 8.026 8.026 0 0 0-8.024-8.029 8.026 8.026 0 0 0-8.024 8.029zm-19.046-13.499a8.026 8.026 0 0 0 8.024 8.03 8.026 8.026 0 0 0 8.024-8.03 8.026 8.026 0 0 0-8.024-8.028 8.026 8.026 0 0 0-8.024 8.028zm-18.183-14.632a8.026 8.026 0 0 0 8.023 8.029 8.026 8.026 0 0 0 8.024-8.029 8.026 8.026 0 0 0-8.024-8.028 8.026 8.026 0 0 0-8.023 8.028zm-17.261-15.736a8.026 8.026 0 0 0 8.024 8.029 8.026 8.026 0 0 0 8.023-8.029 8.026 8.026 0 0 0-8.023-8.029 8.026 8.026 0 0 0-8.024 8.029zm-16.228-16.76a8.026 8.026 0 0 0 8.024 8.029 8.026 8.026 0 0 0 8.024-8.029 8.026 8.026 0 0 0-8.024-8.029 8.026 8.026 0 0 0-8.024 8.03zm-15.184-17.733a8.026 8.026 0 0 0 8.023 8.029 8.026 8.026 0 0 0 8.024-8.03 8.026 8.026 0 0 0-8.024-8.028 8.026 8.026 0 0 0-8.023 8.029zM71.93 614.556a8.026 8.026 0 0 0 8.024 8.029 8.026 8.026 0 0 0 8.024-8.029 8.026 8.026 0 0 0-8.024-8.028 8.026 8.026 0 0 0-8.024 8.028zm-12.888-19.459a8.026 8.026 0 0 0 8.024 8.028 8.026 8.026 0 0 0 8.024-8.028 8.026 8.026 0 0 0-8.024-8.029 8.026 8.026 0 0 0-8.024 8.029zm-11.674-20.222a8.026 8.026 0 0 0 8.024 8.028 8.026 8.026 0 0 0 8.023-8.028 8.026 8.026 0 0 0-8.023-8.03 8.026 8.026 0 0 0-8.024 8.03zm-10.4-20.905a8.026 8.026 0 0 0 8.023 8.029 8.026 8.026 0 0 0 8.024-8.03 8.026 8.026 0 0 0-8.024-8.028 8.026 8.026 0 0 0-8.023 8.029zm-9.098-21.507a8.026 8.026 0 0 0 8.024 8.029 8.026 8.026 0 0 0 8.024-8.029 8.026 8.026 0 0 0-8.024-8.029 8.026 8.026 0 0 0-8.023 8.03zm-7.752-22.019a8.026 8.026 0 0 0 8.024 8.03 8.026 8.026 0 0 0 8.023-8.03 8.026 8.026 0 0 0-8.023-8.028 8.026 8.026 0 0 0-8.024 8.028zm-6.388-22.46a8.026 8.026 0 0 0 8.023 8.029 8.026 8.026 0 0 0 8.023-8.029 8.026 8.026 0 0 0-8.023-8.028 8.026 8.026 0 0 0-8.024 8.028zm-4.985-22.811a8.026 8.026 0 0 0 8.023 8.028 8.026 8.026 0 0 0 8.024-8.028 8.026 8.026 0 0 0-8.024-8.029 8.026 8.026 0 0 0-8.023 8.029zM5.164 442.09a8.026 8.026 0 0 0 8.024 8.029 8.026 8.026 0 0 0 8.023-8.029 8.026 8.026 0 0 0-8.023-8.028 8.026 8.026 0 0 0-8.024 8.028zm-2.156-23.243a8.026 8.026 0 0 0 8.023 8.029 8.026 8.026 0 0 0 8.024-8.029 8.026 8.026 0 0 0-8.024-8.028 8.026 8.026 0 0 0-8.023 8.028zm-.722-23.363a8.026 8.026 0 0 0 8.023 8.029 8.026 8.026 0 0 0 8.024-8.03 8.026 8.026 0 0 0-8.024-8.028 8.026 8.026 0 0 0-8.023 8.029zm.722-23.314a8.026 8.026 0 0 0 8.023 8.03 8.026 8.026 0 0 0 8.024-8.03 8.026 8.026 0 0 0-8.024-8.028 8.026 8.026 0 0 0-8.023 8.029zm2.146-23.252a8.026 8.026 0 0 0 8.024 8.028 8.026 8.026 0 0 0 8.023-8.028 8.026 8.026 0 0 0-8.023-8.03 8.026 8.026 0 0 0-8.024 8.03zm3.581-23.083a8.026 8.026 0 0 0 8.023 8.029 8.026 8.026 0 0 0 8.024-8.029 8.026 8.026 0 0 0-8.024-8.029 8.026 8.026 0 0 0-8.023 8.03zm4.995-22.801a8.026 8.026 0 0 0 8.023 8.028 8.026 8.026 0 0 0 8.023-8.028 8.026 8.026 0 0 0-8.023-8.029 8.026 8.026 0 0 0-8.024 8.029zm6.388-22.461a8.026 8.026 0 0 0 8.024 8.03 8.026 8.026 0 0 0 8.023-8.03 8.026 8.026 0 0 0-8.023-8.028 8.026 8.026 0 0 0-8.024 8.028zm7.752-22.028a8.026 8.026 0 0 0 8.024 8.028 8.026 8.026 0 0 0 8.024-8.028 8.026 8.026 0 0 0-8.024-8.029 8.026 8.026 0 0 0-8.023 8.029zm9.098-21.497a8.026 8.026 0 0 0 8.023 8.029 8.026 8.026 0 0 0 8.024-8.029 8.026 8.026 0 0 0-8.024-8.029 8.026 8.026 0 0 0-8.023 8.029zm10.4-20.905a8.026 8.026 0 0 0 8.024 8.029 8.026 8.026 0 0 0 8.023-8.029 8.026 8.026 0 0 0-8.023-8.028 8.026 8.026 0 0 0-8.024 8.028zm11.674-20.222a8.026 8.026 0 0 0 8.024 8.029 8.026 8.026 0 0 0 8.024-8.029 8.026 8.026 0 0 0-8.024-8.029 8.026 8.026 0 0 0-8.024 8.03zm12.888-19.469a8.026 8.026 0 0 0 8.024 8.028 8.026 8.026 0 0 0 8.024-8.028 8.026 8.026 0 0 0-8.024-8.03 8.026 8.026 0 0 0-8.024 8.03zm80.918-83.499a8.026 8.026 0 0 0 8.024 8.03 8.026 8.026 0 0 0 8.024-8.03 8.026 8.026 0 0 0-8.024-8.028 8.026 8.026 0 0 0-8.024 8.028zm38.885-25.792a8.026 8.026 0 0 0 8.023 8.029 8.026 8.026 0 0 0 8.024-8.029 8.026 8.026 0 0 0-8.024-8.028 8.026 8.026 0 0 0-8.023 8.028zm20.56-11.039a8.026 8.026 0 0 0 8.024 8.029 8.026 8.026 0 0 0 8.023-8.03 8.026 8.026 0 0 0-8.023-8.028 8.026 8.026 0 0 0-8.024 8.029zm21.203-9.765a8.026 8.026 0 0 0 8.023 8.029 8.026 8.026 0 0 0 8.024-8.029 8.026 8.026 0 0 0-8.024-8.029 8.026 8.026 0 0 0-8.023 8.029zm21.764-8.43a8.026 8.026 0 0 0 8.023 8.029 8.026 8.026 0 0 0 8.024-8.03 8.026 8.026 0 0 0-8.024-8.028 8.026 8.026 0 0 0-8.023 8.029zm22.235-7.075a8.026 8.026 0 0 0 8.024 8.028 8.026 8.026 0 0 0 8.023-8.028 8.026 8.026 0 0 0-8.023-8.03 8.026 8.026 0 0 0-8.024 8.03zm22.627-5.691a8.026 8.026 0 0 0 8.023 8.029 8.026 8.026 0 0 0 8.024-8.029 8.026 8.026 0 0 0-8.024-8.028 8.026 8.026 0 0 0-8.023 8.028zm22.937-4.305a8.026 8.026 0 0 0 8.024 8.029 8.026 8.026 0 0 0 8.023-8.03 8.026 8.026 0 0 0-8.023-8.028 8.026 8.026 0 0 0-8.024 8.029zm23.158-2.86a8.026 8.026 0 0 0 8.024 8.028 8.026 8.026 0 0 0 8.023-8.028 8.026 8.026 0 0 0-8.023-8.029 8.026 8.026 0 0 0-8.024 8.029zm23.299-1.436a8.026 8.026 0 0 0 8.023 8.03 8.026 8.026 0 0 0 8.024-8.03 8.026 8.026 0 0 0-8.024-8.028 8.026 8.026 0 0 0-8.023 8.029zm23.328 0a8.026 8.026 0 0 0 8.024 8.03 8.026 8.026 0 0 0 8.023-8.03 8.026 8.026 0 0 0-8.023-8.028 8.026 8.026 0 0 0-8.024 8.029zm23.299 1.436a8.026 8.026 0 0 0 8.023 8.028 8.026 8.026 0 0 0 8.024-8.028 8.026 8.026 0 0 0-8.024-8.029 8.026 8.026 0 0 0-8.023 8.029zm23.208 2.87a8.026 8.026 0 0 0 8.024 8.029 8.026 8.026 0 0 0 8.023-8.03 8.026 8.026 0 0 0-8.023-8.028 8.026 8.026 0 0 0-8.024 8.029zm22.887 4.295a8.026 8.026 0 0 0 8.024 8.029 8.026 8.026 0 0 0 8.024-8.029 8.026 8.026 0 0 0-8.024-8.028 8.026 8.026 0 0 0-8.024 8.028zm22.627 5.691a8.026 8.026 0 0 0 8.023 8.028 8.026 8.026 0 0 0 8.024-8.028 8.026 8.026 0 0 0-8.024-8.03 8.026 8.026 0 0 0-8.023 8.03zm22.245 7.075a8.026 8.026 0 0 0 8.024 8.029 8.026 8.026 0 0 0 8.024-8.03 8.026 8.026 0 0 0-8.024-8.028 8.026 8.026 0 0 0-8.024 8.029zm21.754 8.43a8.026 8.026 0 0 0 8.024 8.029 8.026 8.026 0 0 0 8.024-8.029 8.026 8.026 0 0 0-8.024-8.029 8.026 8.026 0 0 0-8.024 8.029zm21.203 9.765a8.026 8.026 0 0 0 8.023 8.029 8.026 8.026 0 0 0 8.024-8.03 8.026 8.026 0 0 0-8.024-8.028 8.026 8.026 0 0 0-8.023 8.029zm20.56 11.049a8.026 8.026 0 0 0 8.024 8.029 8.026 8.026 0 0 0 8.023-8.029 8.026 8.026 0 0 0-8.023-8.028 8.026 8.026 0 0 0-8.024 8.028zm19.838 12.294a8.026 8.026 0 0 0 8.024 8.029 8.026 8.026 0 0 0 8.024-8.029 8.026 8.026 0 0 0-8.024-8.028 8.026 8.026 0 0 0-8.024 8.028zm19.047 13.488a8.026 8.026 0 0 0 8.023 8.03 8.026 8.026 0 0 0 8.024-8.03 8.026 8.026 0 0 0-8.024-8.028 8.026 8.026 0 0 0-8.023 8.028zm-91.118 679.778a8.026 8.026 0 0 0 8.023 8.029 8.026 8.026 0 0 0 8.024-8.029 8.026 8.026 0 0 0-8.024-8.028 8.026 8.026 0 0 0-8.023 8.028zm-22.156 7.336a8.026 8.026 0 0 0 8.024 8.03 8.026 8.026 0 0 0 8.024-8.03 8.026 8.026 0 0 0-8.024-8.028 8.026 8.026 0 0 0-8.024 8.028zm-22.536 6.052a8.026 8.026 0 0 0 8.024 8.029 8.026 8.026 0 0 0 8.023-8.029 8.026 8.026 0 0 0-8.023-8.029 8.026 8.026 0 0 0-8.024 8.029zm-22.857 4.777a8.026 8.026 0 0 0 8.023 8.029 8.026 8.026 0 0 0 8.024-8.029 8.026 8.026 0 0 0-8.024-8.029 8.026 8.026 0 0 0-8.023 8.03zm-23.088 3.322a8.026 8.026 0 0 0 8.024 8.029 8.026 8.026 0 0 0 8.023-8.03 8.026 8.026 0 0 0-8.023-8.028 8.026 8.026 0 0 0-8.024 8.029zm-23.248 2.037a8.026 8.026 0 0 0 8.023 8.029 8.026 8.026 0 0 0 8.024-8.029 8.026 8.026 0 0 0-8.024-8.028 8.026 8.026 0 0 0-8.023 8.028zm-23.329.663a8.026 8.026 0 0 0 8.024 8.028 8.026 8.026 0 0 0 8.023-8.028 8.026 8.026 0 0 0-8.023-8.03 8.026 8.026 0 0 0-8.024 8.03zm-23.329-.663a8.026 8.026 0 0 0 8.024 8.029 8.026 8.026 0 0 0 8.024-8.029 8.026 8.026 0 0 0-8.024-8.028 8.026 8.026 0 0 0-8.024 8.028zm-23.248-2.037a8.026 8.026 0 0 0 8.024 8.029 8.026 8.026 0 0 0 8.023-8.03 8.026 8.026 0 0 0-8.023-8.028 8.026 8.026 0 0 0-8.024 8.029zm-23.088-3.382a8.026 8.026 0 0 0 8.024 8.029 8.026 8.026 0 0 0 8.023-8.03 8.026 8.026 0 0 0-8.023-8.028 8.026 8.026 0 0 0-8.024 8.029zm-22.857-4.717a8.026 8.026 0 0 0 8.023 8.029 8.026 8.026 0 0 0 8.024-8.029 8.026 8.026 0 0 0-8.024-8.029 8.026 8.026 0 0 0-8.023 8.029zm-22.536-6.042a8.026 8.026 0 0 0 8.023 8.03 8.026 8.026 0 0 0 8.024-8.03 8.026 8.026 0 0 0-8.024-8.028 8.026 8.026 0 0 0-8.023 8.028zm-22.156-7.346a8.026 8.026 0 0 0 8.024 8.029 8.026 8.026 0 0 0 8.024-8.029 8.026 8.026 0 0 0-8.024-8.028 8.026 8.026 0 0 0-8.024 8.028zm-21.683-8.621a8.026 8.026 0 0 0 8.023 8.03 8.026 8.026 0 0 0 8.024-8.03 8.026 8.026 0 0 0-8.024-8.028 8.026 8.026 0 0 0-8.023 8.028zm-21.153-9.875a8.026 8.026 0 0 0 8.024 8.029 8.026 8.026 0 0 0 8.024-8.029 8.026 8.026 0 0 0-8.024-8.029 8.026 8.026 0 0 0-8.024 8.03zm-20.54-11.069a8.026 8.026 0 0 0 8.024 8.028 8.026 8.026 0 0 0 8.023-8.028 8.026 8.026 0 0 0-8.023-8.03 8.026 8.026 0 0 0-8.024 8.03zm-19.858-12.264a8.026 8.026 0 0 0 8.023 8.028 8.026 8.026 0 0 0 8.024-8.028 8.026 8.026 0 0 0-8.024-8.029 8.026 8.026 0 0 0-8.023 8.029zm-19.117-13.398a8.026 8.026 0 0 0 8.024 8.029 8.026 8.026 0 0 0 8.024-8.03 8.026 8.026 0 0 0-8.024-8.028 8.026 8.026 0 0 0-8.024 8.029zm-18.303-14.482a8.026 8.026 0 0 0 8.023 8.029 8.026 8.026 0 0 0 8.024-8.029 8.026 8.026 0 0 0-8.024-8.028 8.026 8.026 0 0 0-8.023 8.028zm-17.442-15.495a8.026 8.026 0 0 0 8.024 8.029 8.026 8.026 0 0 0 8.023-8.03 8.026 8.026 0 0 0-8.023-8.028 8.026 8.026 0 0 0-8.024 8.029zm-16.498-16.539a8.026 8.026 0 0 0 8.023 8.028 8.026 8.026 0 0 0 8.024-8.028 8.026 8.026 0 0 0-8.024-8.029 8.026 8.026 0 0 0-8.023 8.029zm-15.516-17.453a8.026 8.026 0 0 0 8.024 8.03 8.026 8.026 0 0 0 8.023-8.03 8.026 8.026 0 0 0-8.023-8.028 8.026 8.026 0 0 0-8.024 8.028zM59.383 635.22a8.026 8.026 0 0 0 8.024 8.029 8.026 8.026 0 0 0 8.024-8.029 8.026 8.026 0 0 0-8.024-8.029 8.026 8.026 0 0 0-8.024 8.03zm-13.389-19.118a8.026 8.026 0 0 0 8.024 8.028 8.026 8.026 0 0 0 8.023-8.028 8.026 8.026 0 0 0-8.023-8.029 8.026 8.026 0 0 0-8.024 8.029zM33.748 596.2a8.026 8.026 0 0 0 8.024 8.03 8.026 8.026 0 0 0 8.023-8.03 8.026 8.026 0 0 0-8.023-8.028 8.026 8.026 0 0 0-8.024 8.029zm-11.072-20.533a8.026 8.026 0 0 0 8.023 8.03 8.026 8.026 0 0 0 8.024-8.03 8.026 8.026 0 0 0-8.024-8.028 8.026 8.026 0 0 0-8.023 8.028zm-9.87-21.155a8.026 8.026 0 0 0 8.024 8.029 8.026 8.026 0 0 0 8.024-8.03 8.026 8.026 0 0 0-8.024-8.028 8.026 8.026 0 0 0-8.024 8.029zm-8.615-21.708a8.026 8.026 0 0 0 8.024 8.029 8.026 8.026 0 0 0 8.023-8.029 8.026 8.026 0 0 0-8.023-8.028 8.026 8.026 0 0 0-8.024 8.028zm-7.341-22.169a8.026 8.026 0 0 0 8.023 8.029 8.026 8.026 0 0 0 8.024-8.029 8.026 8.026 0 0 0-8.024-8.029 8.026 8.026 0 0 0-8.023 8.03zm-6.038-22.55a8.026 8.026 0 0 0 8.023 8.028 8.026 8.026 0 0 0 8.024-8.028 8.026 8.026 0 0 0-8.024-8.03 8.026 8.026 0 0 0-8.023 8.03zm-4.714-22.872a8.026 8.026 0 0 0 8.024 8.029 8.026 8.026 0 0 0 8.023-8.03 8.026 8.026 0 0 0-8.023-8.028 8.026 8.026 0 0 0-8.024 8.029zm0-139.418a8.026 8.026 0 0 0 8.024 8.029 8.026 8.026 0 0 0 8.023-8.029 8.026 8.026 0 0 0-8.023-8.029 8.026 8.026 0 0 0-8.024 8.029zm4.714-22.862a8.026 8.026 0 0 0 8.023 8.029 8.026 8.026 0 0 0 8.024-8.029 8.026 8.026 0 0 0-8.024-8.028 8.026 8.026 0 0 0-8.023 8.028zm6.038-22.56a8.026 8.026 0 0 0 8.023 8.028 8.026 8.026 0 0 0 8.024-8.028 8.026 8.026 0 0 0-8.024-8.029 8.026 8.026 0 0 0-8.023 8.029zm7.341-22.169a8.026 8.026 0 0 0 8.024 8.028 8.026 8.026 0 0 0 8.023-8.028 8.026 8.026 0 0 0-8.023-8.03 8.026 8.026 0 0 0-8.024 8.03zm8.615-21.698a8.026 8.026 0 0 0 8.024 8.029 8.026 8.026 0 0 0 8.024-8.029 8.026 8.026 0 0 0-8.024-8.029 8.026 8.026 0 0 0-8.024 8.03zm9.87-21.166a8.026 8.026 0 0 0 8.023 8.03 8.026 8.026 0 0 0 8.024-8.03 8.026 8.026 0 0 0-8.024-8.028 8.026 8.026 0 0 0-8.023 8.029zm11.072-20.573a8.026 8.026 0 0 0 8.024 8.029 8.026 8.026 0 0 0 8.023-8.029 8.026 8.026 0 0 0-8.023-8.029 8.026 8.026 0 0 0-8.024 8.029zm12.246-19.851a8.026 8.026 0 0 0 8.024 8.029 8.026 8.026 0 0 0 8.023-8.029 8.026 8.026 0 0 0-8.023-8.029 8.026 8.026 0 0 0-8.024 8.03zm77.318-86.92a8.026 8.026 0 0 0 8.023 8.028 8.026 8.026 0 0 0 8.024-8.028 8.026 8.026 0 0 0-8.024-8.029 8.026 8.026 0 0 0-8.023 8.029zm18.303-14.482a8.026 8.026 0 0 0 8.024 8.029 8.026 8.026 0 0 0 8.024-8.029 8.026 8.026 0 0 0-8.024-8.029 8.026 8.026 0 0 0-8.024 8.029zm19.117-13.398a8.026 8.026 0 0 0 8.023 8.029 8.026 8.026 0 0 0 8.024-8.029 8.026 8.026 0 0 0-8.024-8.029 8.026 8.026 0 0 0-8.023 8.03zm19.858-12.264a8.026 8.026 0 0 0 8.024 8.029 8.026 8.026 0 0 0 8.023-8.029 8.026 8.026 0 0 0-8.023-8.028 8.026 8.026 0 0 0-8.024 8.028zm20.54-11.079a8.026 8.026 0 0 0 8.024 8.028 8.026 8.026 0 0 0 8.024-8.028 8.026 8.026 0 0 0-8.024-8.029 8.026 8.026 0 0 0-8.024 8.029zm21.153-9.865a8.026 8.026 0 0 0 8.023 8.028 8.026 8.026 0 0 0 8.024-8.028 8.026 8.026 0 0 0-8.024-8.03 8.026 8.026 0 0 0-8.023 8.03zm21.683-8.631a8.026 8.026 0 0 0 8.024 8.028 8.026 8.026 0 0 0 8.024-8.028 8.026 8.026 0 0 0-8.024-8.029 8.026 8.026 0 0 0-8.024 8.029zm22.156-7.337a8.026 8.026 0 0 0 8.023 8.03 8.026 8.026 0 0 0 8.024-8.03 8.026 8.026 0 0 0-8.024-8.028 8.026 8.026 0 0 0-8.023 8.029zm22.536-6.051a8.026 8.026 0 0 0 8.023 8.029 8.026 8.026 0 0 0 8.024-8.03 8.026 8.026 0 0 0-8.024-8.028 8.026 8.026 0 0 0-8.023 8.029zM311.515.172a8.026 8.026 0 0 0 8.024 8.029 8.026 8.026 0 0 0 8.023-8.029 8.026 8.026 0 0 0-8.023-8.029 8.026 8.026 0 0 0-8.024 8.029zm23.088-3.382a8.026 8.026 0 0 0 8.024 8.029 8.026 8.026 0 0 0 8.023-8.029 8.026 8.026 0 0 0-8.023-8.029 8.026 8.026 0 0 0-8.024 8.029zm23.248-2.037a8.026 8.026 0 0 0 8.024 8.028 8.026 8.026 0 0 0 8.024-8.028 8.026 8.026 0 0 0-8.024-8.029 8.026 8.026 0 0 0-8.024 8.029zm23.329-.703a8.026 8.026 0 0 0 8.024 8.029 8.026 8.026 0 0 0 8.023-8.029 8.026 8.026 0 0 0-8.023-8.028 8.026 8.026 0 0 0-8.024 8.028zm23.329.703a8.026 8.026 0 0 0 8.023 8.028 8.026 8.026 0 0 0 8.024-8.028 8.026 8.026 0 0 0-8.024-8.029 8.026 8.026 0 0 0-8.023 8.029zm23.248 2.037a8.026 8.026 0 0 0 8.024 8.029 8.026 8.026 0 0 0 8.023-8.029 8.026 8.026 0 0 0-8.023-8.029 8.026 8.026 0 0 0-8.024 8.029zM450.845.172a8.026 8.026 0 0 0 8.023 8.029 8.026 8.026 0 0 0 8.024-8.029 8.026 8.026 0 0 0-8.024-8.029 8.026 8.026 0 0 0-8.023 8.029zm22.847 4.717a8.026 8.026 0 0 0 8.024 8.029 8.026 8.026 0 0 0 8.023-8.03 8.026 8.026 0 0 0-8.023-8.028 8.026 8.026 0 0 0-8.024 8.029zm22.546 6.051a8.026 8.026 0 0 0 8.024 8.03 8.026 8.026 0 0 0 8.024-8.03 8.026 8.026 0 0 0-8.024-8.028 8.026 8.026 0 0 0-8.024 8.029zm22.145 7.347a8.026 8.026 0 0 0 8.024 8.028 8.026 8.026 0 0 0 8.024-8.028 8.026 8.026 0 0 0-8.024-8.029 8.026 8.026 0 0 0-8.024 8.029zm21.694 8.61a8.026 8.026 0 0 0 8.024 8.03 8.026 8.026 0 0 0 8.023-8.03 8.026 8.026 0 0 0-8.023-8.028 8.026 8.026 0 0 0-8.024 8.028zm21.153 9.876a8.026 8.026 0 0 0 8.023 8.028 8.026 8.026 0 0 0 8.024-8.028 8.026 8.026 0 0 0-8.024-8.029 8.026 8.026 0 0 0-8.024 8.029zm20.54 11.079a8.026 8.026 0 0 0 8.024 8.029 8.026 8.026 0 0 0 8.023-8.029 8.026 8.026 0 0 0-8.023-8.028 8.026 8.026 0 0 0-8.024 8.028zm19.858 12.264a8.026 8.026 0 0 0 8.024 8.029 8.026 8.026 0 0 0 8.024-8.029 8.026 8.026 0 0 0-8.024-8.029 8.026 8.026 0 0 0-8.024 8.03zm19.117 13.388a8.026 8.026 0 0 0 8.023 8.029 8.026 8.026 0 0 0 8.024-8.03 8.026 8.026 0 0 0-8.024-8.028 8.026 8.026 0 0 0-8.023 8.029zm18.303 14.482a8.026 8.026 0 0 0 8.024 8.028 8.026 8.026 0 0 0 8.024-8.028 8.026 8.026 0 0 0-8.024-8.029 8.026 8.026 0 0 0-8.024 8.029zM551.28 783.55a8.026 8.026 0 0 0 8.024 8.028 8.026 8.026 0 0 0 8.023-8.028 8.026 8.026 0 0 0-8.023-8.029 8.026 8.026 0 0 0-8.024 8.029zm-21.613 8.791a8.026 8.026 0 0 0 8.023 8.029 8.026 8.026 0 0 0 8.024-8.029 8.026 8.026 0 0 0-8.024-8.028 8.026 8.026 0 0 0-8.023 8.028zm-22.115 7.587a8.026 8.026 0 0 0 8.023 8.029 8.026 8.026 0 0 0 8.024-8.029 8.026 8.026 0 0 0-8.024-8.028 8.026 8.026 0 0 0-8.023 8.028zm-22.416 6.343a8.026 8.026 0 0 0 8.023 8.029 8.026 8.026 0 0 0 8.024-8.029 8.026 8.026 0 0 0-8.024-8.029 8.026 8.026 0 0 0-8.023 8.029zm-207.912.01a8.026 8.026 0 0 0 8.024 8.029 8.026 8.026 0 0 0 8.023-8.029 8.026 8.026 0 0 0-8.023-8.029 8.026 8.026 0 0 0-8.024 8.029zm-22.416-6.353a8.026 8.026 0 0 0 8.024 8.029 8.026 8.026 0 0 0 8.023-8.029 8.026 8.026 0 0 0-8.023-8.028 8.026 8.026 0 0 0-8.024 8.028zm-22.065-7.587a8.026 8.026 0 0 0 8.024 8.029 8.026 8.026 0 0 0 8.024-8.029 8.026 8.026 0 0 0-8.024-8.028 8.026 8.026 0 0 0-8.024 8.028zm-21.663-8.791a8.026 8.026 0 0 0 8.023 8.028 8.026 8.026 0 0 0 8.024-8.028 8.026 8.026 0 0 0-8.024-8.029 8.026 8.026 0 0 0-8.023 8.029zm-21.112-9.966a8.026 8.026 0 0 0 8.023 8.029 8.026 8.026 0 0 0 8.024-8.029 8.026 8.026 0 0 0-8.024-8.028 8.026 8.026 0 0 0-8.023 8.028zm-20.521-11.119a8.026 8.026 0 0 0 8.024 8.028 8.026 8.026 0 0 0 8.023-8.028 8.026 8.026 0 0 0-8.023-8.03 8.026 8.026 0 0 0-8.024 8.03zm-19.888-12.225a8.026 8.026 0 0 0 8.023 8.03 8.026 8.026 0 0 0 8.024-8.03 8.026 8.026 0 0 0-8.024-8.028 8.026 8.026 0 0 0-8.023 8.029zm-19.117-13.307a8.026 8.026 0 0 0 8.024 8.029 8.026 8.026 0 0 0 8.024-8.029 8.026 8.026 0 0 0-8.024-8.028 8.026 8.026 0 0 0-8.024 8.028zm-18.474-14.341a8.026 8.026 0 0 0 8.024 8.029 8.026 8.026 0 0 0 8.023-8.029 8.026 8.026 0 0 0-8.023-8.029 8.026 8.026 0 0 0-8.024 8.03zm-17.632-15.335a8.026 8.026 0 0 0 8.024 8.029 8.026 8.026 0 0 0 8.023-8.029 8.026 8.026 0 0 0-8.023-8.028 8.026 8.026 0 0 0-8.024 8.028zM77.647 690.97a8.026 8.026 0 0 0 8.024 8.028 8.026 8.026 0 0 0 8.023-8.029 8.026 8.026 0 0 0-8.023-8.028 8.026 8.026 0 0 0-8.024 8.028zM61.84 673.798a8.026 8.026 0 0 0 8.024 8.029 8.026 8.026 0 0 0 8.024-8.03 8.026 8.026 0 0 0-8.024-8.028 8.026 8.026 0 0 0-8.023 8.029zm-14.843-18.025a8.026 8.026 0 0 0 8.024 8.03 8.026 8.026 0 0 0 8.023-8.03 8.026 8.026 0 0 0-8.023-8.028 8.026 8.026 0 0 0-8.024 8.028zm-13.841-18.817a8.026 8.026 0 0 0 8.024 8.029 8.026 8.026 0 0 0 8.024-8.029 8.026 8.026 0 0 0-8.024-8.028 8.026 8.026 0 0 0-8.024 8.028zm-12.737-19.55a8.026 8.026 0 0 0 8.023 8.03 8.026 8.026 0 0 0 8.024-8.03 8.026 8.026 0 0 0-8.024-8.028 8.026 8.026 0 0 0-8.023 8.028zM8.755 597.204a8.026 8.026 0 0 0 8.023 8.029 8.026 8.026 0 0 0 8.024-8.029 8.026 8.026 0 0 0-8.024-8.028 8.026 8.026 0 0 0-8.023 8.028zM-1.786 576.35a8.026 8.026 0 0 0 8.023 8.028 8.026 8.026 0 0 0 8.024-8.028 8.026 8.026 0 0 0-8.024-8.029 8.026 8.026 0 0 0-8.023 8.029zm-9.378-21.387a8.026 8.026 0 0 0 8.024 8.03 8.026 8.026 0 0 0 8.023-8.03 8.026 8.026 0 0 0-8.023-8.028 8.026 8.026 0 0 0-8.024 8.028zm.01-318.919a8.026 8.026 0 0 0 8.024 8.03 8.026 8.026 0 0 0 8.023-8.03 8.026 8.026 0 0 0-8.023-8.028 8.026 8.026 0 0 0-8.024 8.028zm9.368-21.376a8.026 8.026 0 0 0 8.023 8.029 8.026 8.026 0 0 0 8.024-8.029 8.026 8.026 0 0 0-8.024-8.029 8.026 8.026 0 0 0-8.023 8.03zm10.541-20.844a8.026 8.026 0 0 0 8.023 8.028 8.026 8.026 0 0 0 8.024-8.028 8.026 8.026 0 0 0-8.024-8.029 8.026 8.026 0 0 0-8.023 8.029zM94.336 83.75a8.026 8.026 0 0 0 8.024 8.03 8.026 8.026 0 0 0 8.023-8.03 8.026 8.026 0 0 0-8.023-8.028 8.026 8.026 0 0 0-8.024 8.029zm17.642-15.334a8.026 8.026 0 0 0 8.024 8.028 8.026 8.026 0 0 0 8.023-8.028 8.026 8.026 0 0 0-8.023-8.029 8.026 8.026 0 0 0-8.024 8.029zm18.464-14.341a8.026 8.026 0 0 0 8.024 8.028 8.026 8.026 0 0 0 8.024-8.028 8.026 8.026 0 0 0-8.024-8.03 8.026 8.026 0 0 0-8.024 8.03zm19.117-13.308a8.026 8.026 0 0 0 8.023 8.029 8.026 8.026 0 0 0 8.024-8.029 8.026 8.026 0 0 0-8.024-8.029 8.026 8.026 0 0 0-8.023 8.029zm19.888-12.224a8.026 8.026 0 0 0 8.024 8.029 8.026 8.026 0 0 0 8.023-8.029 8.026 8.026 0 0 0-8.023-8.028 8.026 8.026 0 0 0-8.024 8.028zm20.521-11.119a8.026 8.026 0 0 0 8.023 8.028 8.026 8.026 0 0 0 8.024-8.028 8.026 8.026 0 0 0-8.024-8.029 8.026 8.026 0 0 0-8.023 8.029zm21.112-9.966a8.026 8.026 0 0 0 8.023 8.029 8.026 8.026 0 0 0 8.024-8.029 8.026 8.026 0 0 0-8.024-8.029 8.026 8.026 0 0 0-8.023 8.03zm21.663-8.791a8.026 8.026 0 0 0 8.024 8.028 8.026 8.026 0 0 0 8.024-8.028 8.026 8.026 0 0 0-8.024-8.029 8.026 8.026 0 0 0-8.024 8.029zm296.924.01a8.026 8.026 0 0 0 8.023 8.028 8.026 8.026 0 0 0 8.024-8.028 8.026 8.026 0 0 0-8.024-8.029 8.026 8.026 0 0 0-8.023 8.029zm21.613 8.781a8.026 8.026 0 0 0 8.024 8.029 8.026 8.026 0 0 0 8.023-8.029 8.026 8.026 0 0 0-8.023-8.029 8.026 8.026 0 0 0-8.024 8.03zm21.112 9.966a8.026 8.026 0 0 0 8.024 8.028 8.026 8.026 0 0 0 8.024-8.028 8.026 8.026 0 0 0-8.024-8.029 8.026 8.026 0 0 0-8.024 8.029zm20.521 11.119a8.026 8.026 0 0 0 8.023 8.029 8.026 8.026 0 0 0 8.024-8.029 8.026 8.026 0 0 0-8.024-8.028 8.026 8.026 0 0 0-8.023 8.028zm19.878 12.224a8.026 8.026 0 0 0 8.024 8.029 8.026 8.026 0 0 0 8.023-8.029 8.026 8.026 0 0 0-8.023-8.029 8.026 8.026 0 0 0-8.024 8.029zm19.177 13.308a8.026 8.026 0 0 0 8.023 8.028 8.026 8.026 0 0 0 8.024-8.028 8.026 8.026 0 0 0-8.024-8.03 8.026 8.026 0 0 0-8.023 8.03zm-48.423 738.828a8.026 8.026 0 0 0 8.024 8.029 8.026 8.026 0 0 0 8.023-8.029 8.026 8.026 0 0 0-8.023-8.028 8.026 8.026 0 0 0-8.024 8.028zm-21.062 10.037a8.026 8.026 0 0 0 8.024 8.028 8.026 8.026 0 0 0 8.023-8.029 8.026 8.026 0 0 0-8.023-8.029 8.026 8.026 0 0 0-8.024 8.03zm-362.606 0a8.026 8.026 0 0 0 8.023 8.028 8.026 8.026 0 0 0 8.024-8.029 8.026 8.026 0 0 0-8.024-8.029 8.026 8.026 0 0 0-8.023 8.03zm-21.062-10.037a8.026 8.026 0 0 0 8.023 8.029 8.026 8.026 0 0 0 8.024-8.029 8.026 8.026 0 0 0-8.024-8.028 8.026 8.026 0 0 0-8.023 8.028zm-20.511-11.119a8.026 8.026 0 0 0 8.024 8.028 8.026 8.026 0 0 0 8.024-8.028 8.026 8.026 0 0 0-8.024-8.03 8.026 8.026 0 0 0-8.024 8.03zm-19.898-12.204a8.026 8.026 0 0 0 8.023 8.029 8.026 8.026 0 0 0 8.024-8.03 8.026 8.026 0 0 0-8.024-8.028 8.026 8.026 0 0 0-8.023 8.029zm-19.236-13.217a8.026 8.026 0 0 0 8.023 8.028 8.026 8.026 0 0 0 8.024-8.028 8.026 8.026 0 0 0-8.024-8.029 8.026 8.026 0 0 0-8.024 8.029zm-18.515-14.221a8.026 8.026 0 0 0 8.023 8.029 8.026 8.026 0 0 0 8.024-8.03 8.026 8.026 0 0 0-8.024-8.028 8.026 8.026 0 0 0-8.023 8.029zm-17.742-15.164a8.026 8.026 0 0 0 8.023 8.028 8.026 8.026 0 0 0 8.024-8.028 8.026 8.026 0 0 0-8.024-8.029 8.026 8.026 0 0 0-8.023 8.029zm-16.93-16.068a8.026 8.026 0 0 0 8.023 8.03 8.026 8.026 0 0 0 8.024-8.03 8.026 8.026 0 0 0-8.024-8.028 8.026 8.026 0 0 0-8.023 8.028zm-16.067-16.95a8.026 8.026 0 0 0 8.023 8.029 8.026 8.026 0 0 0 8.024-8.03 8.026 8.026 0 0 0-8.024-8.028 8.026 8.026 0 0 0-8.023 8.029zm-15.155-17.754a8.026 8.026 0 0 0 8.024 8.03 8.026 8.026 0 0 0 8.023-8.03 8.026 8.026 0 0 0-8.023-8.028 8.026 8.026 0 0 0-8.024 8.028zM20.56 657.68a8.026 8.026 0 0 0 8.023 8.029 8.026 8.026 0 0 0 8.023-8.029 8.026 8.026 0 0 0-8.023-8.028 8.026 8.026 0 0 0-8.024 8.028zM7.34 638.432a8.026 8.026 0 0 0 8.024 8.028 8.026 8.026 0 0 0 8.024-8.028 8.026 8.026 0 0 0-8.024-8.03 8.026 8.026 0 0 0-8.024 8.03zM-4.855 618.53a8.026 8.026 0 0 0 8.023 8.03 8.026 8.026 0 0 0 8.024-8.03 8.026 8.026 0 0 0-8.024-8.028 8.026 8.026 0 0 0-8.023 8.028zm-11.133-20.523a8.026 8.026 0 0 0 8.023 8.029 8.026 8.026 0 0 0 8.024-8.029 8.026 8.026 0 0 0-8.024-8.029 8.026 8.026 0 0 0-8.023 8.03zm0-404.997a8.026 8.026 0 0 0 8.023 8.03 8.026 8.026 0 0 0 8.024-8.03 8.026 8.026 0 0 0-8.024-8.028 8.026 8.026 0 0 0-8.023 8.029zm11.133-20.523a8.026 8.026 0 0 0 8.023 8.03 8.026 8.026 0 0 0 8.024-8.03 8.026 8.026 0 0 0-8.024-8.028 8.026 8.026 0 0 0-8.023 8.028zM7.34 152.616a8.026 8.026 0 0 0 8.024 8.03 8.026 8.026 0 0 0 8.024-8.03 8.026 8.026 0 0 0-8.024-8.028 8.026 8.026 0 0 0-8.024 8.028zm27.421-37.815a8.026 8.026 0 0 0 8.024 8.03 8.026 8.026 0 0 0 8.023-8.03 8.026 8.026 0 0 0-8.023-8.028 8.026 8.026 0 0 0-8.024 8.028zm15.155-17.753a8.026 8.026 0 0 0 8.023 8.029 8.026 8.026 0 0 0 8.024-8.029 8.026 8.026 0 0 0-8.024-8.029 8.026 8.026 0 0 0-8.023 8.029zm16.067-16.94a8.026 8.026 0 0 0 8.023 8.028 8.026 8.026 0 0 0 8.024-8.028 8.026 8.026 0 0 0-8.024-8.03 8.026 8.026 0 0 0-8.023 8.03zm16.93-16.068a8.026 8.026 0 0 0 8.023 8.029 8.026 8.026 0 0 0 8.024-8.029 8.026 8.026 0 0 0-8.024-8.029 8.026 8.026 0 0 0-8.023 8.03zm17.742-15.164a8.026 8.026 0 0 0 8.023 8.029 8.026 8.026 0 0 0 8.024-8.029 8.026 8.026 0 0 0-8.024-8.029 8.026 8.026 0 0 0-8.023 8.029zm18.515-14.221a8.026 8.026 0 0 0 8.023 8.029 8.026 8.026 0 0 0 8.024-8.029 8.026 8.026 0 0 0-8.024-8.028 8.026 8.026 0 0 0-8.024 8.028zm19.236-13.227a8.026 8.026 0 0 0 8.023 8.029 8.026 8.026 0 0 0 8.024-8.029 8.026 8.026 0 0 0-8.024-8.029 8.026 8.026 0 0 0-8.023 8.029zm19.898-12.204a8.026 8.026 0 0 0 8.024 8.029 8.026 8.026 0 0 0 8.024-8.029 8.026 8.026 0 0 0-8.024-8.028 8.026 8.026 0 0 0-8.024 8.028zm20.511-11.159a8.026 8.026 0 0 0 8.023 8.028 8.026 8.026 0 0 0 8.024-8.028 8.026 8.026 0 0 0-8.024-8.03 8.026 8.026 0 0 0-8.023 8.03zm404.73 0a8.026 8.026 0 0 0 8.024 8.028 8.026 8.026 0 0 0 8.023-8.028 8.026 8.026 0 0 0-8.023-8.03 8.026 8.026 0 0 0-8.024 8.03zm20.51 11.159a8.026 8.026 0 0 0 8.024 8.029 8.026 8.026 0 0 0 8.024-8.029 8.026 8.026 0 0 0-8.024-8.028 8.026 8.026 0 0 0-8.024 8.028zm19.899 12.204a8.026 8.026 0 0 0 8.024 8.029A8.026 8.026 0 0 0 640 21.428a8.026 8.026 0 0 0-8.023-8.029 8.026 8.026 0 0 0-8.024 8.029zm19.236 13.227a8.026 8.026 0 0 0 8.024 8.029 8.026 8.026 0 0 0 8.024-8.029 8.026 8.026 0 0 0-8.024-8.028 8.026 8.026 0 0 0-8.023 8.028zM147.162 801.103a8.026 8.026 0 0 0 8.023 8.028 8.026 8.026 0 0 0 8.024-8.028 8.026 8.026 0 0 0-8.024-8.03 8.026 8.026 0 0 0-8.023 8.03zm-19.919-12.214a8.026 8.026 0 0 0 8.024 8.029 8.026 8.026 0 0 0 8.023-8.03 8.026 8.026 0 0 0-8.023-8.028 8.026 8.026 0 0 0-8.024 8.029zm-19.277-13.117a8.026 8.026 0 0 0 8.024 8.029 8.026 8.026 0 0 0 8.024-8.029 8.026 8.026 0 0 0-8.024-8.029 8.026 8.026 0 0 0-8.024 8.029zm-18.644-14.11a8.026 8.026 0 0 0 8.023 8.028 8.026 8.026 0 0 0 8.024-8.028 8.026 8.026 0 0 0-8.024-8.029 8.026 8.026 0 0 0-8.023 8.029zM71.48 746.658a8.026 8.026 0 0 0 8.023 8.029 8.026 8.026 0 0 0 8.023-8.029 8.026 8.026 0 0 0-8.023-8.029 8.026 8.026 0 0 0-8.024 8.03zm-17.111-15.877a8.026 8.026 0 0 0 8.023 8.029 8.026 8.026 0 0 0 8.024-8.029 8.026 8.026 0 0 0-8.024-8.028 8.026 8.026 0 0 0-8.023 8.028zM38.08 714.052a8.026 8.026 0 0 0 8.024 8.028 8.026 8.026 0 0 0 8.024-8.028 8.026 8.026 0 0 0-8.024-8.03 8.026 8.026 0 0 0-8.023 8.03zM22.635 696.56a8.026 8.026 0 0 0 8.024 8.028 8.026 8.026 0 0 0 8.024-8.029 8.026 8.026 0 0 0-8.024-8.029 8.026 8.026 0 0 0-8.024 8.03zM8.083 678.294a8.026 8.026 0 0 0 8.023 8.029 8.026 8.026 0 0 0 8.024-8.03 8.026 8.026 0 0 0-8.024-8.028 8.026 8.026 0 0 0-8.023 8.029zm-13.62-18.958a8.026 8.026 0 0 0 8.023 8.029 8.026 8.026 0 0 0 8.024-8.029 8.026 8.026 0 0 0-8.024-8.028 8.026 8.026 0 0 0-8.023 8.028zm0-527.654a8.026 8.026 0 0 0 8.023 8.028 8.026 8.026 0 0 0 8.024-8.028 8.026 8.026 0 0 0-8.024-8.029 8.026 8.026 0 0 0-8.023 8.029zm13.62-18.958a8.026 8.026 0 0 0 8.023 8.029 8.026 8.026 0 0 0 8.024-8.029 8.026 8.026 0 0 0-8.024-8.029 8.026 8.026 0 0 0-8.023 8.029zm14.552-18.255a8.026 8.026 0 0 0 8.024 8.028 8.026 8.026 0 0 0 8.024-8.028 8.026 8.026 0 0 0-8.024-8.029 8.026 8.026 0 0 0-8.024 8.029zM38.08 76.956a8.026 8.026 0 0 0 8.024 8.029 8.026 8.026 0 0 0 8.024-8.029 8.026 8.026 0 0 0-8.024-8.028 8.026 8.026 0 0 0-8.023 8.028zm16.299-16.669a8.026 8.026 0 0 0 8.023 8.028 8.026 8.026 0 0 0 8.024-8.028 8.026 8.026 0 0 0-8.024-8.029 8.026 8.026 0 0 0-8.023 8.029zM71.48 44.36a8.026 8.026 0 0 0 8.023 8.029 8.026 8.026 0 0 0 8.023-8.03 8.026 8.026 0 0 0-8.023-8.028 8.026 8.026 0 0 0-8.024 8.029zm17.842-15.014a8.026 8.026 0 0 0 8.023 8.029 8.026 8.026 0 0 0 8.024-8.029 8.026 8.026 0 0 0-8.024-8.028 8.026 8.026 0 0 0-8.023 8.028zm18.634-14.1a8.026 8.026 0 0 0 8.024 8.029 8.026 8.026 0 0 0 8.024-8.03 8.026 8.026 0 0 0-8.024-8.028 8.026 8.026 0 0 0-8.024 8.029zm19.287-13.167a8.026 8.026 0 0 0 8.024 8.029 8.026 8.026 0 0 0 8.023-8.03 8.026 8.026 0 0 0-8.023-8.028 8.026 8.026 0 0 0-8.024 8.029zm507.874 0a8.026 8.026 0 0 0 8.023 8.029 8.026 8.026 0 0 0 8.024-8.03 8.026 8.026 0 0 0-8.024-8.028 8.026 8.026 0 0 0-8.023 8.029zM96.753 795.171a8.026 8.026 0 0 0 8.024 8.029 8.026 8.026 0 0 0 8.024-8.029 8.026 8.026 0 0 0-8.024-8.028 8.026 8.026 0 0 0-8.024 8.028zm-18.675-13.99a8.026 8.026 0 0 0 8.024 8.029 8.026 8.026 0 0 0 8.024-8.029 8.026 8.026 0 0 0-8.024-8.028 8.026 8.026 0 0 0-8.024 8.028zm-18.002-14.873a8.026 8.026 0 0 0 8.023 8.029 8.026 8.026 0 0 0 8.024-8.029 8.026 8.026 0 0 0-8.024-8.028 8.026 8.026 0 0 0-8.023 8.028zm-17.261-15.706a8.026 8.026 0 0 0 8.023 8.029 8.026 8.026 0 0 0 8.024-8.029 8.026 8.026 0 0 0-8.024-8.029 8.026 8.026 0 0 0-8.023 8.03zm-16.499-16.509a8.026 8.026 0 0 0 8.024 8.029 8.026 8.026 0 0 0 8.023-8.029 8.026 8.026 0 0 0-8.023-8.028 8.026 8.026 0 0 0-8.024 8.028zM10.61 716.811a8.026 8.026 0 0 0 8.024 8.03 8.026 8.026 0 0 0 8.023-8.03 8.026 8.026 0 0 0-8.023-8.028 8.026 8.026 0 0 0-8.024 8.028zm-14.854-18.014a8.026 8.026 0 0 0 8.024 8.029 8.026 8.026 0 0 0 8.024-8.029 8.026 8.026 0 0 0-8.024-8.029 8.026 8.026 0 0 0-8.024 8.03zm0-606.587a8.026 8.026 0 0 0 8.024 8.03 8.026 8.026 0 0 0 8.024-8.03 8.026 8.026 0 0 0-8.024-8.028 8.026 8.026 0 0 0-8.024 8.029zM10.61 74.206a8.026 8.026 0 0 0 8.024 8.03 8.026 8.026 0 0 0 8.023-8.03 8.026 8.026 0 0 0-8.023-8.028 8.026 8.026 0 0 0-8.024 8.028zm15.696-17.281a8.026 8.026 0 0 0 8.024 8.028 8.026 8.026 0 0 0 8.023-8.028 8.026 8.026 0 0 0-8.023-8.029 8.026 8.026 0 0 0-8.024 8.029zm16.509-16.509a8.026 8.026 0 0 0 8.023 8.028 8.026 8.026 0 0 0 8.024-8.028 8.026 8.026 0 0 0-8.024-8.029 8.026 8.026 0 0 0-8.023 8.029zM60.076 24.71a8.026 8.026 0 0 0 8.023 8.028 8.026 8.026 0 0 0 8.024-8.028 8.026 8.026 0 0 0-8.024-8.029 8.026 8.026 0 0 0-8.023 8.029zM78.078 9.837a8.026 8.026 0 0 0 8.024 8.028 8.026 8.026 0 0 0 8.024-8.028 8.026 8.026 0 0 0-8.024-8.03 8.026 8.026 0 0 0-8.024 8.03zm18.685-13.99a8.026 8.026 0 0 0 8.024 8.028 8.026 8.026 0 0 0 8.024-8.028 8.026 8.026 0 0 0-8.024-8.03 8.026 8.026 0 0 0-8.024 8.03zM66.805 800.671a8.026 8.026 0 0 0 8.024 8.029 8.026 8.026 0 0 0 8.024-8.029 8.026 8.026 0 0 0-8.024-8.029 8.026 8.026 0 0 0-8.024 8.029zm-18.103-14.743a8.026 8.026 0 0 0 8.024 8.029 8.026 8.026 0 0 0 8.023-8.029 8.026 8.026 0 0 0-8.023-8.028 8.026 8.026 0 0 0-8.024 8.028zM31.29 770.383a8.026 8.026 0 0 0 8.024 8.028 8.026 8.026 0 0 0 8.024-8.028 8.026 8.026 0 0 0-8.024-8.029 8.026 8.026 0 0 0-8.023 8.029zm-16.688-16.318a8.026 8.026 0 0 0 8.023 8.028 8.026 8.026 0 0 0 8.024-8.028 8.026 8.026 0 0 0-8.024-8.03 8.026 8.026 0 0 0-8.023 8.03zm-15.927-17.071a8.026 8.026 0 0 0 8.024 8.028 8.026 8.026 0 0 0 8.023-8.028 8.026 8.026 0 0 0-8.023-8.03 8.026 8.026 0 0 0-8.024 8.03zm0-682.97a8.026 8.026 0 0 0 8.024 8.029 8.026 8.026 0 0 0 8.023-8.029A8.026 8.026 0 0 0 6.7 45.996a8.026 8.026 0 0 0-8.024 8.028zm15.927-17.071a8.026 8.026 0 0 0 8.023 8.03 8.026 8.026 0 0 0 8.024-8.03 8.026 8.026 0 0 0-8.024-8.028 8.026 8.026 0 0 0-8.023 8.028zM31.29 20.625a8.026 8.026 0 0 0 8.024 8.029 8.026 8.026 0 0 0 8.024-8.029 8.026 8.026 0 0 0-8.024-8.029 8.026 8.026 0 0 0-8.023 8.03zM48.702 5.09a8.026 8.026 0 0 0 8.024 8.028 8.026 8.026 0 0 0 8.023-8.028 8.026 8.026 0 0 0-8.023-8.03 8.026 8.026 0 0 0-8.024 8.03zM37.349 805.528a8.026 8.026 0 0 0 8.023 8.029 8.026 8.026 0 0 0 8.024-8.029 8.026 8.026 0 0 0-8.024-8.028 8.026 8.026 0 0 0-8.023 8.028zm-17.552-15.395a8.026 8.026 0 0 0 8.024 8.029 8.026 8.026 0 0 0 8.023-8.029 8.026 8.026 0 0 0-8.023-8.028 8.026 8.026 0 0 0-8.024 8.028zm-16.85-16.157a8.026 8.026 0 0 0 8.024 8.028 8.026 8.026 0 0 0 8.024-8.028 8.026 8.026 0 0 0-8.024-8.029 8.026 8.026 0 0 0-8.024 8.029zM-13.2 757.115a8.026 8.026 0 0 0 8.024 8.03 8.026 8.026 0 0 0 8.023-8.03 8.026 8.026 0 0 0-8.023-8.028 8.026 8.026 0 0 0-8.024 8.028zm.01-723.212a8.026 8.026 0 0 0 8.024 8.028 8.026 8.026 0 0 0 8.023-8.028 8.026 8.026 0 0 0-8.023-8.03 8.026 8.026 0 0 0-8.024 8.03zM2.947 17.032a8.026 8.026 0 0 0 8.024 8.029 8.026 8.026 0 0 0 8.024-8.029 8.026 8.026 0 0 0-8.024-8.028 8.026 8.026 0 0 0-8.024 8.028zM19.797.885a8.026 8.026 0 0 0 8.024 8.028A8.026 8.026 0 0 0 35.844.885a8.026 8.026 0 0 0-8.023-8.03 8.026 8.026 0 0 0-8.024 8.03zM-8.667 793.907a8.026 8.026 0 0 0 8.024 8.028 8.026 8.026 0 0 0 8.024-8.028 8.026 8.026 0 0 0-8.024-8.029 8.026 8.026 0 0 0-8.024 8.029zm0-796.756A8.026 8.026 0 0 0-.643 5.18 8.026 8.026 0 0 0 7.38-2.85a8.026 8.026 0 0 0-8.024-8.028A8.026 8.026 0 0 0-8.667-2.85z"/></g></g></svg>