<svg width="21" height="21" xmlns="http://www.w3.org/2000/svg"><defs><linearGradient x1="0%" y1="100%" y2="0%" id="a"><stop stop-color="#6673B4" offset="0%"/><stop stop-color="#9EAEFF" offset="100%"/></linearGradient></defs><path d="M10.5 15.05c.604 0 1.189-.117 1.733-.341a4.57 4.57 0 0 0 2.476-2.476c.224-.544.341-1.13.341-1.733 0-.604-.117-1.189-.341-1.733a4.57 4.57 0 0 0-2.476-2.476A4.534 4.534 0 0 0 10.5 5.95c-.604 0-1.189.117-1.733.341A4.57 4.57 0 0 0 6.29 8.767a4.534 4.534 0 0 0-.34 1.733c0 .604.117 1.189.341 1.733a4.57 4.57 0 0 0 2.476 2.476c.544.224 1.13.341 1.733.341zm0 1.998c-.54 0-1.07-.065-1.584-.193l-.73 1.56c-.565 1.206-2.374.36-1.81-.847l.697-1.487a6.577 6.577 0 0 1-2.154-2.154l-1.487.696c-1.206.565-2.053-1.244-.847-1.81l1.56-.73a6.561 6.561 0 0 1 0-3.167l-1.56-.73c-1.206-.565-.36-2.374.847-1.81l1.487.697a6.577 6.577 0 0 1 2.154-2.154l-.696-1.487c-.565-1.206 1.244-2.053 1.81-.847l.73 1.56a6.561 6.561 0 0 1 3.167 0l.73-1.56c.565-1.206 2.374-.36 1.81.847l-.697 1.487a6.577 6.577 0 0 1 2.154 2.154l1.487-.696c1.206-.565 2.053 1.244.847 1.81l-1.56.73a6.561 6.561 0 0 1 0 3.167l1.56.73c1.206.565.36 2.374-.847 1.81l-1.487-.697a6.577 6.577 0 0 1-2.154 2.154l.696 1.487c.565 1.206-1.244 2.053-1.81.847l-.73-1.56a6.561 6.561 0 0 1-1.583.193z" fill="url(#a)"/></svg>