<svg width="21" height="21" xmlns="http://www.w3.org/2000/svg"><defs><linearGradient x1="0%" y1="100%" y2="0%" id="a"><stop stop-color="#6673B4" offset="0%"/><stop stop-color="#9EAEFF" offset="100%"/></linearGradient></defs><path d="M4.607 12.293v-9.5a.793.793 0 1 1 1.586 0v1.474h.587a1 1 0 0 1 1 1v1.4a1 1 0 0 1-1 1h-.587v4.626A3.401 3.401 0 0 1 5.4 19a3.4 3.4 0 0 1-.793-6.707zm11.786-3.586v9.5a.793.793 0 1 1-1.586 0v-1.474h-.587a1 1 0 0 1-1-1v-1.4a1 1 0 0 1 1-1h.587V8.707A3.401 3.401 0 0 1 15.6 2a3.4 3.4 0 0 1 .793 6.707zM15.6 7.213a1.813 1.813 0 1 0 0-3.626 1.813 1.813 0 0 0 0 3.626zm-10.2 10.2a1.813 1.813 0 1 0 0-3.626 1.813 1.813 0 0 0 0 3.626z" fill="url(#a)" fill-rule="evenodd"/></svg>