<svg width="21" height="21" xmlns="http://www.w3.org/2000/svg"><defs><linearGradient x1="0%" y1="100%" y2="0%" id="a"><stop stop-color="#6673B4" offset="0%"/><stop stop-color="#9EAEFF" offset="100%"/></linearGradient></defs><path d="M6.4 12.8V8.2H2.9a.9.9 0 0 1 0-1.8h3.5V2.9a.9.9 0 0 1 1.8 0v3.5h4.6V2.9a.9.9 0 1 1 1.8 0v3.5h3.5a.9.9 0 1 1 0 1.8h-3.5v4.6h3.5a.9.9 0 1 1 0 1.8h-3.5v3.5a.9.9 0 1 1-1.8 0v-3.5H8.2v3.5a.9.9 0 1 1-1.8 0v-3.5H2.9a.9.9 0 1 1 0-1.8h3.5zm1.8 0h4.6V8.2H8.2v4.6z" fill="url(#a)" fill-rule="evenodd"/></svg>