<svg width="40" height="40" xmlns="http://www.w3.org/2000/svg"><defs><linearGradient x1="0%" y1="100%" y2="0%" id="a"><stop stop-color="#6673B4" offset="0%"/><stop stop-color="#9EAEFF" offset="100%"/></linearGradient></defs><path d="M19.828 20.173l1.3-4.854 3.553 3.553-4.853 1.3zm-5.467-3.417l-1.3 4.855-3.555-3.553 4.855-1.302zm4.442 4.443l-1.3 4.852-3.555-3.552 4.855-1.3zm3.14 9.296l-3.554-3.554 4.855-1.301-1.302 4.855zM27.52 12.48l1.302-4.854 3.552 3.552-4.854 1.302zm-2.326 5.879l-3.553-3.553 4.854-1.301-1.301 4.854zm4.14-11.247l4.854-1.3-1.3 4.854-3.554-3.554zm5.81-2.258L36.448 0 40 3.553l-4.854 1.301zM16.577 32.308l1.3-4.854 3.555 3.552-4.855 1.302zm-3.14-9.296l3.553 3.553-4.854 1.3 1.301-4.853zM8.994 18.57l3.553 3.554-4.854 1.3 1.3-4.854zM7.88 24.125l4.854-1.3-1.3 4.853-3.554-3.553zm4.441 4.441l4.855-1.3-1.3 4.853-3.555-3.553zm-.512.514l3.553 3.553-4.854 1.301 1.3-4.854zm-.889-.889l-4.854 1.3 1.301-4.853 3.553 3.553zm-4.254-3.74l-1.3 4.853-3.554-3.553 4.854-1.3zm7.583 13.736l-3.553-3.553 4.853-1.3-1.3 4.853zm-5.367 1.814l1.3-4.853 3.554 3.552-4.854 1.301zm-3.14-9.296l3.553 3.554-4.854 1.301 1.3-4.855zM1.3 26.264l3.553 3.551L0 31.118l1.3-4.854zM.188 31.818l4.854-1.3-1.302 4.854-3.552-3.554zm4.441 4.443l4.854-1.302-1.3 4.854-3.554-3.552z" fill="url(#a)" fill-rule="evenodd"/></svg>