<svg width="30" height="30" xmlns="http://www.w3.org/2000/svg"><defs><linearGradient x1="0%" y1="100%" y2="0%" id="a"><stop stop-color="#6673B4" offset="0%"/><stop stop-color="#9EAEFF" offset="100%"/></linearGradient></defs><path d="M15 30c8.284 0 15-6.716 15-15 0-8.284-6.716-15-15-15C6.716 0 0 6.716 0 15c0 8.284 6.716 15 15 15zM6.215 18.68c1.627 3.697 5 6.098 8.78 6.098 3.763 0 7.133-2.404 8.767-6.095.516-1.25 1.437-.629 1.2 0-1.679 4.306-5.51 7.315-9.967 7.315-4.467 0-8.305-2.997-9.978-7.317-.145-.49.657-1.176 1.198 0zm8.388.779l-3.616-3.765a.608.608 0 0 1 0-.838.55.55 0 0 1 .804 0l2.644 2.755V5.592c0-.329.253-.592.568-.592.316 0 .569.263.569.592v12.02l2.639-2.756a.55.55 0 0 1 .804 0 .608.608 0 0 1 0 .838l-3.612 3.765a.544.544 0 0 1-.8 0z" fill="url(#a)" fill-rule="evenodd"/></svg>