<svg width="30" height="30" fill="none" xmlns="http://www.w3.org/2000/svg"><rect width="30" height="30" rx="4" fill="url(#paint0_linear)"/><path d="M8.513 20v-9.73h5.74v.784H9.38v4.018h4.144v.77H9.38V20h-.868zm12.65-10.108V20h-.84v-.518c-.737.439-1.484.658-2.24.658-.345 0-.644-.042-.896-.126-.252-.075-.509-.229-.77-.462-.532-.476-.798-1.405-.798-2.786 0-1.39.224-2.39.672-2.996.448-.607 1.204-.91 2.268-.91.41 0 .999.06 1.764.182v-3.15h.84zm-4.13 9.03c.177.177.35.299.518.364.177.065.401.098.672.098.28 0 .597-.051.952-.154.364-.103.649-.2.854-.294l.294-.154V13.77c-.747-.112-1.325-.168-1.736-.168-.793 0-1.344.243-1.652.728-.299.485-.448 1.237-.448 2.254 0 1.195.182 1.974.546 2.338z" fill="#fff"/><defs><linearGradient id="paint0_linear" x1="15.832" y1="-13.335" x2="-14.168" y2="15" gradientUnits="userSpaceOnUse"><stop stop-color="#855DF8"/><stop offset="1" stop-color="#3C2DA9"/></linearGradient></defs></svg>