<svg width="178" height="74" xmlns="http://www.w3.org/2000/svg"><path d="M34.778 38.149a6.566 6.566 0 0 1-1.56-.25 4.764 4.764 0 0 1-1.519-.718 3.547 3.547 0 0 1-1.022-1.151 3.353 3.353 0 0 1-.169-.387c-1.599-1.31-2.412-2.463-4.781-3.277 1.375.226 2.938 1.189 4.582 2.234a3.354 3.354 0 0 1 0-.208v-8.934h1.662v8.318c-.011.477.087.95.288 1.383.178.372.437.7.759.959.295.233.63.41.99.52.678.203 1.4.203 2.078 0 .364-.11.704-.29 1-.528.313-.257.565-.582.734-.951.2-.433.3-.906.288-1.383v-8.318h1.67v8.854a3.407 3.407 0 0 1-.376 1.646 3.692 3.692 0 0 1-1.03 1.19c-.283.213-.589.39-.911.531.047 0 .095-.002.143-.004 3.904-.178 13.96-.133 11.593-10.923h.705c.713-.05 1.41.227 1.894.751.81.946.81 2.34 0 3.285a2.378 2.378 0 0 1-1.894.743h-.391l2.653 6.472h1.734l-2.326-5.297.616-.36c.29-.174.562-.38.807-.615a4.31 4.31 0 0 0 .583-.767c.17-.281.304-.582.4-.895a3.7 3.7 0 0 0 .136-.911 4.89 4.89 0 0 0-.208-1.39 3.112 3.112 0 0 0-.624-1.191 2.878 2.878 0 0 0-1.054-.807 3.807 3.807 0 0 0-1.646-.312h-1.756c-8.97-11.233-11.546-9.195-13.315-10.518a155.355 155.355 0 0 1-4.616-3.652c.89.583 8.845 5.757 9.76 4.523.834-1.123-2.517-6.095-3.45-7.445.908 1.221 4.112 5.561 5.874 8.317 2.062 3.229 5.438 8.544 8.912 6.893 3.48-1.651 6.844-2.627 4.45-8.151-2.394-5.518-4.303-10.036-4.229-11.675.012-.24-.466-2.688-.485-2.903.737 2.394 2.51 8.336 3.505 8.415 1.46.117 1.16-8.918 1.203-9.428.043.442.135 20.354 7.347 18.107.307-.098.596-.202.866-.319v7.261a7.377 7.377 0 1 0 0 14.756v10.183c-7.489 6.604-14.418 15.572-12.865 23.643-.111-.233-3.597-8.12 6.29-19.476 2.61-2.989-.036-11.625-6.61-14.528-6.567-2.904-8.685-.522-11.735 2.922-3.057 3.443-7.427 6.383-8.802 6.555 3.468-2.216 3.793-3.499 4.91-4.714 1.08-1.173 4.217-3.996 4.407-4.174-.337.074-7.243 1.682-10.71 1.461a21.22 21.22 0 0 1-3.726-.657c4.53.338 9.348-.129 11.46-1.786a31.521 31.521 0 0 1-2.49-.92zM78.82 55.537a1.157 1.157 0 0 1-1.637 1.637 1.134 1.134 0 0 1-.276-1.153l-9.212-9.212c-.405.131-.85.024-1.152-.276a1.157 1.157 0 0 1 1.636-1.637c.301.302.408.747.276 1.153l9.213 9.212c.405-.132.85-.025 1.152.276zM66.544 41.6a1.157 1.157 0 0 1 1.636-1.636c.301.302.408.747.276 1.153l6.111 6.111a1.131 1.131 0 0 1 1.153.277 1.157 1.157 0 0 1-1.636 1.636 1.133 1.133 0 0 1-.277-1.153l-6.111-6.111a1.132 1.132 0 0 1-1.152-.277zm0-4.027a1.157 1.157 0 0 1 1.636-1.636c.301.301.408.747.276 1.152l4.653 4.653h3.789c.05-.104.117-.199.199-.28a1.157 1.157 0 1 1 0 1.636 1.027 1.027 0 0 1-.2-.281h-4.232l-4.969-4.968c-.405.131-.85.025-1.152-.276zm0-4.493a1.157 1.157 0 0 1 1.636-1.637c.081.082.149.177.198.282h8.52c.05-.105.117-.2.2-.282a1.184 1.184 0 0 1 1.634 0 1.157 1.157 0 0 1-1.635 1.637 1.028 1.028 0 0 1-.2-.281h-8.519c-.05.104-.116.198-.197.28a1.16 1.16 0 0 1-1.637 0zm0-4.493a1.158 1.158 0 0 1 0-1.637 1.134 1.134 0 0 1 1.152-.275l4.968-4.968h4.234c.05-.105.117-.2.2-.282a1.184 1.184 0 0 1 1.634 0 1.157 1.157 0 1 1-1.635 1.637 1.028 1.028 0 0 1-.2-.281H73.11l-4.653 4.654c.132.405.026.85-.276 1.152a1.158 1.158 0 0 1-1.636 0zm0-4.028a1.158 1.158 0 0 1 0-1.637 1.134 1.134 0 0 1 1.152-.275l6.111-6.112a1.133 1.133 0 0 1 .277-1.153 1.157 1.157 0 0 1 1.636 1.637c-.301.302-.747.41-1.153.276l-6.11 6.112c.131.405.024.85-.277 1.152a1.158 1.158 0 0 1-1.637 0zm0-4.933a1.158 1.158 0 0 1 0-1.636 1.137 1.137 0 0 1 1.152-.277l9.196-9.195a1.147 1.147 0 0 1 .292-1.108 1.157 1.157 0 0 1 1.636 1.636c-.312.314-.78.415-1.195.26l-9.169 9.167c.132.406.026.851-.276 1.153a1.158 1.158 0 0 1-1.636 0zM8.462 25.458h1.662v12.545H8.43l-2.684-3.947-2.741-4.18H1.67v8.127H0V25.458h1.718l2.118 3.069 3.1 4.706.296.36h1.23v-8.135zm7.76 5.562h7.31v1.302h-7.31V31.02zm0 5.69H24.5v1.293h-8.28V36.71zm0-11.252H24.5v1.294h-8.28v-1.294zm68.144 2.03c.227.527.333 1.097.312 1.67v5.13a3.375 3.375 0 0 1-1.279 2.789 4.39 4.39 0 0 1-1.414.695 5.48 5.48 0 0 1-1.638.231h-4.563V36.71h4.172a3.567 3.567 0 0 0 1.038-.16c.36-.108.695-.282.991-.511a2.83 2.83 0 0 0 .735-.959c.21-.438.311-.92.296-1.406v-3.9a2.917 2.917 0 0 0-.296-1.39 2.473 2.473 0 0 0-.743-.935 2.66 2.66 0 0 0-.983-.536 3.567 3.567 0 0 0-1.038-.16h-4.172v-1.294h4.563c.61-.01 1.218.068 1.806.232a4.19 4.19 0 0 1 1.359.687c.367.299.66.68.854 1.11zm12.083-2.03l4.354 12.545H99.03l-3.1-10.324h-1.271l-3.085 10.324h-1.782l4.427-12.545h2.23zm26.018 0l4.346 12.545h-1.765l-3.101-10.324h-1.278l-3.077 10.324h-1.79l4.427-12.545h2.238zm36.317 0l4.355 12.545h-1.774l-3.1-10.324h-1.27l-3.085 10.324h-1.782l4.427-12.545h2.23zm-54.848 0h8.83v1.335h-3.572v11.21h-1.67v-11.21h-3.588v-1.335zm37.309 11.251h6.712v1.294h-8.342V25.458h1.63V36.71zm36.597-2.78c.06.21.092.427.096.646.003.48-.072.959-.223 1.415a2.996 2.996 0 0 1-.632 1.07c-.28.302-.624.537-1.007.688-.467.183-.968.27-1.47.255h-6.08V25.458h5.816a4.286 4.286 0 0 1 1.583.256c.38.145.723.371 1.006.663.25.265.438.581.552.927.122.401.184.819.184 1.239a2.1 2.1 0 0 1-.08.559c-.06.22-.146.432-.256.63a2.647 2.647 0 0 1-.416.544 1.96 1.96 0 0 1-.535.376l-1.51.72 1.51.718c.247.12.474.28.671.472.193.193.36.41.496.647.127.227.227.468.295.72zm-7.647-7.177v4.164h3.26a2.623 2.623 0 0 0 1.782-.536c.415-.375.648-.91.64-1.47a2.161 2.161 0 0 0-.56-1.518 2.39 2.39 0 0 0-1.862-.64h-3.26zm5.178 9.334a2.23 2.23 0 0 0 .648-1.63 2.47 2.47 0 0 0-.568-1.63 2.3 2.3 0 0 0-1.854-.736h-3.404v4.62h3.404a2.438 2.438 0 0 0 1.774-.624z" fill="#D0D8FF" fill-rule="evenodd"/></svg>