<svg width="30" height="30" xmlns="http://www.w3.org/2000/svg"><defs><linearGradient x1="0%" y1="100%" y2="0%" id="a"><stop stop-color="#6673B4" offset="0%"/><stop stop-color="#9EAEFF" offset="100%"/></linearGradient></defs><path d="M15 30C6.716 30 0 23.284 0 15 0 6.716 6.716 0 15 0c8.284 0 15 6.716 15 15 0 8.284-6.716 15-15 15zm7.334-21.357A9.668 9.668 0 0 1 24.706 15c0 5.36-4.346 9.706-9.706 9.706a9.668 9.668 0 0 1-6.37-2.384.5.5 0 0 0 .106-.081L22.334 8.643zm-.853-.868L7.876 21.381a.5.5 0 0 0-.087.116A9.67 9.67 0 0 1 5.294 15c0-5.36 4.346-9.706 9.706-9.706a9.67 9.67 0 0 1 6.481 2.481zM15 26c6.075 0 11-4.925 11-11S21.075 4 15 4 4 8.925 4 15s4.925 11 11 11z" fill="url(#a)" fill-rule="evenodd"/></svg>