<svg width="12" height="20" xmlns="http://www.w3.org/2000/svg"><defs><linearGradient x1="0%" y1="100%" y2="0%" id="a"><stop stop-color="#6673B4" offset="0%"/><stop stop-color="#9EAEFF" offset="100%"/></linearGradient></defs><path d="M4.477 19.76c.144.156.337.24.526.24a.703.703 0 0 0 .526-.24l4.75-5.145a.855.855 0 0 0 0-1.146.706.706 0 0 0-1.057 0L5.75 17.235V.81c0-.45-.332-.81-.747-.81-.416 0-.748.36-.748.81v16.425L.778 13.47a.706.706 0 0 0-1.058 0 .855.855 0 0 0 0 1.146l4.757 5.145z" transform="translate(1)" fill="url(#a)" fill-rule="evenodd"/></svg>