<svg width="17" height="24" fill="none" xmlns="http://www.w3.org/2000/svg"><path fill-rule="evenodd" clip-rule="evenodd" d="M6.78 5.47a.672.672 0 0 1 .336-.09h4.855c.575 0 1.111.045 1.601.14a5.74 5.74 0 0 1 .978.28c.241.097.466.21.672.34.243-1.86-.002-3.125-.84-4.272C13.458.606 11.79.065 9.657.065H3.463c-.436 0-.807.38-.876.897L.01 20.588c-.052.388.198.738.524.738h3.825L6.35 6.166c.04-.303.2-.563.43-.695z" fill="#9EAEFF"/><path fill-rule="evenodd" clip-rule="evenodd" d="M15.159 6.576c-.817 5.032-3.612 6.773-7.181 6.773H6.16c-.436 0-.804.38-.872.897l-1.194 9.088c-.045.339.173.646.459.646h3.223c.382 0 .706-.333.766-.785l.031-.198.608-4.62.039-.255c.06-.452.384-.785.766-.785h.482c3.122 0 5.567-1.522 6.282-5.925.298-1.84.143-3.375-.645-4.454a3.228 3.228 0 0 0-.883-.817c-.019.142-.04.286-.063.435z" fill="#A9B2E1"/><path fill-rule="evenodd" clip-rule="evenodd" d="M14.368 5.732a5.164 5.164 0 0 0-.795-.212 8.433 8.433 0 0 0-1.602-.14H7.117a.672.672 0 0 0-.335.091c-.23.132-.392.392-.431.695l-1.032 7.851-.03.23c.068-.517.436-.898.872-.898H7.98c3.57 0 6.364-1.74 7.18-6.773.025-.149.045-.293.064-.435a4.046 4.046 0 0 0-.855-.409" fill="#6673B4"/></svg>